M48
;Layer_Color=9474304
;FILE_FORMAT=2:3
INCH,LZ
;TYPE=PLATED
T1F00S00C0.020
T2F00S00C0.028
T3F00S00C0.030
T4F00S00C0.035
T5F00S00C0.039
T6F00S00C0.040
T7F00S00C0.071
%
T01
X0057Y0046
X00464Y01294
X001Y01305
X00095Y0181
X0026
X0044
X00649Y01636
X-00065Y01635
X-0004Y013
X-00725Y02405
T02
X-00395Y00045
X0069Y00565
X00595Y0101
X0069Y0121
X00649Y01371
X00875Y01495
X-002Y0144
X-0042Y01445
Y0132
Y01185
Y01025
Y009
X-00615Y008
X-00931Y00585
X-0042Y0159
X-00455Y02205
X-0037Y0229
X-00225Y02245
X-0024Y02145
X-00165Y0232
X-00545Y02115
T03
X-00823Y00783
X-00921Y0098
X-00823Y01177
X-00421Y00783
T04
X-007Y0018
Y0023
Y0043
Y0048
T05
X00933Y01327
X-00921
Y02225
X00933
T06
X-00231Y0012
X-00131
X-00031
X00069
X00169
X00269
X00369
X00469
X00569
X00669
X00769
X00869
X00569Y0072
X00469
X00369
X00269
X00169
X00069
X-00031
X-00131
X-00231
T07
X-00496Y02413
X-00331
X-00165
X0
Y0263
X-00165
X-00331
X-00496
X00165
X00331
X00496
Y02413
X00331
X00165
M30
