%FSLAX23Y23*%
%MOIN*%
G70*
G01*
G75*
G04 Layer_Color=16711935*
G04:AMPARAMS|DCode=10|XSize=51mil|YSize=118mil|CornerRadius=0mil|HoleSize=0mil|Usage=FLASHONLY|Rotation=180.000|XOffset=0mil|YOffset=0mil|HoleType=Round|Shape=Octagon|*
%AMOCTAGOND10*
4,1,8,0.013,-0.059,-0.013,-0.059,-0.026,-0.046,-0.026,0.046,-0.013,0.059,0.013,0.059,0.026,0.046,0.026,-0.046,0.013,-0.059,0.0*
%
%ADD10OCTAGOND10*%

%ADD11R,0.051X0.118*%
%ADD12R,0.051X0.073*%
%ADD13C,0.039*%
%ADD14C,0.118*%
%ADD15C,0.030*%
%ADD16C,0.020*%
%ADD17C,0.060*%
%ADD18C,0.071*%
%ADD19R,0.071X0.071*%
%ADD20C,0.091*%
G04:AMPARAMS|DCode=21|XSize=98mil|YSize=118mil|CornerRadius=0mil|HoleSize=0mil|Usage=FLASHONLY|Rotation=180.000|XOffset=0mil|YOffset=0mil|HoleType=Round|Shape=Octagon|*
%AMOCTAGOND21*
4,1,8,0.025,-0.059,-0.025,-0.059,-0.049,-0.034,-0.049,0.034,-0.025,0.059,0.025,0.059,0.049,0.034,0.049,-0.034,0.025,-0.059,0.0*
%
%ADD21OCTAGOND21*%

%ADD22O,0.098X0.118*%
%ADD23C,0.074*%
%ADD24C,0.050*%
%ADD25C,0.028*%
%ADD26C,0.031*%
%ADD27R,0.055X0.043*%
%ADD28R,0.043X0.055*%
%ADD29R,0.177X0.118*%
%ADD30R,0.026X0.047*%
%ADD31R,0.047X0.026*%
%ADD32C,0.010*%
%ADD33C,0.059*%
%ADD34C,0.008*%
%ADD35C,0.006*%
%ADD36C,0.012*%
%ADD37C,0.020*%
%ADD38C,0.010*%
%ADD39C,0.008*%
%ADD40C,0.006*%
G04:AMPARAMS|DCode=41|XSize=59mil|YSize=126mil|CornerRadius=0mil|HoleSize=0mil|Usage=FLASHONLY|Rotation=180.000|XOffset=0mil|YOffset=0mil|HoleType=Round|Shape=Octagon|*
%AMOCTAGOND41*
4,1,8,0.015,-0.063,-0.015,-0.063,-0.030,-0.048,-0.030,0.048,-0.015,0.063,0.015,0.063,0.030,0.048,0.030,-0.048,0.015,-0.063,0.0*
%
%ADD41OCTAGOND41*%

%ADD42R,0.059X0.126*%
%ADD43R,0.059X0.081*%
%ADD44C,0.068*%
%ADD45C,0.079*%
%ADD46R,0.079X0.079*%
%ADD47C,0.099*%
G04:AMPARAMS|DCode=48|XSize=106mil|YSize=126mil|CornerRadius=0mil|HoleSize=0mil|Usage=FLASHONLY|Rotation=180.000|XOffset=0mil|YOffset=0mil|HoleType=Round|Shape=Octagon|*
%AMOCTAGOND48*
4,1,8,0.027,-0.063,-0.027,-0.063,-0.053,-0.036,-0.053,0.036,-0.027,0.063,0.027,0.063,0.053,0.036,0.053,-0.036,0.027,-0.063,0.0*
%
%ADD48OCTAGOND48*%

%ADD49O,0.106X0.126*%
%ADD50C,0.082*%
%ADD51C,0.058*%
%ADD52C,0.036*%
%ADD53C,0.039*%
%ADD54R,0.063X0.051*%
%ADD55R,0.051X0.063*%
%ADD56R,0.185X0.126*%
%ADD57R,0.034X0.055*%
%ADD58R,0.055X0.034*%
D44*
X-421Y783D02*
D03*
X-823D02*
D03*
Y1177D02*
D03*
X-921Y980D02*
D03*
D45*
X-700Y230D02*
D03*
Y180D02*
D03*
D46*
Y430D02*
D03*
Y480D02*
D03*
D47*
X-921Y2225D02*
D03*
Y1327D02*
D03*
X933D02*
D03*
Y2225D02*
D03*
D48*
X496Y2413D02*
D03*
D49*
Y2630D02*
D03*
X331Y2413D02*
D03*
Y2630D02*
D03*
X165Y2413D02*
D03*
Y2630D02*
D03*
X0Y2413D02*
D03*
Y2630D02*
D03*
X-165Y2413D02*
D03*
Y2630D02*
D03*
X-331Y2413D02*
D03*
Y2630D02*
D03*
X-496Y2413D02*
D03*
Y2630D02*
D03*
D50*
X-231Y720D02*
D03*
X-131D02*
D03*
X-31D02*
D03*
X69D02*
D03*
X169D02*
D03*
X269D02*
D03*
X369D02*
D03*
X469D02*
D03*
X569D02*
D03*
X869Y120D02*
D03*
X769D02*
D03*
X669D02*
D03*
X569D02*
D03*
X469D02*
D03*
X369D02*
D03*
X269D02*
D03*
X169D02*
D03*
X69D02*
D03*
X-31D02*
D03*
X-131D02*
D03*
X-231D02*
D03*
D51*
X690Y565D02*
D03*
X-455Y2205D02*
D03*
X-545Y2115D02*
D03*
X-370Y2290D02*
D03*
X-165Y2320D02*
D03*
X-225Y2245D02*
D03*
X-240Y2145D02*
D03*
X-420Y900D02*
D03*
Y1025D02*
D03*
Y1185D02*
D03*
Y1320D02*
D03*
Y1445D02*
D03*
Y1590D02*
D03*
X-395Y45D02*
D03*
X690Y1210D02*
D03*
X595Y1010D02*
D03*
X875Y1495D02*
D03*
X649Y1371D02*
D03*
X-200Y1440D02*
D03*
X-615Y800D02*
D03*
X-931Y585D02*
D03*
D52*
X464Y1294D02*
D03*
X100Y1305D02*
D03*
X-65Y1635D02*
D03*
X570Y460D02*
D03*
X649Y1636D02*
D03*
D53*
X-40Y1300D02*
D03*
X-725Y2405D02*
D03*
X95Y1810D02*
D03*
X260D02*
D03*
X440D02*
D03*
D54*
X-65Y1562D02*
D03*
X-65Y1468D02*
D03*
X-345Y463D02*
D03*
X-345Y557D02*
D03*
X715Y1963D02*
D03*
X715Y2057D02*
D03*
X614Y1963D02*
D03*
X614Y2057D02*
D03*
X464Y1562D02*
D03*
X464Y1468D02*
D03*
X279Y1562D02*
D03*
X279Y1468D02*
D03*
X211Y2057D02*
D03*
X211Y1963D02*
D03*
X94Y1562D02*
D03*
X94Y1468D02*
D03*
X312Y2057D02*
D03*
X312Y1963D02*
D03*
X413Y2057D02*
D03*
X413Y1963D02*
D03*
X10D02*
D03*
X10Y2057D02*
D03*
X111D02*
D03*
X111Y1963D02*
D03*
X514Y2057D02*
D03*
X514Y1963D02*
D03*
X-785D02*
D03*
X-785Y2057D02*
D03*
X649Y1565D02*
D03*
X649Y1471D02*
D03*
X-31Y503D02*
D03*
X-31Y597D02*
D03*
X69D02*
D03*
X69Y503D02*
D03*
X465Y597D02*
D03*
X465Y503D02*
D03*
D55*
X-327Y265D02*
D03*
X-233Y265D02*
D03*
X774Y260D02*
D03*
X868D02*
D03*
X774Y446D02*
D03*
X868D02*
D03*
Y350D02*
D03*
X774Y350D02*
D03*
D56*
X-545Y1737D02*
D03*
Y2029D02*
D03*
X-240D02*
D03*
Y1737D02*
D03*
D57*
X-930Y499D02*
D03*
X-967Y401D02*
D03*
X-893D02*
D03*
D58*
X-554Y230D02*
D03*
X-456Y193D02*
D03*
Y267D02*
D03*
X558Y1715D02*
D03*
X460Y1752D02*
D03*
Y1678D02*
D03*
X193Y1715D02*
D03*
X95Y1752D02*
D03*
Y1678D02*
D03*
X376Y1715D02*
D03*
X277Y1752D02*
D03*
Y1678D02*
D03*
M02*
