M48
;Layer_Color=9474304
;FILE_FORMAT=2:3
INCH,LZ
;TYPE=PLATED
T1F00S00C0.012
T2F00S00C0.020
T3F00S00C0.030
T4F00S00C0.039
T5F00S00C0.040
T6F00S00C0.071
%
T01
X01718Y00478
T02
X0048Y0005
X00775Y001
X0078Y00395
X01211Y01809
X01393Y01808
X01576Y01804
X0177Y0141
X02049Y01631
X011Y01475
X01035Y014
X008Y012
X00727Y00582
T03
X00293Y00783
X00195Y0098
X00293Y01177
X00695Y00783
T04
X02049Y01327
X00195
Y02225
X02049
T05
X00885Y0012
X00985
X01085
X01185
X01285
X01385
X01485
X01585
X01685
X01785
X01885
X01985
X01685Y0072
X01585
X01485
X01385
X01285
X01185
X01085
X00985
X00885
T06
X0062Y02413
X00785
X00951
X01116
Y0263
X00951
X00785
X0062
X01281
X01447
X01612
Y02413
X01447
X01281
M30
