%FSLAX23Y23*%
%MOIN*%
G70*
G01*
G75*
G04 Layer_Physical_Order=2*
G04 Layer_Color=16711680*
G04:AMPARAMS|DCode=10|XSize=51mil|YSize=118mil|CornerRadius=0mil|HoleSize=0mil|Usage=FLASHONLY|Rotation=0.000|XOffset=0mil|YOffset=0mil|HoleType=Round|Shape=Octagon|*
%AMOCTAGOND10*
4,1,8,-0.013,0.059,0.013,0.059,0.026,0.046,0.026,-0.046,0.013,-0.059,-0.013,-0.059,-0.026,-0.046,-0.026,0.046,-0.013,0.059,0.0*
%
%ADD10OCTAGOND10*%

%ADD11R,0.051X0.118*%
%ADD12R,0.051X0.073*%
%ADD13R,0.055X0.043*%
%ADD14C,0.059*%
%ADD15C,0.039*%
%ADD16C,0.020*%
%ADD17C,0.030*%
%ADD18C,0.020*%
%ADD19C,0.157*%
%ADD20C,0.010*%
%ADD21C,0.074*%
%ADD22O,0.098X0.118*%
G04:AMPARAMS|DCode=23|XSize=98mil|YSize=118mil|CornerRadius=0mil|HoleSize=0mil|Usage=FLASHONLY|Rotation=180.000|XOffset=0mil|YOffset=0mil|HoleType=Round|Shape=Octagon|*
%AMOCTAGOND23*
4,1,8,0.025,-0.059,-0.025,-0.059,-0.049,-0.034,-0.049,0.034,-0.025,0.059,0.025,0.059,0.049,0.034,0.049,-0.034,0.025,-0.059,0.0*
%
%ADD23OCTAGOND23*%

%ADD24C,0.091*%
%ADD25C,0.060*%
%ADD26C,0.031*%
%ADD27C,0.017*%
%ADD28R,0.047X0.026*%
%ADD29R,0.043X0.055*%
%ADD30C,0.008*%
G36*
X2207Y25D02*
X1405D01*
X1403Y30D01*
X1406Y34D01*
X1411Y40D01*
X1412Y42D01*
X1414Y47D01*
X1415Y55D01*
Y71D01*
X1426Y79D01*
X1432Y87D01*
X1438D01*
X1444Y79D01*
X1456Y70D01*
X1470Y64D01*
X1485Y63D01*
X1500Y64D01*
X1514Y70D01*
X1526Y79D01*
X1532Y87D01*
X1538D01*
X1544Y79D01*
X1556Y70D01*
X1570Y64D01*
X1585Y63D01*
X1600Y64D01*
X1614Y70D01*
X1626Y79D01*
X1632Y87D01*
X1638D01*
X1644Y79D01*
X1656Y70D01*
X1670Y64D01*
X1685Y63D01*
X1700Y64D01*
X1714Y70D01*
X1726Y79D01*
X1732Y87D01*
X1738D01*
X1744Y79D01*
X1756Y70D01*
X1770Y64D01*
X1785Y63D01*
X1800Y64D01*
X1814Y70D01*
X1826Y79D01*
X1832Y87D01*
X1838D01*
X1844Y79D01*
X1856Y70D01*
X1870Y64D01*
X1885Y63D01*
X1900Y64D01*
X1914Y70D01*
X1926Y79D01*
X1932Y87D01*
X1938D01*
X1944Y79D01*
X1956Y70D01*
X1970Y64D01*
X1985Y63D01*
X2000Y64D01*
X2014Y70D01*
X2026Y79D01*
X2035Y91D01*
X2041Y105D01*
X2042Y120D01*
X2041Y135D01*
X2035Y149D01*
X2026Y161D01*
X2014Y170D01*
X2000Y176D01*
X1985Y177D01*
X1970Y176D01*
X1956Y170D01*
X1944Y161D01*
X1938Y153D01*
X1932D01*
X1926Y161D01*
X1914Y170D01*
X1900Y176D01*
X1885Y177D01*
X1870Y176D01*
X1856Y170D01*
X1844Y161D01*
X1838Y153D01*
X1832D01*
X1826Y161D01*
X1814Y170D01*
X1800Y176D01*
X1785Y177D01*
X1770Y176D01*
X1756Y170D01*
X1744Y161D01*
X1738Y153D01*
X1732D01*
X1726Y161D01*
X1714Y170D01*
X1700Y176D01*
X1685Y177D01*
X1670Y176D01*
X1656Y170D01*
X1644Y161D01*
X1638Y153D01*
X1632D01*
X1626Y161D01*
X1614Y170D01*
X1600Y176D01*
X1585Y177D01*
X1570Y176D01*
X1556Y170D01*
X1544Y161D01*
X1538Y153D01*
X1532D01*
X1526Y161D01*
X1514Y170D01*
X1500Y176D01*
X1485Y177D01*
X1470Y176D01*
X1456Y170D01*
X1444Y161D01*
X1438Y153D01*
X1432D01*
X1426Y161D01*
X1414Y170D01*
X1400Y176D01*
X1385Y177D01*
X1370Y176D01*
X1356Y170D01*
X1344Y161D01*
X1338Y153D01*
X1332D01*
X1326Y161D01*
X1314Y170D01*
X1300Y176D01*
X1285Y177D01*
X1270Y176D01*
X1256Y170D01*
X1244Y161D01*
X1238Y153D01*
X1232D01*
X1226Y161D01*
X1215Y169D01*
Y192D01*
X1263Y240D01*
X1755D01*
X1763Y241D01*
X1768Y243D01*
X1770Y244D01*
X1776Y249D01*
X1876Y349D01*
X1876Y349D01*
X1878Y351D01*
X1881Y355D01*
X1884Y362D01*
X1885Y370D01*
X1885Y370D01*
Y1815D01*
X1885Y1815D01*
X1884Y1823D01*
X1881Y1830D01*
X1878Y1834D01*
X1876Y1836D01*
X1876Y1836D01*
X1851Y1862D01*
Y1896D01*
X1868D01*
Y1979D01*
X1773D01*
Y1896D01*
X1790D01*
Y1850D01*
X1791Y1842D01*
X1793Y1837D01*
X1789Y1834D01*
X1731Y1892D01*
X1728Y1896D01*
X1728D01*
X1728Y1896D01*
Y1979D01*
X1633D01*
Y1896D01*
X1651D01*
X1651Y1891D01*
X1654Y1886D01*
X1655Y1884D01*
X1659Y1878D01*
X1740Y1797D01*
Y1429D01*
X1739Y1428D01*
X1735Y1419D01*
X1734Y1410D01*
X1735Y1401D01*
X1739Y1392D01*
X1745Y1385D01*
X1752Y1379D01*
X1761Y1375D01*
X1770Y1374D01*
X1779Y1375D01*
X1788Y1379D01*
X1795Y1385D01*
X1801Y1392D01*
X1805Y1401D01*
X1806Y1410D01*
X1805Y1419D01*
X1801Y1428D01*
X1800Y1429D01*
Y1810D01*
X1800Y1810D01*
X1799Y1817D01*
X1799Y1818D01*
X1797Y1823D01*
X1801Y1826D01*
X1825Y1802D01*
Y383D01*
X1742Y300D01*
X1250D01*
X1250Y300D01*
X1243Y299D01*
X1242Y299D01*
X1239Y298D01*
X1235Y296D01*
X1229Y291D01*
X1164Y226D01*
X1159Y220D01*
X1158Y218D01*
X1156Y213D01*
X1155Y205D01*
Y169D01*
X1144Y161D01*
X1138Y153D01*
X1132D01*
X1126Y161D01*
X1114Y170D01*
X1100Y176D01*
X1085Y177D01*
X1070Y176D01*
X1056Y170D01*
X1044Y161D01*
X1038Y153D01*
X1032D01*
X1026Y161D01*
X1014Y170D01*
X1000Y176D01*
X985Y177D01*
X970Y176D01*
X956Y170D01*
X944Y161D01*
X938Y153D01*
X932D01*
X926Y161D01*
X914Y170D01*
X900Y176D01*
X885Y177D01*
X870Y176D01*
X856Y170D01*
X850Y165D01*
X845Y167D01*
Y170D01*
X844Y178D01*
X841Y185D01*
X836Y191D01*
X817Y210D01*
X811Y215D01*
X804Y218D01*
X796Y219D01*
X769D01*
Y237D01*
X769D01*
Y237D01*
X769D01*
Y333D01*
X758D01*
Y362D01*
X759Y362D01*
X763Y364D01*
X771Y360D01*
X780Y359D01*
X789Y360D01*
X798Y364D01*
X805Y370D01*
X811Y377D01*
X815Y386D01*
X815Y387D01*
X861Y434D01*
X866Y440D01*
X867Y442D01*
X869Y447D01*
X870Y455D01*
Y625D01*
X869Y633D01*
X866Y640D01*
X864Y643D01*
X861Y646D01*
X861Y646D01*
X830Y678D01*
Y690D01*
X835Y691D01*
X835Y691D01*
X844Y679D01*
X856Y670D01*
X870Y664D01*
X885Y663D01*
X900Y664D01*
X914Y670D01*
X926Y679D01*
X932Y687D01*
X938D01*
X944Y679D01*
X955Y671D01*
Y599D01*
X937D01*
Y516D01*
X1033D01*
Y516D01*
X1037D01*
Y516D01*
X1133D01*
Y516D01*
X1137D01*
Y516D01*
X1233D01*
Y599D01*
X1215D01*
Y671D01*
X1226Y679D01*
X1232Y687D01*
X1238D01*
X1244Y679D01*
X1256Y670D01*
X1270Y664D01*
X1285Y663D01*
X1300Y664D01*
X1314Y670D01*
X1326Y679D01*
X1332Y687D01*
X1338D01*
X1344Y679D01*
X1356Y670D01*
X1370Y664D01*
X1385Y663D01*
X1400Y664D01*
X1414Y670D01*
X1426Y679D01*
X1432Y687D01*
X1438D01*
X1444Y679D01*
X1456Y670D01*
X1470Y664D01*
X1485Y663D01*
X1500Y664D01*
X1514Y670D01*
X1526Y679D01*
X1532Y687D01*
X1538D01*
X1544Y679D01*
X1555Y671D01*
Y614D01*
X1542D01*
Y531D01*
X1638D01*
Y614D01*
X1615D01*
Y671D01*
X1626Y679D01*
X1632Y687D01*
X1638D01*
X1644Y679D01*
X1656Y670D01*
X1670Y664D01*
X1685Y663D01*
X1700Y664D01*
X1714Y670D01*
X1726Y679D01*
X1735Y691D01*
X1741Y705D01*
X1742Y720D01*
X1741Y735D01*
X1735Y749D01*
X1726Y761D01*
X1714Y770D01*
X1700Y776D01*
X1685Y777D01*
X1670Y776D01*
X1656Y770D01*
X1644Y761D01*
X1638Y753D01*
X1632D01*
X1626Y761D01*
X1614Y770D01*
X1600Y776D01*
X1585Y777D01*
X1570Y776D01*
X1556Y770D01*
X1544Y761D01*
X1538Y753D01*
X1532D01*
X1526Y761D01*
X1515Y769D01*
Y770D01*
X1514Y778D01*
X1512Y783D01*
X1511Y785D01*
X1506Y791D01*
X1470Y828D01*
Y1252D01*
X1601Y1384D01*
X1606Y1390D01*
X1609Y1397D01*
X1610Y1405D01*
Y1426D01*
X1628D01*
Y1509D01*
X1532D01*
Y1426D01*
X1550D01*
Y1418D01*
X1420Y1288D01*
X1415Y1290D01*
Y1382D01*
X1416Y1384D01*
X1416Y1384D01*
X1419Y1387D01*
X1421Y1390D01*
X1424Y1397D01*
X1425Y1405D01*
Y1426D01*
X1443D01*
Y1509D01*
X1347D01*
Y1426D01*
X1365D01*
Y1418D01*
X1364Y1416D01*
X1359Y1410D01*
X1358Y1408D01*
X1356Y1403D01*
X1355Y1395D01*
Y1370D01*
X1350Y1368D01*
X1258Y1460D01*
Y1509D01*
X1162D01*
Y1426D01*
X1206D01*
X1300Y1332D01*
Y780D01*
X1295Y776D01*
X1285Y777D01*
X1270Y776D01*
X1256Y770D01*
X1244Y761D01*
X1238Y753D01*
X1232D01*
X1226Y761D01*
X1214Y770D01*
X1200Y776D01*
X1185Y777D01*
X1170Y776D01*
X1156Y770D01*
X1144Y761D01*
X1138Y753D01*
X1132D01*
X1126Y761D01*
X1114Y770D01*
X1100Y776D01*
X1085Y777D01*
X1070Y776D01*
X1056Y770D01*
X1044Y761D01*
X1038Y753D01*
X1032D01*
X1026Y761D01*
X1015Y769D01*
Y775D01*
X1014Y783D01*
X1011Y790D01*
X1009Y793D01*
X1006Y796D01*
X1006Y796D01*
X945Y858D01*
Y1896D01*
X952D01*
Y1452D01*
X953Y1445D01*
X955Y1440D01*
X956Y1437D01*
X961Y1431D01*
X1000Y1392D01*
X1000Y1391D01*
X1004Y1382D01*
X1010Y1375D01*
X1017Y1369D01*
X1026Y1365D01*
X1035Y1364D01*
X1044Y1365D01*
X1053Y1369D01*
X1060Y1375D01*
X1066Y1382D01*
X1070Y1391D01*
X1071Y1400D01*
X1070Y1409D01*
X1066Y1418D01*
X1060Y1425D01*
X1053Y1431D01*
X1044Y1435D01*
X1043Y1435D01*
X1013Y1465D01*
Y1896D01*
X1030D01*
Y1979D01*
X945D01*
Y1991D01*
X1030D01*
Y2074D01*
X1019D01*
X1017Y2079D01*
X1221Y2284D01*
X1226Y2290D01*
X1227Y2292D01*
X1229Y2297D01*
X1230Y2305D01*
Y2350D01*
X1235Y2352D01*
X1243Y2346D01*
X1251Y2341D01*
Y2264D01*
X1101Y2114D01*
X1096Y2107D01*
X1093Y2100D01*
X1092Y2092D01*
Y2074D01*
X1075D01*
Y1991D01*
X1170D01*
Y2074D01*
X1152D01*
Y2080D01*
X1303Y2230D01*
X1303Y2230D01*
X1307Y2235D01*
X1308Y2236D01*
X1311Y2244D01*
X1312Y2251D01*
X1312Y2251D01*
Y2341D01*
X1320Y2346D01*
X1330Y2354D01*
X1335Y2352D01*
Y2208D01*
X1240Y2113D01*
X1236Y2107D01*
X1233Y2100D01*
X1232Y2092D01*
Y2074D01*
X1214D01*
Y1991D01*
X1309D01*
Y2074D01*
X1292D01*
Y2079D01*
X1386Y2174D01*
X1386Y2174D01*
X1391Y2180D01*
X1394Y2187D01*
X1395Y2195D01*
X1395Y2195D01*
Y2350D01*
X1400Y2352D01*
X1408Y2346D01*
X1417Y2341D01*
Y2189D01*
X1380Y2153D01*
X1375Y2147D01*
X1372Y2139D01*
X1371Y2131D01*
Y2074D01*
X1354D01*
Y1991D01*
X1449D01*
Y2074D01*
X1432D01*
Y2119D01*
X1468Y2155D01*
X1473Y2162D01*
X1476Y2169D01*
X1477Y2177D01*
X1477Y2177D01*
Y2341D01*
X1485Y2346D01*
X1490Y2350D01*
X1495Y2347D01*
Y2160D01*
X1496Y2152D01*
X1498Y2147D01*
X1499Y2145D01*
X1504Y2139D01*
X1511Y2131D01*
Y2074D01*
X1494D01*
Y1991D01*
X1589D01*
Y2074D01*
X1571D01*
Y2144D01*
X1571Y2144D01*
X1570Y2151D01*
X1570Y2152D01*
X1569Y2155D01*
X1567Y2159D01*
X1566Y2161D01*
X1562Y2165D01*
X1562Y2165D01*
X1555Y2173D01*
Y2350D01*
X1560Y2352D01*
X1578Y2334D01*
X1582D01*
Y2308D01*
X1583Y2300D01*
X1586Y2293D01*
X1591Y2286D01*
X1650Y2227D01*
Y2074D01*
X1633D01*
Y1991D01*
X1728D01*
Y2074D01*
X1711D01*
Y2239D01*
X1710Y2247D01*
X1707Y2254D01*
X1702Y2261D01*
X1642Y2320D01*
Y2334D01*
X1647D01*
X1681Y2369D01*
Y2458D01*
X1647Y2492D01*
X1578D01*
X1560Y2475D01*
X1555Y2477D01*
Y2552D01*
X1554Y2560D01*
X1552Y2565D01*
X1551Y2567D01*
X1546Y2573D01*
X1515Y2605D01*
X1515Y2607D01*
X1516Y2620D01*
Y2640D01*
X1515Y2653D01*
X1511Y2666D01*
X1505Y2678D01*
X1496Y2689D01*
X1485Y2698D01*
X1473Y2704D01*
X1460Y2708D01*
X1447Y2709D01*
X1433Y2708D01*
X1420Y2704D01*
X1408Y2698D01*
X1398Y2689D01*
X1389Y2678D01*
X1383Y2666D01*
X1379Y2653D01*
X1377Y2640D01*
Y2620D01*
X1379Y2607D01*
X1383Y2593D01*
X1389Y2581D01*
X1398Y2571D01*
X1408Y2562D01*
X1420Y2556D01*
X1433Y2552D01*
X1447Y2551D01*
X1460Y2552D01*
X1473Y2556D01*
X1477Y2557D01*
X1495Y2539D01*
Y2479D01*
X1490Y2477D01*
X1485Y2481D01*
X1473Y2487D01*
X1460Y2491D01*
X1447Y2493D01*
X1433Y2491D01*
X1420Y2487D01*
X1408Y2481D01*
X1400Y2475D01*
X1395Y2477D01*
Y2546D01*
X1394Y2554D01*
X1391Y2562D01*
X1386Y2568D01*
X1386Y2568D01*
X1349Y2605D01*
X1350Y2607D01*
X1351Y2620D01*
Y2640D01*
X1350Y2653D01*
X1346Y2666D01*
X1339Y2678D01*
X1331Y2689D01*
X1320Y2698D01*
X1308Y2704D01*
X1295Y2708D01*
X1281Y2709D01*
X1268Y2708D01*
X1255Y2704D01*
X1243Y2698D01*
X1232Y2689D01*
X1224Y2678D01*
X1217Y2666D01*
X1213Y2653D01*
X1212Y2640D01*
Y2620D01*
X1213Y2607D01*
X1217Y2593D01*
X1224Y2581D01*
X1232Y2571D01*
X1243Y2562D01*
X1255Y2556D01*
X1268Y2552D01*
X1281Y2551D01*
X1295Y2552D01*
X1308Y2556D01*
X1311Y2557D01*
X1335Y2534D01*
Y2475D01*
X1330Y2473D01*
X1320Y2481D01*
X1308Y2487D01*
X1295Y2491D01*
X1281Y2493D01*
X1268Y2491D01*
X1255Y2487D01*
X1243Y2481D01*
X1235Y2475D01*
X1230Y2477D01*
Y2510D01*
X1229Y2518D01*
X1227Y2523D01*
X1226Y2525D01*
X1221Y2531D01*
X1173Y2580D01*
X1174Y2581D01*
X1180Y2593D01*
X1184Y2607D01*
X1186Y2620D01*
Y2640D01*
X1184Y2653D01*
X1180Y2666D01*
X1174Y2678D01*
X1165Y2689D01*
X1155Y2698D01*
X1143Y2704D01*
X1130Y2708D01*
X1116Y2709D01*
X1103Y2708D01*
X1090Y2704D01*
X1078Y2698D01*
X1067Y2689D01*
X1058Y2678D01*
X1052Y2666D01*
X1048Y2653D01*
X1047Y2640D01*
Y2620D01*
X1048Y2607D01*
X1052Y2593D01*
X1058Y2581D01*
X1067Y2571D01*
X1078Y2562D01*
X1090Y2556D01*
X1103Y2552D01*
X1116Y2551D01*
X1117Y2551D01*
X1170Y2497D01*
Y2474D01*
X1169Y2474D01*
X1165Y2473D01*
X1155Y2481D01*
X1143Y2487D01*
X1130Y2491D01*
X1116Y2493D01*
X1103Y2491D01*
X1090Y2487D01*
X1078Y2481D01*
X1067Y2472D01*
X1065Y2470D01*
X1060Y2472D01*
Y2495D01*
X1059Y2503D01*
X1056Y2510D01*
X1051Y2516D01*
X1000Y2568D01*
X1000Y2571D01*
X1009Y2581D01*
X1015Y2593D01*
X1019Y2607D01*
X1020Y2620D01*
Y2640D01*
X1019Y2653D01*
X1015Y2666D01*
X1009Y2678D01*
X1000Y2689D01*
X989Y2698D01*
X977Y2704D01*
X964Y2708D01*
X951Y2709D01*
X937Y2708D01*
X924Y2704D01*
X912Y2698D01*
X902Y2689D01*
X893Y2678D01*
X887Y2666D01*
X885Y2660D01*
X879D01*
X877Y2668D01*
X868Y2685D01*
X856Y2700D01*
X841Y2712D01*
X823Y2722D01*
X805Y2727D01*
X785Y2729D01*
X766Y2727D01*
X747Y2722D01*
X730Y2712D01*
X715Y2700D01*
X703Y2685D01*
X694Y2668D01*
X691Y2660D01*
X686D01*
X684Y2666D01*
X678Y2678D01*
X669Y2689D01*
X659Y2698D01*
X647Y2704D01*
X634Y2708D01*
X620Y2709D01*
X607Y2708D01*
X593Y2704D01*
X581Y2698D01*
X571Y2689D01*
X562Y2678D01*
X556Y2666D01*
X552Y2653D01*
X551Y2640D01*
Y2620D01*
X552Y2607D01*
X556Y2593D01*
X562Y2581D01*
X571Y2571D01*
X581Y2562D01*
X593Y2556D01*
X607Y2552D01*
X620Y2551D01*
X634Y2552D01*
X647Y2556D01*
X659Y2562D01*
X669Y2571D01*
X678Y2581D01*
X681Y2588D01*
X686Y2586D01*
Y2467D01*
X681Y2466D01*
X673Y2476D01*
X662Y2485D01*
X649Y2492D01*
X635Y2496D01*
X633Y2497D01*
Y2413D01*
Y2330D01*
X635Y2330D01*
X649Y2335D01*
X656Y2339D01*
X659Y2335D01*
X435Y2110D01*
X423Y2095D01*
X413Y2078D01*
X408Y2059D01*
X406Y2040D01*
Y973D01*
X408Y954D01*
X413Y935D01*
X423Y918D01*
X435Y903D01*
X625Y713D01*
X640Y701D01*
X657Y691D01*
X676Y686D01*
X695Y684D01*
X714Y686D01*
X733Y691D01*
X750Y701D01*
X765Y713D01*
X767Y712D01*
X770Y711D01*
Y665D01*
X771Y657D01*
X773Y652D01*
X774Y650D01*
X779Y644D01*
X810Y612D01*
Y468D01*
X772Y430D01*
X771Y430D01*
X763Y426D01*
X759Y428D01*
X758Y428D01*
Y563D01*
X758Y564D01*
X762Y573D01*
X763Y582D01*
X762Y592D01*
X758Y600D01*
X753Y608D01*
X745Y613D01*
X737Y617D01*
X727Y618D01*
X718Y617D01*
X709Y613D01*
X702Y608D01*
X696Y600D01*
X692Y592D01*
X691Y582D01*
X692Y573D01*
X696Y564D01*
X697Y563D01*
Y333D01*
X686D01*
Y237D01*
X686D01*
Y237D01*
X686D01*
Y141D01*
Y52D01*
X697D01*
X698Y45D01*
X701Y38D01*
X706Y31D01*
X707Y30D01*
X705Y25D01*
X615D01*
X613Y30D01*
X620Y38D01*
Y100D01*
X633D01*
Y112D01*
X679D01*
Y136D01*
Y177D01*
X586D01*
Y136D01*
Y103D01*
X568Y85D01*
X501D01*
X501Y86D01*
X493Y89D01*
Y50D01*
X480D01*
Y38D01*
X441D01*
X444Y30D01*
X442Y25D01*
X25D01*
Y1222D01*
X30Y1224D01*
X145Y1109D01*
Y984D01*
X145Y980D01*
X146Y967D01*
X151Y955D01*
X159Y944D01*
X170Y936D01*
X182Y931D01*
X195Y930D01*
X208Y931D01*
X220Y936D01*
X231Y944D01*
X239Y955D01*
X244Y967D01*
X245Y980D01*
X245Y984D01*
Y1127D01*
X290D01*
X293Y1126D01*
X306Y1128D01*
X319Y1133D01*
X329Y1141D01*
X337Y1152D01*
X342Y1164D01*
X344Y1177D01*
X342Y1190D01*
X337Y1202D01*
X329Y1213D01*
X319Y1221D01*
X306Y1226D01*
X293Y1227D01*
X290Y1227D01*
X169D01*
X100Y1296D01*
Y2059D01*
X201Y2160D01*
X208Y2161D01*
X220Y2164D01*
X231Y2170D01*
X241Y2179D01*
X250Y2189D01*
X256Y2200D01*
X259Y2212D01*
X261Y2225D01*
X259Y2238D01*
X256Y2250D01*
X250Y2261D01*
X241Y2271D01*
X231Y2280D01*
X220Y2286D01*
X208Y2289D01*
X195Y2291D01*
X182Y2289D01*
X170Y2286D01*
X159Y2280D01*
X149Y2271D01*
X140Y2261D01*
X134Y2250D01*
X131Y2238D01*
X130Y2231D01*
X30Y2131D01*
X25Y2133D01*
Y2750D01*
X2207D01*
Y25D01*
D02*
G37*
%LPC*%
G36*
X183Y1315D02*
X126D01*
X126Y1314D01*
X130Y1300D01*
X136Y1288D01*
X145Y1277D01*
X156Y1269D01*
X168Y1262D01*
X181Y1258D01*
X183Y1258D01*
Y1315D01*
D02*
G37*
G36*
X293Y834D02*
X280Y832D01*
X268Y827D01*
X258Y819D01*
X250Y808D01*
X245Y796D01*
X243Y783D01*
X245Y770D01*
X250Y758D01*
X258Y747D01*
X268Y739D01*
X280Y734D01*
X293Y733D01*
X306Y734D01*
X319Y739D01*
X329Y747D01*
X337Y758D01*
X342Y770D01*
X344Y783D01*
X342Y796D01*
X337Y808D01*
X329Y819D01*
X319Y827D01*
X306Y832D01*
X293Y834D01*
D02*
G37*
G36*
X2119Y1315D02*
X2062D01*
Y1258D01*
X2063Y1258D01*
X2076Y1262D01*
X2089Y1269D01*
X2099Y1277D01*
X2108Y1288D01*
X2115Y1300D01*
X2119Y1314D01*
X2119Y1315D01*
D02*
G37*
G36*
X2037D02*
X1980D01*
X1980Y1314D01*
X1984Y1300D01*
X1991Y1288D01*
X1999Y1277D01*
X2010Y1269D01*
X2022Y1262D01*
X2036Y1258D01*
X2037Y1258D01*
Y1315D01*
D02*
G37*
G36*
X264D02*
X207D01*
Y1258D01*
X209Y1258D01*
X222Y1262D01*
X234Y1269D01*
X245Y1277D01*
X254Y1288D01*
X260Y1300D01*
X264Y1314D01*
X264Y1315D01*
D02*
G37*
G36*
X1638Y519D02*
X1542D01*
Y518D01*
X1383D01*
X1372Y516D01*
X1370Y515D01*
X1363Y512D01*
X1354Y506D01*
X1351Y503D01*
X1233D01*
Y504D01*
X1137D01*
Y504D01*
X1133D01*
Y504D01*
X1037D01*
Y504D01*
X1033D01*
Y504D01*
X937D01*
Y421D01*
X1033D01*
Y421D01*
X1037D01*
Y421D01*
X1133D01*
Y421D01*
X1137D01*
Y421D01*
X1233D01*
Y423D01*
X1368D01*
X1378Y424D01*
X1381Y425D01*
X1388Y428D01*
X1396Y434D01*
X1399Y438D01*
X1542D01*
Y436D01*
X1638D01*
Y438D01*
X1718D01*
X1728Y439D01*
X1738Y443D01*
X1746Y449D01*
X1752Y458D01*
X1756Y467D01*
X1758Y478D01*
X1756Y488D01*
X1752Y498D01*
X1746Y506D01*
X1738Y512D01*
X1728Y516D01*
X1718Y518D01*
X1638D01*
Y519D01*
D02*
G37*
G36*
X468Y89D02*
X459Y86D01*
X451Y79D01*
X444Y71D01*
X441Y62D01*
X468D01*
Y89D01*
D02*
G37*
G36*
X679Y87D02*
X645D01*
Y47D01*
X679D01*
Y87D01*
D02*
G37*
G36*
Y273D02*
X586D01*
Y232D01*
Y202D01*
X679D01*
Y232D01*
Y273D01*
D02*
G37*
G36*
Y338D02*
X645D01*
Y298D01*
X679D01*
Y338D01*
D02*
G37*
G36*
X620D02*
X586D01*
Y298D01*
X620D01*
Y338D01*
D02*
G37*
G36*
X183Y1397D02*
X181Y1397D01*
X168Y1393D01*
X156Y1386D01*
X145Y1377D01*
X136Y1367D01*
X130Y1354D01*
X126Y1341D01*
X126Y1340D01*
X183D01*
Y1397D01*
D02*
G37*
G36*
X1198Y1848D02*
X1190Y1845D01*
X1182Y1838D01*
X1175Y1830D01*
X1172Y1822D01*
X1198D01*
Y1848D01*
D02*
G37*
G36*
X1589Y1979D02*
X1494D01*
Y1896D01*
X1511D01*
Y1889D01*
X1512Y1881D01*
X1514Y1876D01*
X1515Y1874D01*
X1520Y1868D01*
X1548Y1839D01*
X1548Y1834D01*
X1547Y1833D01*
X1540Y1825D01*
X1537Y1817D01*
X1576D01*
Y1792D01*
X1534D01*
X1533Y1790D01*
X1527D01*
Y1748D01*
X1522D01*
Y1788D01*
X1521Y1796D01*
X1518Y1803D01*
X1516Y1806D01*
X1513Y1810D01*
X1513Y1810D01*
X1432Y1891D01*
X1432Y1896D01*
X1449D01*
Y1979D01*
X1354D01*
Y1896D01*
X1371D01*
Y1879D01*
X1372Y1871D01*
X1374Y1866D01*
X1375Y1863D01*
X1380Y1857D01*
X1384Y1853D01*
X1383Y1848D01*
X1383Y1848D01*
X1373Y1844D01*
X1364Y1837D01*
X1358Y1829D01*
X1354Y1821D01*
X1393D01*
Y1796D01*
X1354D01*
X1355Y1794D01*
X1352Y1790D01*
X1345D01*
Y1748D01*
X1339D01*
Y1801D01*
X1338Y1809D01*
X1335Y1816D01*
X1331Y1822D01*
X1292Y1861D01*
Y1896D01*
X1309D01*
Y1979D01*
X1214D01*
Y1896D01*
X1232D01*
Y1850D01*
X1228Y1847D01*
X1227Y1847D01*
X1223Y1848D01*
Y1809D01*
X1211D01*
Y1797D01*
X1172D01*
X1173Y1794D01*
X1170Y1790D01*
X1162D01*
Y1765D01*
X1259D01*
Y1790D01*
X1252D01*
X1249Y1794D01*
X1250Y1799D01*
X1252Y1808D01*
X1256Y1811D01*
X1279Y1788D01*
Y1748D01*
X1266D01*
Y1682D01*
X1350D01*
Y1645D01*
X1365D01*
Y1604D01*
X1347D01*
Y1521D01*
X1443D01*
Y1604D01*
X1425D01*
Y1645D01*
X1437D01*
Y1710D01*
X1437Y1710D01*
X1437D01*
X1437Y1710D01*
X1439Y1715D01*
X1442D01*
Y1740D01*
X1393D01*
Y1765D01*
X1442D01*
Y1786D01*
Y1786D01*
X1442Y1786D01*
X1442Y1788D01*
Y1788D01*
Y1788D01*
X1442Y1788D01*
X1443Y1788D01*
X1443Y1789D01*
X1445Y1790D01*
X1445Y1790D01*
X1447Y1790D01*
X1461Y1776D01*
Y1748D01*
X1448D01*
Y1682D01*
X1532D01*
Y1645D01*
X1550D01*
Y1604D01*
X1532D01*
Y1521D01*
X1628D01*
Y1604D01*
X1610D01*
Y1645D01*
X1619D01*
Y1710D01*
X1619Y1710D01*
X1619D01*
X1619Y1710D01*
X1621Y1715D01*
X1624D01*
Y1740D01*
X1576D01*
Y1765D01*
X1624D01*
Y1790D01*
X1619D01*
X1616Y1795D01*
X1617Y1803D01*
X1621Y1806D01*
X1644Y1783D01*
Y1748D01*
X1631D01*
Y1682D01*
X1718D01*
Y1748D01*
X1704D01*
Y1796D01*
X1704Y1796D01*
X1704Y1803D01*
X1703Y1804D01*
X1703Y1806D01*
X1700Y1811D01*
X1698Y1814D01*
X1696Y1817D01*
X1696Y1817D01*
X1636Y1876D01*
X1630Y1881D01*
X1628Y1882D01*
X1623Y1884D01*
X1615Y1885D01*
X1588D01*
X1581Y1891D01*
X1583Y1896D01*
X1589D01*
Y1979D01*
D02*
G37*
G36*
X608Y2401D02*
X546D01*
X547Y2389D01*
X551Y2375D01*
X558Y2362D01*
X567Y2351D01*
X579Y2342D01*
X592Y2335D01*
X606Y2330D01*
X608Y2330D01*
Y2401D01*
D02*
G37*
G36*
X218Y2730D02*
X45D01*
Y2650D01*
X218D01*
Y2730D01*
D02*
G37*
G36*
X608Y2497D02*
X606Y2496D01*
X592Y2492D01*
X579Y2485D01*
X567Y2476D01*
X558Y2465D01*
X551Y2452D01*
X547Y2438D01*
X546Y2426D01*
X608D01*
Y2497D01*
D02*
G37*
G36*
X1612Y2709D02*
X1599Y2708D01*
X1586Y2704D01*
X1574Y2698D01*
X1563Y2689D01*
X1554Y2678D01*
X1548Y2666D01*
X1544Y2653D01*
X1543Y2640D01*
Y2620D01*
X1544Y2607D01*
X1548Y2593D01*
X1554Y2581D01*
X1563Y2571D01*
X1574Y2562D01*
X1586Y2556D01*
X1599Y2552D01*
X1612Y2551D01*
X1626Y2552D01*
X1639Y2556D01*
X1647Y2560D01*
X1790Y2417D01*
Y2074D01*
X1773D01*
Y1991D01*
X1868D01*
Y2002D01*
X1912D01*
Y1991D01*
X2004D01*
X2008Y1991D01*
X2009Y1986D01*
X2009Y1986D01*
Y1984D01*
X2008Y1979D01*
X1912D01*
Y1896D01*
X2008D01*
X2009Y1892D01*
Y1631D01*
X2011Y1620D01*
X2015Y1611D01*
X2021Y1602D01*
X2029Y1596D01*
X2039Y1592D01*
X2049Y1591D01*
X2060Y1592D01*
X2069Y1596D01*
X2078Y1602D01*
X2084Y1611D01*
X2088Y1620D01*
X2089Y1631D01*
Y2173D01*
X2096Y2179D01*
X2104Y2189D01*
X2110Y2200D01*
X2114Y2212D01*
X2115Y2225D01*
X2114Y2238D01*
X2110Y2250D01*
X2104Y2261D01*
X2096Y2271D01*
X2086Y2280D01*
X2074Y2286D01*
X2062Y2289D01*
X2049Y2291D01*
X2037Y2289D01*
X2024Y2286D01*
X2013Y2280D01*
X2003Y2271D01*
X1995Y2261D01*
X1989Y2250D01*
X1985Y2238D01*
X1984Y2225D01*
X1985Y2212D01*
X1989Y2200D01*
X1995Y2189D01*
X2003Y2179D01*
X2009Y2173D01*
Y2078D01*
X2008Y2074D01*
X2004Y2074D01*
X1912D01*
Y2063D01*
X1868D01*
Y2074D01*
X1851D01*
Y2430D01*
X1850Y2437D01*
X1847Y2445D01*
X1842Y2451D01*
X1681Y2612D01*
X1682Y2620D01*
Y2640D01*
X1680Y2653D01*
X1676Y2666D01*
X1670Y2678D01*
X1661Y2689D01*
X1651Y2698D01*
X1639Y2704D01*
X1626Y2708D01*
X1612Y2709D01*
D02*
G37*
G36*
X2037Y1397D02*
X2036Y1397D01*
X2022Y1393D01*
X2010Y1386D01*
X1999Y1377D01*
X1991Y1367D01*
X1984Y1354D01*
X1980Y1341D01*
X1980Y1340D01*
X2037D01*
Y1397D01*
D02*
G37*
G36*
X207D02*
Y1340D01*
X264D01*
X264Y1341D01*
X260Y1354D01*
X254Y1367D01*
X245Y1377D01*
X234Y1386D01*
X222Y1393D01*
X209Y1397D01*
X207Y1397D01*
D02*
G37*
G36*
X2062D02*
Y1340D01*
X2119D01*
X2119Y1341D01*
X2115Y1354D01*
X2108Y1367D01*
X2099Y1377D01*
X2089Y1386D01*
X2076Y1393D01*
X2063Y1397D01*
X2062Y1397D01*
D02*
G37*
G36*
X1259Y1740D02*
X1162D01*
Y1715D01*
X1165D01*
X1167Y1710D01*
X1167Y1710D01*
Y1645D01*
X1180D01*
Y1604D01*
X1162D01*
Y1521D01*
X1258D01*
Y1604D01*
X1240D01*
Y1645D01*
X1254D01*
Y1710D01*
X1254Y1710D01*
X1256Y1715D01*
X1259D01*
Y1740D01*
D02*
G37*
G36*
X1170Y1979D02*
X1075D01*
Y1896D01*
X1092D01*
Y1775D01*
X1079Y1761D01*
X1074Y1755D01*
X1073Y1753D01*
X1071Y1748D01*
X1070Y1740D01*
Y1494D01*
X1069Y1493D01*
X1065Y1484D01*
X1064Y1475D01*
X1065Y1466D01*
X1069Y1457D01*
X1075Y1450D01*
X1082Y1444D01*
X1091Y1440D01*
X1100Y1439D01*
X1109Y1440D01*
X1118Y1444D01*
X1125Y1450D01*
X1131Y1457D01*
X1135Y1466D01*
X1136Y1475D01*
X1135Y1484D01*
X1131Y1493D01*
X1130Y1494D01*
Y1727D01*
X1144Y1741D01*
X1144Y1741D01*
X1146Y1744D01*
X1148Y1747D01*
X1150Y1750D01*
X1151Y1754D01*
X1152Y1762D01*
Y1896D01*
X1170D01*
Y1979D01*
D02*
G37*
%LPD*%
G36*
X177Y2674D02*
X203D01*
Y2665D01*
X167D01*
Y2715D01*
X177D01*
Y2674D01*
D02*
G37*
G36*
X139Y2715D02*
X141Y2715D01*
X142Y2715D01*
X144Y2715D01*
X145Y2715D01*
X145D01*
X146Y2715D01*
X146Y2715D01*
X147Y2714D01*
X148Y2714D01*
X149Y2714D01*
X149Y2713D01*
X150Y2713D01*
X150Y2713D01*
X151Y2713D01*
X151Y2712D01*
X152Y2712D01*
X152Y2711D01*
X153Y2710D01*
X154Y2710D01*
X154Y2709D01*
X154Y2708D01*
X154Y2708D01*
X155Y2708D01*
X155Y2707D01*
X155Y2706D01*
X156Y2705D01*
X156Y2704D01*
X156Y2703D01*
Y2703D01*
Y2702D01*
X156Y2701D01*
X156Y2701D01*
X155Y2700D01*
X155Y2698D01*
X154Y2697D01*
X154Y2696D01*
X154Y2696D01*
X153Y2696D01*
X153Y2695D01*
X152Y2695D01*
X152Y2694D01*
X151Y2693D01*
X150Y2692D01*
X149Y2692D01*
X149D01*
X149Y2692D01*
X149Y2692D01*
X149Y2692D01*
X150Y2691D01*
X151Y2691D01*
X152Y2690D01*
X154Y2689D01*
X155Y2688D01*
X156Y2687D01*
X156Y2687D01*
X156Y2687D01*
X156Y2686D01*
X157Y2685D01*
X157Y2684D01*
X158Y2683D01*
X158Y2681D01*
X158Y2680D01*
Y2679D01*
Y2679D01*
X158Y2678D01*
X158Y2677D01*
X158Y2676D01*
X158Y2675D01*
X157Y2674D01*
X157Y2673D01*
X157Y2673D01*
X156Y2672D01*
X156Y2672D01*
X155Y2671D01*
X155Y2670D01*
X154Y2669D01*
X153Y2668D01*
X152Y2668D01*
X152Y2668D01*
X152Y2667D01*
X151Y2667D01*
X150Y2667D01*
X149Y2666D01*
X148Y2666D01*
X147Y2666D01*
X145Y2665D01*
X145D01*
X145Y2665D01*
X144D01*
X144Y2665D01*
X142D01*
X141Y2665D01*
X139D01*
X138Y2665D01*
X116D01*
Y2715D01*
X138D01*
X139Y2715D01*
D02*
G37*
G36*
X111Y2665D02*
X100D01*
X95Y2676D01*
X75D01*
X71Y2665D01*
X60D01*
X80Y2715D01*
X90D01*
X111Y2665D01*
D02*
G37*
%LPC*%
G36*
X136Y2707D02*
X126D01*
Y2695D01*
X136D01*
X137Y2695D01*
X139D01*
X140Y2696D01*
X140D01*
X141Y2696D01*
X141Y2696D01*
X142Y2696D01*
X142Y2696D01*
X143Y2696D01*
X144Y2697D01*
X144Y2697D01*
X144Y2697D01*
X145Y2698D01*
X145Y2698D01*
X145Y2698D01*
X145Y2699D01*
X146Y2700D01*
X146Y2700D01*
X146Y2701D01*
Y2701D01*
Y2702D01*
X146Y2702D01*
X146Y2703D01*
X146Y2703D01*
X145Y2704D01*
X145Y2704D01*
X145Y2705D01*
X144Y2705D01*
X144Y2705D01*
X144Y2706D01*
X144Y2706D01*
X143Y2706D01*
X142Y2706D01*
X142Y2707D01*
X141Y2707D01*
X141D01*
X140Y2707D01*
X139D01*
X139Y2707D01*
X137D01*
X136Y2707D01*
D02*
G37*
G36*
X85Y2704D02*
X78Y2685D01*
X92D01*
X85Y2704D01*
D02*
G37*
G36*
X137Y2687D02*
X126D01*
Y2674D01*
X137D01*
X138Y2674D01*
X140D01*
X141Y2674D01*
X142Y2674D01*
X142D01*
X143Y2674D01*
X143D01*
X143Y2674D01*
X143Y2674D01*
X144Y2674D01*
X144Y2675D01*
X145Y2675D01*
X146Y2675D01*
X146Y2676D01*
X146Y2676D01*
X146Y2676D01*
X147Y2677D01*
X147Y2677D01*
X147Y2678D01*
X147Y2678D01*
X148Y2679D01*
X148Y2680D01*
Y2680D01*
Y2681D01*
X148Y2681D01*
X148Y2681D01*
X147Y2682D01*
X147Y2683D01*
X147Y2683D01*
X147Y2684D01*
X146Y2684D01*
X146Y2684D01*
X146Y2685D01*
X146Y2685D01*
X145Y2685D01*
X145Y2686D01*
X144Y2686D01*
X143Y2686D01*
X143D01*
X143Y2686D01*
X142Y2687D01*
X142Y2687D01*
X141Y2687D01*
X141Y2687D01*
X140Y2687D01*
X140Y2687D01*
X139D01*
X138Y2687D01*
X137Y2687D01*
D02*
G37*
%LPD*%
D13*
X1590Y478D02*
D03*
X1590Y572D02*
D03*
X1185Y463D02*
D03*
X1185Y557D02*
D03*
X1085D02*
D03*
X1085Y463D02*
D03*
X985D02*
D03*
X985Y557D02*
D03*
X820Y2032D02*
D03*
X820Y1938D02*
D03*
X1681D02*
D03*
X1681Y2032D02*
D03*
X1122Y1938D02*
D03*
X1122Y2032D02*
D03*
X983D02*
D03*
X983Y1938D02*
D03*
X1541D02*
D03*
X1541Y2032D02*
D03*
X1401Y1938D02*
D03*
X1401Y2032D02*
D03*
X1210Y1468D02*
D03*
X1210Y1562D02*
D03*
X1262Y1938D02*
D03*
X1262Y2032D02*
D03*
X1395Y1468D02*
D03*
X1395Y1562D02*
D03*
X1580Y1468D02*
D03*
X1580Y1562D02*
D03*
X1820Y2032D02*
D03*
X1820Y1938D02*
D03*
X1960Y2032D02*
D03*
X1960Y1938D02*
D03*
D14*
X50Y2080D02*
X195Y2225D01*
X50Y1275D02*
Y2080D01*
X195Y980D02*
Y1130D01*
X152Y1177D02*
X293D01*
X50Y1275D02*
X195Y1130D01*
D15*
X1960Y1938D02*
X2042D01*
X2049Y1631D02*
Y2225D01*
X1368Y463D02*
X1383Y478D01*
X1590D01*
X985Y463D02*
X1085D01*
X1185D01*
X1368D01*
X1590Y478D02*
X1718D01*
D17*
X633Y100D02*
Y189D01*
Y285D01*
X480Y50D02*
X583D01*
X633Y100D01*
D18*
X1385Y55D02*
Y120D01*
X727Y53D02*
Y100D01*
Y189D02*
Y285D01*
Y582D01*
Y189D02*
X796D01*
X727Y100D02*
X775D01*
X951Y2574D02*
X1030Y2495D01*
X951Y2574D02*
Y2630D01*
X1030Y2260D02*
Y2495D01*
X820Y2135D02*
X951Y2266D01*
Y2413D01*
X820Y1800D02*
Y1938D01*
X800Y1780D02*
X820Y1800D01*
X800Y1200D02*
Y1780D01*
X1285Y720D02*
X1330Y765D01*
Y1345D01*
X1209Y1466D02*
X1330Y1345D01*
X985Y720D02*
Y775D01*
X1116Y2291D02*
Y2413D01*
X915Y845D02*
X985Y775D01*
X915Y845D02*
Y2090D01*
X1116Y2291D01*
X1485Y720D02*
Y770D01*
X1440Y815D02*
X1485Y770D01*
X1440Y815D02*
Y1265D01*
X1210Y1562D02*
Y1677D01*
X1395Y1562D02*
Y1676D01*
X1580Y1562D02*
Y1673D01*
X1309Y1715D02*
Y1801D01*
X1492Y1715D02*
Y1788D01*
X1674Y1715D02*
Y1796D01*
X1116Y2594D02*
Y2630D01*
X1200Y2305D02*
Y2510D01*
X1116Y2594D02*
X1200Y2510D01*
X860Y1715D02*
X880Y1735D01*
Y2110D01*
X1030Y2260D01*
X1262Y2092D02*
X1365Y2195D01*
Y2546D01*
X1281Y2630D02*
X1365Y2546D01*
X1447Y2177D02*
Y2413D01*
Y2630D02*
X1525Y2552D01*
X1612Y2308D02*
X1681Y2239D01*
X1612Y2308D02*
Y2413D01*
X1681Y2032D02*
Y2239D01*
X1525Y2160D02*
Y2552D01*
Y2160D02*
X1541Y2144D01*
Y2032D02*
Y2144D01*
X1401Y2131D02*
X1447Y2177D01*
X1401Y2032D02*
Y2131D01*
X1262Y2032D02*
Y2092D01*
X1122Y2092D02*
X1281Y2251D01*
Y2413D01*
X1122Y2032D02*
Y2092D01*
X983Y2088D02*
X1200Y2305D01*
X983Y2032D02*
Y2088D01*
X820Y2032D02*
Y2135D01*
X1820Y2032D02*
X1960D01*
X1820D02*
Y2430D01*
X1620Y2630D02*
X1820Y2430D01*
X1612Y2630D02*
X1620D01*
X983Y1452D02*
X1035Y1400D01*
X983Y1452D02*
Y1938D01*
X1122Y1762D02*
Y1938D01*
X1100Y1475D02*
Y1740D01*
X1122Y1762D01*
X1262Y1848D02*
X1309Y1801D01*
X1262Y1848D02*
Y1938D01*
X1401Y1879D02*
X1492Y1788D01*
X1401Y1879D02*
Y1938D01*
X1615Y1855D02*
X1674Y1796D01*
X1575Y1855D02*
X1615D01*
X1541Y1889D02*
X1575Y1855D01*
X1541Y1889D02*
Y1938D01*
X1770Y1410D02*
Y1810D01*
X1681Y1899D02*
X1770Y1810D01*
X1681Y1899D02*
Y1938D01*
X985Y557D02*
Y720D01*
X1085Y557D02*
Y720D01*
X1185Y557D02*
Y720D01*
X1585Y577D02*
Y720D01*
X1185Y120D02*
Y205D01*
X1250Y270D01*
X1755D01*
X1855Y370D01*
Y1815D01*
X1820Y1850D02*
X1855Y1815D01*
X1820Y1850D02*
Y1938D01*
X796Y189D02*
X815Y170D01*
X727Y53D02*
X755Y25D01*
X1355D01*
X1385Y55D01*
X815Y90D02*
Y170D01*
Y90D02*
X850Y55D01*
X1260D01*
X1285Y80D01*
Y120D01*
X1211Y1752D02*
Y1809D01*
X1393Y1752D02*
Y1808D01*
X1576Y1752D02*
Y1804D01*
X1440Y1265D02*
X1580Y1405D01*
Y1468D01*
X1385Y720D02*
Y1395D01*
X1395Y1405D01*
Y1468D01*
X860Y835D02*
Y1715D01*
X780Y395D02*
X840Y455D01*
Y625D01*
X800Y665D02*
X840Y625D01*
X800Y665D02*
Y775D01*
X860Y835D01*
D19*
X505Y973D02*
X695Y783D01*
X785Y2413D02*
Y2630D01*
X505Y973D02*
Y2040D01*
X785Y2320D01*
Y2413D01*
D20*
X1076Y120D02*
X1085D01*
X775Y100D02*
X775Y100D01*
D21*
X885Y120D02*
D03*
X985D02*
D03*
X1085D02*
D03*
X1185D02*
D03*
X1285D02*
D03*
X1385D02*
D03*
X1485D02*
D03*
X1585D02*
D03*
X1685D02*
D03*
X1785D02*
D03*
X1885D02*
D03*
X1985D02*
D03*
X1685Y720D02*
D03*
X1585D02*
D03*
X1485D02*
D03*
X1385D02*
D03*
X1285D02*
D03*
X1185D02*
D03*
X1085D02*
D03*
X985D02*
D03*
X885D02*
D03*
D22*
X620Y2630D02*
D03*
Y2413D02*
D03*
X785Y2630D02*
D03*
Y2413D02*
D03*
X951Y2630D02*
D03*
Y2413D02*
D03*
X1116Y2630D02*
D03*
Y2413D02*
D03*
X1281Y2630D02*
D03*
Y2413D02*
D03*
X1447Y2630D02*
D03*
Y2413D02*
D03*
X1612Y2630D02*
D03*
D23*
Y2413D02*
D03*
D24*
X2049Y2225D02*
D03*
Y1327D02*
D03*
X195D02*
D03*
Y2225D02*
D03*
D25*
Y980D02*
D03*
X293Y1177D02*
D03*
Y783D02*
D03*
X695D02*
D03*
D26*
X2049Y1631D02*
D03*
X727Y582D02*
D03*
X800Y1200D02*
D03*
X775Y100D02*
D03*
X780Y395D02*
D03*
X1035Y1400D02*
D03*
X1770Y1410D02*
D03*
X1100Y1475D02*
D03*
X1211Y1809D02*
D03*
X1393Y1808D02*
D03*
X1576Y1804D02*
D03*
X480Y50D02*
D03*
D27*
X1718Y478D02*
D03*
D28*
X1393Y1678D02*
D03*
Y1752D02*
D03*
X1492Y1715D02*
D03*
X1211Y1678D02*
D03*
Y1752D02*
D03*
X1309Y1715D02*
D03*
X1576Y1678D02*
D03*
Y1752D02*
D03*
X1674Y1715D02*
D03*
D29*
X727Y285D02*
D03*
X633Y285D02*
D03*
Y189D02*
D03*
X727D02*
D03*
X633Y100D02*
D03*
X727D02*
D03*
D30*
X5240Y46D02*
X5208D01*
X5197Y49D01*
X5194Y53D01*
X5190Y60D01*
Y71D01*
X5194Y78D01*
X5197Y81D01*
X5208Y85D01*
X5240D01*
Y10D01*
X5173Y-1D02*
X5123Y85D01*
X5118D02*
Y10D01*
Y85D02*
X5068Y10D01*
Y85D02*
Y10D01*
X4989Y85D02*
X4939Y10D01*
Y85D02*
X4989Y10D01*
X4922Y85D02*
X4872Y10D01*
Y85D02*
X4922Y10D01*
X4855Y85D02*
X4805Y10D01*
Y85D02*
X4855Y10D01*
X4788Y85D02*
X4738Y10D01*
Y85D02*
X4788Y10D01*
X4722Y85D02*
X4672Y10D01*
Y85D02*
X4722Y10D01*
X4655Y85D02*
X4605Y10D01*
Y85D02*
X4655Y10D01*
X4588Y42D02*
X4524D01*
X4502Y85D02*
X4452Y10D01*
Y85D02*
X4502Y10D01*
X4435Y85D02*
X4385Y10D01*
Y85D02*
X4435Y10D01*
X4368Y85D02*
X4318Y10D01*
Y85D02*
X4368Y10D01*
X4242Y85D02*
Y10D01*
Y85D02*
X4210D01*
X4200Y81D01*
X4196Y78D01*
X4192Y71D01*
Y64D01*
X4196Y56D01*
X4200Y53D01*
X4210Y49D01*
X4242D01*
X4217D02*
X4192Y10D01*
X4129Y85D02*
X4176D01*
Y10D01*
X4129D01*
X4176Y49D02*
X4147D01*
X4117Y85D02*
X4088Y10D01*
X4060Y85D02*
X4088Y10D01*
X3934D02*
X3962Y85D01*
X3991Y10D01*
X3980Y35D02*
X3945D01*
M02*
