%FSLAX23Y23*%
%MOIN*%
G70*
G01*
G75*
G04 Layer_Physical_Order=1*
G04 Layer_Color=255*
G04:AMPARAMS|DCode=10|XSize=51mil|YSize=118mil|CornerRadius=0mil|HoleSize=0mil|Usage=FLASHONLY|Rotation=0.000|XOffset=0mil|YOffset=0mil|HoleType=Round|Shape=Octagon|*
%AMOCTAGOND10*
4,1,8,-0.013,0.059,0.013,0.059,0.026,0.046,0.026,-0.046,0.013,-0.059,-0.013,-0.059,-0.026,-0.046,-0.026,0.046,-0.013,0.059,0.0*
%
%ADD10OCTAGOND10*%

%ADD11R,0.051X0.118*%
%ADD12R,0.051X0.073*%
%ADD13R,0.055X0.043*%
%ADD14C,0.059*%
%ADD15C,0.039*%
%ADD16C,0.020*%
%ADD17C,0.030*%
%ADD18C,0.020*%
%ADD19C,0.157*%
%ADD20C,0.010*%
%ADD21C,0.074*%
%ADD22O,0.098X0.118*%
G04:AMPARAMS|DCode=23|XSize=98mil|YSize=118mil|CornerRadius=0mil|HoleSize=0mil|Usage=FLASHONLY|Rotation=180.000|XOffset=0mil|YOffset=0mil|HoleType=Round|Shape=Octagon|*
%AMOCTAGOND23*
4,1,8,0.025,-0.059,-0.025,-0.059,-0.049,-0.034,-0.049,0.034,-0.025,0.059,0.025,0.059,0.049,0.034,0.049,-0.034,0.025,-0.059,0.0*
%
%ADD23OCTAGOND23*%

%ADD24C,0.091*%
%ADD25C,0.060*%
%ADD26C,0.031*%
%ADD27C,0.017*%
D10*
X170Y160D02*
D03*
X1580Y1185D02*
D03*
X1270D02*
D03*
X1035D02*
D03*
D11*
X270Y160D02*
D03*
Y475D02*
D03*
X170D02*
D03*
X1480Y1185D02*
D03*
Y870D02*
D03*
X1580D02*
D03*
X1170Y1185D02*
D03*
Y870D02*
D03*
X1270D02*
D03*
X1035D02*
D03*
X935D02*
D03*
Y1185D02*
D03*
D12*
X179Y645D02*
D03*
X320D02*
D03*
D13*
X365Y173D02*
D03*
X365Y267D02*
D03*
D14*
X488Y2413D02*
X620D01*
X332Y2257D02*
X488Y2413D01*
X332Y2172D02*
Y2257D01*
X195Y2580D02*
X245Y2630D01*
X195Y2225D02*
Y2580D01*
X245Y2630D02*
X620D01*
X195Y1327D02*
Y2035D01*
X332Y2172D01*
D15*
X2180Y1285D02*
Y1500D01*
X2049Y1631D02*
X2180Y1500D01*
X179Y645D02*
Y964D01*
X293Y783D02*
X320Y756D01*
Y645D02*
Y756D01*
X1685Y445D02*
X1718Y478D01*
X1685Y120D02*
Y445D01*
X1718Y478D02*
X2180Y940D01*
Y1285D01*
D16*
X190Y570D02*
X295D01*
X320Y595D01*
Y645D01*
X170Y550D02*
X190Y570D01*
X170Y475D02*
Y550D01*
D17*
X370Y860D02*
X410Y820D01*
X370Y860D02*
Y1230D01*
X273Y1327D02*
X370Y1230D01*
X195Y1327D02*
X273D01*
X270Y50D02*
Y160D01*
X85Y85D02*
X120Y50D01*
X85Y85D02*
Y295D01*
X140Y350D01*
X230D01*
X270Y390D01*
Y475D01*
X335D01*
X410Y550D01*
Y820D01*
X1170Y870D02*
Y1025D01*
Y1185D01*
X1480Y870D02*
Y1025D01*
Y1185D01*
X935Y860D02*
Y870D01*
Y1025D01*
Y1175D01*
X120Y50D02*
X480D01*
D18*
X170Y160D02*
Y225D01*
X212Y267D01*
X365D01*
X365Y173D02*
X403D01*
X465Y235D01*
Y395D01*
X545Y475D01*
X815D01*
X885Y545D01*
Y720D01*
X727Y582D02*
X800Y655D01*
Y1200D01*
X780Y100D02*
Y395D01*
X1035Y1185D02*
Y1400D01*
X1270Y820D02*
Y870D01*
X1185Y735D02*
X1270Y820D01*
X1185Y720D02*
Y735D01*
X1035Y830D02*
Y870D01*
Y830D02*
X1085Y780D01*
Y720D02*
Y780D01*
X1580Y1185D02*
Y1220D01*
X1650Y1290D01*
X1705D01*
X1770Y1355D01*
Y1410D01*
X1585Y720D02*
Y865D01*
X1211Y1809D02*
X1393D01*
X1576Y1804D02*
X1716D01*
X1850Y1670D01*
Y1565D02*
Y1670D01*
Y1565D02*
X2049Y1366D01*
Y1327D02*
Y1366D01*
X1747Y1025D02*
X2049Y1327D01*
X935Y1025D02*
X1170D01*
X1480D01*
X1747D01*
X1393Y1808D02*
X1576D01*
X1100Y1430D02*
Y1475D01*
Y1430D02*
X1270Y1260D01*
Y1185D02*
Y1260D01*
D19*
X505Y973D02*
X695Y783D01*
X785Y2413D02*
Y2630D01*
X505Y973D02*
Y2040D01*
X785Y2320D01*
Y2413D01*
D20*
X775Y100D02*
X780D01*
D21*
X885Y120D02*
D03*
X985D02*
D03*
X1085D02*
D03*
X1185D02*
D03*
X1285D02*
D03*
X1385D02*
D03*
X1485D02*
D03*
X1585D02*
D03*
X1685D02*
D03*
X1785D02*
D03*
X1885D02*
D03*
X1985D02*
D03*
X1685Y720D02*
D03*
X1585D02*
D03*
X1485D02*
D03*
X1385D02*
D03*
X1285D02*
D03*
X1185D02*
D03*
X1085D02*
D03*
X985D02*
D03*
X885D02*
D03*
D22*
X620Y2630D02*
D03*
Y2413D02*
D03*
X785Y2630D02*
D03*
Y2413D02*
D03*
X951Y2630D02*
D03*
Y2413D02*
D03*
X1116Y2630D02*
D03*
Y2413D02*
D03*
X1281Y2630D02*
D03*
Y2413D02*
D03*
X1447Y2630D02*
D03*
Y2413D02*
D03*
X1612Y2630D02*
D03*
D23*
Y2413D02*
D03*
D24*
X2049Y2225D02*
D03*
Y1327D02*
D03*
X195D02*
D03*
Y2225D02*
D03*
D25*
Y980D02*
D03*
X293Y1177D02*
D03*
Y783D02*
D03*
X695D02*
D03*
D26*
X2049Y1631D02*
D03*
X727Y582D02*
D03*
X800Y1200D02*
D03*
X775Y100D02*
D03*
X780Y395D02*
D03*
X1035Y1400D02*
D03*
X1770Y1410D02*
D03*
X1100Y1475D02*
D03*
X1211Y1809D02*
D03*
X1393Y1808D02*
D03*
X1576Y1804D02*
D03*
X480Y50D02*
D03*
D27*
X1718Y478D02*
D03*
M02*
