%FSLAX23Y23*%
%MOIN*%
G70*
G01*
G75*
G04:AMPARAMS|DCode=10|XSize=51mil|YSize=118mil|CornerRadius=0mil|HoleSize=0mil|Usage=FLASHONLY|Rotation=0.000|XOffset=0mil|YOffset=0mil|HoleType=Round|Shape=Octagon|*
%AMOCTAGOND10*
4,1,8,-0.013,0.059,0.013,0.059,0.026,0.046,0.026,-0.046,0.013,-0.059,-0.013,-0.059,-0.026,-0.046,-0.026,0.046,-0.013,0.059,0.0*
%
%ADD10OCTAGOND10*%

%ADD11R,0.051X0.118*%
%ADD12R,0.051X0.073*%
%ADD13R,0.055X0.043*%
%ADD14C,0.059*%
%ADD15C,0.039*%
%ADD16C,0.020*%
%ADD17C,0.030*%
%ADD18C,0.020*%
%ADD19C,0.157*%
%ADD20C,0.010*%
%ADD21C,0.074*%
%ADD22O,0.098X0.118*%
G04:AMPARAMS|DCode=23|XSize=98mil|YSize=118mil|CornerRadius=0mil|HoleSize=0mil|Usage=FLASHONLY|Rotation=180.000|XOffset=0mil|YOffset=0mil|HoleType=Round|Shape=Octagon|*
%AMOCTAGOND23*
4,1,8,0.025,-0.059,-0.025,-0.059,-0.049,-0.034,-0.049,0.034,-0.025,0.059,0.025,0.059,0.049,0.034,0.049,-0.034,0.025,-0.059,0.0*
%
%ADD23OCTAGOND23*%

%ADD24C,0.091*%
%ADD25C,0.060*%
%ADD26C,0.031*%
%ADD27C,0.017*%
%ADD28R,0.047X0.026*%
%ADD29R,0.043X0.055*%
%ADD30C,0.008*%
%ADD31C,0.010*%
%ADD32C,0.008*%
%ADD33C,0.006*%
%ADD34C,0.010*%
%ADD35C,0.012*%
G36*
X1002Y169D02*
X999D01*
Y189D01*
X999Y189D01*
X998Y189D01*
X998Y189D01*
X998Y188D01*
X997Y188D01*
X997Y188D01*
X996Y187D01*
X996Y187D01*
X996D01*
X996Y187D01*
X995Y187D01*
X995Y186D01*
X995Y186D01*
X994Y186D01*
X993Y186D01*
X993Y185D01*
X992Y185D01*
Y188D01*
X992D01*
X992Y188D01*
X993Y188D01*
X993Y188D01*
X993Y189D01*
X993Y189D01*
X994Y189D01*
X995Y189D01*
X995Y190D01*
X996Y190D01*
X997Y191D01*
X997Y191D01*
X997Y191D01*
X997Y191D01*
X998Y192D01*
X998Y192D01*
X998Y193D01*
X999Y193D01*
X999Y194D01*
X1000Y195D01*
X1002D01*
Y169D01*
D02*
G37*
G36*
X982D02*
X979D01*
Y189D01*
X979Y189D01*
X979Y189D01*
X979Y189D01*
X978Y188D01*
X978Y188D01*
X977Y188D01*
X977Y187D01*
X976Y187D01*
X976D01*
X976Y187D01*
X976Y187D01*
X975Y186D01*
X975Y186D01*
X974Y186D01*
X974Y186D01*
X973Y185D01*
X973Y185D01*
Y188D01*
X973D01*
X973Y188D01*
X973Y188D01*
X973Y188D01*
X973Y189D01*
X974Y189D01*
X974Y189D01*
X975Y189D01*
X976Y190D01*
X977Y190D01*
X977Y191D01*
X977Y191D01*
X977Y191D01*
X978Y191D01*
X978Y192D01*
X978Y192D01*
X979Y193D01*
X979Y193D01*
X980Y194D01*
X980Y195D01*
X982D01*
Y169D01*
D02*
G37*
G36*
X1096Y205D02*
X1097Y205D01*
X1097Y205D01*
X1098Y205D01*
X1098Y205D01*
X1100Y204D01*
X1101Y204D01*
X1102Y203D01*
X1103Y203D01*
X1104Y202D01*
X1104Y202D01*
X1104Y202D01*
X1104Y202D01*
X1105Y201D01*
X1105Y201D01*
X1105Y201D01*
X1105Y200D01*
X1106Y200D01*
X1107Y198D01*
X1107Y197D01*
X1108Y196D01*
X1108Y195D01*
X1108Y194D01*
Y194D01*
Y193D01*
X1108Y193D01*
X1108Y192D01*
X1107Y192D01*
X1107Y191D01*
X1107Y190D01*
X1107Y189D01*
X1107Y189D01*
X1106Y189D01*
X1106Y188D01*
X1106Y188D01*
X1105Y187D01*
X1105Y186D01*
X1104Y185D01*
X1103Y184D01*
X1103Y184D01*
X1103Y184D01*
X1102Y183D01*
X1102Y183D01*
X1102Y182D01*
X1101Y182D01*
X1101Y181D01*
X1100Y181D01*
X1099Y180D01*
X1099Y180D01*
X1098Y179D01*
X1097Y178D01*
X1096Y177D01*
X1096Y177D01*
X1096Y177D01*
X1095Y177D01*
X1095Y177D01*
X1094Y176D01*
X1094Y175D01*
X1093Y174D01*
X1092Y174D01*
X1091Y173D01*
X1091Y173D01*
X1090Y172D01*
X1090Y172D01*
X1090Y172D01*
X1090Y172D01*
X1090Y171D01*
X1089Y171D01*
X1088Y170D01*
X1108D01*
Y165D01*
X1081D01*
Y165D01*
Y165D01*
Y166D01*
X1081Y166D01*
X1082Y167D01*
X1082Y167D01*
X1082Y168D01*
X1082Y168D01*
Y168D01*
X1082Y168D01*
X1082Y169D01*
X1082Y169D01*
X1083Y170D01*
X1083Y171D01*
X1084Y172D01*
X1084Y173D01*
X1085Y174D01*
Y174D01*
X1085Y174D01*
X1086Y174D01*
X1086Y175D01*
X1087Y175D01*
X1088Y176D01*
X1089Y177D01*
X1090Y178D01*
X1092Y180D01*
X1092Y180D01*
X1092Y180D01*
X1092Y180D01*
X1093Y181D01*
X1093Y181D01*
X1094Y182D01*
X1095Y183D01*
X1097Y184D01*
X1098Y185D01*
X1099Y186D01*
X1099Y187D01*
X1100Y187D01*
X1100Y188D01*
Y188D01*
X1100Y188D01*
X1101Y188D01*
X1101Y189D01*
X1101Y189D01*
X1102Y190D01*
X1102Y191D01*
X1102Y192D01*
X1103Y193D01*
X1103Y194D01*
Y194D01*
Y194D01*
X1103Y194D01*
X1103Y195D01*
X1102Y196D01*
X1102Y196D01*
X1102Y197D01*
X1101Y198D01*
X1101Y199D01*
X1100Y199D01*
X1100Y199D01*
X1100Y199D01*
X1099Y200D01*
X1098Y200D01*
X1097Y201D01*
X1096Y201D01*
X1095Y201D01*
X1095D01*
X1095Y201D01*
X1094Y201D01*
X1093Y201D01*
X1092Y200D01*
X1091Y200D01*
X1090Y199D01*
X1089Y199D01*
X1089Y199D01*
X1089Y198D01*
X1089Y198D01*
X1088Y197D01*
X1088Y196D01*
X1088Y195D01*
X1087Y194D01*
X1087Y193D01*
X1082Y193D01*
Y193D01*
Y194D01*
X1082Y194D01*
X1082Y194D01*
X1083Y195D01*
X1083Y195D01*
X1083Y197D01*
X1083Y198D01*
X1084Y199D01*
X1085Y201D01*
X1086Y201D01*
X1086Y202D01*
X1086Y202D01*
X1086Y202D01*
X1087Y202D01*
X1087Y202D01*
X1087Y203D01*
X1088Y203D01*
X1088Y203D01*
X1089Y203D01*
X1089Y204D01*
X1090Y204D01*
X1091Y204D01*
X1091Y204D01*
X1093Y205D01*
X1094Y205D01*
X1095Y205D01*
X1096D01*
X1096Y205D01*
D02*
G37*
G36*
X1070Y165D02*
X1065D01*
Y196D01*
X1065Y196D01*
X1064Y196D01*
X1064Y195D01*
X1063Y195D01*
X1063Y195D01*
X1062Y194D01*
X1061Y193D01*
X1060Y193D01*
X1060D01*
X1060Y193D01*
X1060Y192D01*
X1059Y192D01*
X1058Y192D01*
X1058Y191D01*
X1057Y191D01*
X1056Y191D01*
X1055Y190D01*
Y195D01*
X1055D01*
X1055Y195D01*
X1055Y195D01*
X1056Y195D01*
X1056Y195D01*
X1056Y196D01*
X1057Y196D01*
X1059Y197D01*
X1060Y198D01*
X1061Y199D01*
X1062Y200D01*
X1062Y200D01*
X1062Y200D01*
X1063Y200D01*
X1063Y201D01*
X1064Y201D01*
X1064Y202D01*
X1065Y203D01*
X1066Y204D01*
X1066Y205D01*
X1070D01*
Y165D01*
D02*
G37*
G36*
X2055Y114D02*
X2055D01*
X2056Y114D01*
X2057Y114D01*
X2058Y114D01*
X2059Y113D01*
X2060Y113D01*
X2060D01*
X2060Y113D01*
X2060Y113D01*
X2061Y113D01*
X2061Y112D01*
X2062Y112D01*
X2062Y112D01*
X2063Y111D01*
X2064Y110D01*
X2065Y110D01*
X2065Y110D01*
X2065Y109D01*
X2065Y109D01*
X2065Y108D01*
X2066Y108D01*
X2066Y107D01*
X2067Y106D01*
X2067Y105D01*
X2063Y103D01*
Y104D01*
X2063Y104D01*
X2063Y104D01*
X2063Y104D01*
X2063Y105D01*
X2062Y105D01*
X2062Y106D01*
X2062Y107D01*
X2061Y107D01*
X2061Y107D01*
X2061Y108D01*
X2061Y108D01*
X2061Y108D01*
X2060Y108D01*
X2060Y109D01*
X2059Y109D01*
X2058Y110D01*
X2058Y110D01*
X2058Y110D01*
X2058Y110D01*
X2057Y110D01*
X2056Y110D01*
X2056Y110D01*
X2055Y110D01*
X2054Y110D01*
X2054D01*
X2053Y110D01*
X2052Y110D01*
X2052Y110D01*
X2051Y110D01*
X2050Y110D01*
X2049Y109D01*
X2049Y109D01*
X2049Y109D01*
X2048Y109D01*
X2048Y109D01*
X2047Y109D01*
X2047Y108D01*
X2046Y108D01*
X2046Y107D01*
X2046Y107D01*
X2045Y107D01*
X2045Y107D01*
X2045Y106D01*
X2045Y106D01*
X2044Y105D01*
X2044Y105D01*
X2044Y104D01*
Y104D01*
X2044Y104D01*
X2044Y104D01*
X2043Y103D01*
X2043Y103D01*
X2043Y103D01*
X2043Y102D01*
X2043Y101D01*
X2043Y100D01*
X2042Y99D01*
X2042Y98D01*
Y98D01*
Y97D01*
Y97D01*
X2042Y97D01*
Y97D01*
X2043Y96D01*
X2043Y96D01*
X2043Y95D01*
X2043Y94D01*
X2043Y93D01*
X2043Y92D01*
X2044Y90D01*
Y90D01*
X2044Y90D01*
X2044Y90D01*
X2044Y90D01*
X2045Y90D01*
X2045Y89D01*
X2046Y88D01*
X2046Y87D01*
X2047Y87D01*
X2048Y86D01*
X2048D01*
X2048Y86D01*
X2048Y86D01*
X2049Y86D01*
X2049Y86D01*
X2049Y86D01*
X2050Y86D01*
X2051Y85D01*
X2052Y85D01*
X2053Y85D01*
X2054Y85D01*
X2055D01*
X2055Y85D01*
X2056Y85D01*
X2057Y85D01*
X2057Y85D01*
X2058Y86D01*
X2059Y86D01*
X2059D01*
X2059Y86D01*
X2060Y86D01*
X2060Y86D01*
X2060Y86D01*
X2061Y87D01*
X2062Y87D01*
X2062Y87D01*
X2063Y88D01*
X2063Y88D01*
Y94D01*
X2054D01*
Y98D01*
X2067D01*
Y86D01*
X2067Y86D01*
X2067Y86D01*
X2067Y86D01*
X2067Y86D01*
X2067Y85D01*
X2066Y85D01*
X2065Y85D01*
X2065Y84D01*
X2063Y83D01*
X2062Y83D01*
X2061Y82D01*
X2061D01*
X2061Y82D01*
X2061Y82D01*
X2060Y82D01*
X2060Y82D01*
X2060Y82D01*
X2059Y82D01*
X2059Y82D01*
X2058Y82D01*
X2057Y81D01*
X2056Y81D01*
X2054Y81D01*
X2054D01*
X2054Y81D01*
X2053D01*
X2053Y81D01*
X2052Y81D01*
X2051Y81D01*
X2050Y82D01*
X2049Y82D01*
X2047Y82D01*
X2046Y83D01*
X2046Y83D01*
X2046Y83D01*
X2045Y83D01*
X2045Y84D01*
X2045Y84D01*
X2044Y84D01*
X2044Y85D01*
X2043Y85D01*
X2042Y86D01*
X2041Y88D01*
X2040Y89D01*
Y89D01*
X2040Y89D01*
X2040Y89D01*
X2040Y90D01*
X2040Y90D01*
X2039Y90D01*
X2039Y91D01*
X2039Y91D01*
X2039Y92D01*
X2039Y93D01*
X2038Y94D01*
X2038Y96D01*
X2038Y97D01*
Y97D01*
Y98D01*
Y98D01*
X2038Y98D01*
Y99D01*
X2038Y99D01*
X2038Y100D01*
X2038Y100D01*
X2039Y102D01*
X2039Y103D01*
X2039Y105D01*
X2040Y106D01*
Y106D01*
X2040Y106D01*
X2040Y106D01*
X2040Y107D01*
X2041Y107D01*
X2041Y107D01*
X2041Y108D01*
X2042Y109D01*
X2043Y110D01*
X2044Y111D01*
X2045Y112D01*
X2046Y112D01*
X2046D01*
X2046Y112D01*
X2046Y112D01*
X2046Y112D01*
X2047Y112D01*
X2047Y113D01*
X2047Y113D01*
X2048Y113D01*
X2049Y113D01*
X2049Y113D01*
X2051Y114D01*
X2052Y114D01*
X2054Y114D01*
X2055D01*
X2055Y114D01*
D02*
G37*
G36*
X2099Y82D02*
X2094D01*
X2078Y107D01*
Y82D01*
X2074D01*
Y113D01*
X2078D01*
X2095Y88D01*
Y113D01*
X2099D01*
Y82D01*
D02*
G37*
G36*
X879Y175D02*
X876D01*
Y195D01*
X876Y195D01*
X876Y195D01*
X876Y194D01*
X875Y194D01*
X875Y194D01*
X874Y193D01*
X874Y193D01*
X873Y193D01*
X873D01*
X873Y193D01*
X873Y192D01*
X873Y192D01*
X872Y192D01*
X872Y192D01*
X871Y191D01*
X871Y191D01*
X870Y191D01*
Y194D01*
X870D01*
X870Y194D01*
X870Y194D01*
X870Y194D01*
X871Y194D01*
X871Y194D01*
X872Y195D01*
X872Y195D01*
X873Y196D01*
X874Y196D01*
X874Y197D01*
X875Y197D01*
X875Y197D01*
X875Y197D01*
X875Y198D01*
X876Y198D01*
X876Y199D01*
X876Y199D01*
X877Y200D01*
X877Y200D01*
X879D01*
Y175D01*
D02*
G37*
G36*
X896Y200D02*
X897Y200D01*
X897Y200D01*
X898Y200D01*
X898Y200D01*
X899Y199D01*
X899Y199D01*
X899Y199D01*
X899Y199D01*
X900Y199D01*
X900Y199D01*
X901Y198D01*
X901Y198D01*
X901Y197D01*
X902Y197D01*
X902Y197D01*
X902Y197D01*
X902Y196D01*
X902Y196D01*
X903Y195D01*
X903Y194D01*
X903Y193D01*
Y193D01*
X903Y193D01*
Y193D01*
X903Y193D01*
X903Y193D01*
X903Y193D01*
X903Y192D01*
X903Y192D01*
X903Y191D01*
X903Y191D01*
X904Y190D01*
X904Y190D01*
X904Y189D01*
Y189D01*
X904Y187D01*
Y187D01*
Y187D01*
Y187D01*
Y187D01*
X904Y186D01*
Y186D01*
X904Y185D01*
X904Y185D01*
X903Y184D01*
X903Y183D01*
X903Y181D01*
X903Y181D01*
X903Y180D01*
Y180D01*
X903Y180D01*
X903Y180D01*
X903Y180D01*
X902Y180D01*
X902Y179D01*
X902Y179D01*
X902Y178D01*
X901Y177D01*
X901Y177D01*
X900Y176D01*
X900D01*
X900Y176D01*
X900Y176D01*
X900Y176D01*
X899Y176D01*
X899Y175D01*
X898Y175D01*
X897Y175D01*
X896Y175D01*
X895Y175D01*
X895D01*
X895Y175D01*
X894Y175D01*
X894Y175D01*
X894Y175D01*
X893Y175D01*
X892Y175D01*
X892Y175D01*
X891Y176D01*
X891Y176D01*
X891Y176D01*
X890Y177D01*
X890Y177D01*
X890Y177D01*
X890Y177D01*
X889Y177D01*
X889Y178D01*
X889Y178D01*
X889Y179D01*
X889Y179D01*
X888Y180D01*
X888Y180D01*
X888Y181D01*
X888Y182D01*
X888Y183D01*
X887Y184D01*
X887Y185D01*
X887Y186D01*
X887Y187D01*
Y187D01*
Y188D01*
Y188D01*
Y188D01*
X887Y189D01*
Y189D01*
X887Y189D01*
X887Y190D01*
X887Y191D01*
X888Y192D01*
X888Y194D01*
X888Y194D01*
X888Y195D01*
Y195D01*
X888Y195D01*
X888Y195D01*
X888Y195D01*
X888Y195D01*
X888Y196D01*
X889Y196D01*
X889Y197D01*
X890Y198D01*
X890Y198D01*
X891Y199D01*
X891D01*
X891Y199D01*
X891Y199D01*
X891Y199D01*
X892Y199D01*
X892Y200D01*
X893Y200D01*
X894Y200D01*
X894Y200D01*
X895Y200D01*
X896D01*
X896Y200D01*
D02*
G37*
G36*
X1170Y165D02*
X1165D01*
Y196D01*
X1165Y196D01*
X1164Y196D01*
X1164Y195D01*
X1163Y195D01*
X1163Y195D01*
X1162Y194D01*
X1161Y193D01*
X1160Y193D01*
X1160D01*
X1160Y193D01*
X1160Y192D01*
X1159Y192D01*
X1158Y192D01*
X1158Y191D01*
X1157Y191D01*
X1156Y191D01*
X1155Y190D01*
Y195D01*
X1155D01*
X1155Y195D01*
X1155Y195D01*
X1156Y195D01*
X1156Y195D01*
X1156Y196D01*
X1157Y196D01*
X1159Y197D01*
X1160Y198D01*
X1161Y199D01*
X1162Y200D01*
X1162Y200D01*
X1162Y200D01*
X1163Y200D01*
X1163Y201D01*
X1164Y201D01*
X1164Y202D01*
X1165Y203D01*
X1166Y204D01*
X1166Y205D01*
X1170D01*
Y165D01*
D02*
G37*
G36*
X1490D02*
X1485D01*
X1481Y175D01*
X1468D01*
X1464Y165D01*
X1460D01*
X1472Y197D01*
X1477D01*
X1490Y165D01*
D02*
G37*
G36*
X1413D02*
X1408D01*
Y196D01*
X1408Y196D01*
X1408Y196D01*
X1407Y195D01*
X1407Y195D01*
X1406Y195D01*
X1405Y194D01*
X1404Y193D01*
X1403Y193D01*
X1403D01*
X1403Y193D01*
X1403Y192D01*
X1402Y192D01*
X1402Y192D01*
X1401Y191D01*
X1400Y191D01*
X1399Y191D01*
X1398Y190D01*
Y195D01*
X1398D01*
X1398Y195D01*
X1399Y195D01*
X1399Y195D01*
X1399Y195D01*
X1400Y196D01*
X1401Y196D01*
X1402Y197D01*
X1403Y198D01*
X1404Y199D01*
X1405Y200D01*
X1405Y200D01*
X1405Y200D01*
X1406Y200D01*
X1406Y201D01*
X1407Y201D01*
X1408Y202D01*
X1408Y203D01*
X1409Y204D01*
X1410Y205D01*
X1413D01*
Y165D01*
D02*
G37*
G36*
X1590D02*
X1585D01*
X1581Y175D01*
X1568D01*
X1564Y165D01*
X1560D01*
X1572Y197D01*
X1577D01*
X1590Y165D01*
D02*
G37*
G36*
X1503Y197D02*
X1503Y197D01*
X1504Y197D01*
X1504Y197D01*
X1505Y197D01*
X1506Y196D01*
X1507Y196D01*
X1508Y196D01*
X1508Y195D01*
X1509Y195D01*
X1509Y194D01*
X1509Y194D01*
X1509Y194D01*
X1510Y194D01*
X1510Y194D01*
X1510Y194D01*
X1510Y193D01*
X1511Y193D01*
X1511Y192D01*
X1512Y191D01*
X1512Y189D01*
X1512Y189D01*
X1512Y188D01*
Y188D01*
Y188D01*
X1512Y187D01*
X1512Y187D01*
X1512Y186D01*
X1512Y186D01*
X1511Y185D01*
X1511Y184D01*
X1511Y184D01*
X1511Y184D01*
X1511Y184D01*
X1511Y183D01*
X1510Y183D01*
X1510Y182D01*
X1509Y181D01*
X1509Y180D01*
X1508Y180D01*
X1508Y180D01*
X1508Y180D01*
X1507Y179D01*
X1507Y179D01*
X1507Y179D01*
X1506Y178D01*
X1506Y178D01*
X1505Y177D01*
X1505Y177D01*
X1504Y176D01*
X1503Y176D01*
X1503Y175D01*
X1502Y175D01*
X1502Y175D01*
X1502Y175D01*
X1502Y174D01*
X1501Y174D01*
X1501Y173D01*
X1500Y173D01*
X1499Y172D01*
X1499Y171D01*
X1498Y171D01*
X1498Y171D01*
X1498Y171D01*
X1498Y171D01*
X1498Y170D01*
X1497Y170D01*
X1497Y170D01*
X1496Y169D01*
X1512D01*
Y165D01*
X1491D01*
Y165D01*
Y165D01*
Y166D01*
X1491Y166D01*
X1491Y166D01*
X1491Y167D01*
X1491Y167D01*
X1491Y168D01*
Y168D01*
X1491Y168D01*
X1492Y168D01*
X1492Y168D01*
X1492Y169D01*
X1492Y170D01*
X1493Y170D01*
X1493Y171D01*
X1494Y172D01*
Y172D01*
X1494Y172D01*
X1494Y172D01*
X1495Y173D01*
X1495Y173D01*
X1496Y174D01*
X1497Y175D01*
X1498Y176D01*
X1499Y177D01*
X1499Y177D01*
X1499Y177D01*
X1500Y177D01*
X1500Y177D01*
X1500Y178D01*
X1501Y178D01*
X1502Y179D01*
X1503Y180D01*
X1504Y181D01*
X1505Y182D01*
X1505Y182D01*
X1506Y183D01*
X1506Y183D01*
Y183D01*
X1506Y184D01*
X1506Y184D01*
X1506Y184D01*
X1507Y184D01*
X1507Y185D01*
X1507Y186D01*
X1508Y186D01*
X1508Y187D01*
X1508Y188D01*
Y188D01*
Y188D01*
X1508Y189D01*
X1508Y189D01*
X1508Y190D01*
X1508Y190D01*
X1507Y191D01*
X1507Y191D01*
X1506Y192D01*
X1506Y192D01*
X1506Y192D01*
X1506Y193D01*
X1505Y193D01*
X1504Y193D01*
X1504Y193D01*
X1503Y194D01*
X1502Y194D01*
X1502D01*
X1501Y194D01*
X1501Y194D01*
X1500Y194D01*
X1500Y193D01*
X1499Y193D01*
X1498Y193D01*
X1497Y192D01*
X1497Y192D01*
X1497Y192D01*
X1497Y191D01*
X1497Y191D01*
X1496Y190D01*
X1496Y189D01*
X1496Y188D01*
X1496Y187D01*
X1492Y188D01*
Y188D01*
Y188D01*
X1492Y188D01*
X1492Y188D01*
X1492Y189D01*
X1492Y189D01*
X1492Y190D01*
X1493Y191D01*
X1493Y192D01*
X1494Y194D01*
X1494Y194D01*
X1495Y195D01*
X1495Y195D01*
X1495Y195D01*
X1495Y195D01*
X1495Y195D01*
X1496Y195D01*
X1496Y195D01*
X1496Y196D01*
X1497Y196D01*
X1497Y196D01*
X1498Y196D01*
X1498Y196D01*
X1499Y197D01*
X1500Y197D01*
X1501Y197D01*
X1502Y197D01*
X1502D01*
X1503Y197D01*
D02*
G37*
G36*
X1308Y205D02*
X1309Y205D01*
X1310Y205D01*
X1311Y204D01*
X1312Y204D01*
X1313Y204D01*
X1313Y204D01*
X1313Y203D01*
X1314Y203D01*
X1314Y203D01*
X1315Y202D01*
X1316Y201D01*
X1316Y201D01*
X1317Y200D01*
X1317Y200D01*
X1317Y199D01*
X1317Y199D01*
X1318Y198D01*
X1318Y197D01*
X1319Y196D01*
X1319Y195D01*
X1319Y194D01*
Y194D01*
X1319Y194D01*
Y194D01*
X1319Y193D01*
X1320Y193D01*
X1320Y193D01*
X1320Y192D01*
X1320Y191D01*
X1320Y191D01*
X1320Y190D01*
X1320Y189D01*
X1320Y189D01*
X1320Y188D01*
Y187D01*
X1320Y185D01*
Y185D01*
Y184D01*
Y184D01*
Y183D01*
X1320Y183D01*
Y182D01*
X1320Y181D01*
X1320Y181D01*
X1320Y179D01*
X1320Y177D01*
X1319Y175D01*
X1319Y174D01*
X1319Y173D01*
Y173D01*
X1319Y173D01*
X1319Y173D01*
X1319Y173D01*
X1318Y172D01*
X1318Y172D01*
X1318Y171D01*
X1317Y170D01*
X1316Y169D01*
X1316Y168D01*
X1315Y167D01*
X1314D01*
X1314Y167D01*
X1314Y166D01*
X1314Y166D01*
X1313Y166D01*
X1313Y165D01*
X1312Y165D01*
X1310Y165D01*
X1309Y164D01*
X1307Y164D01*
X1307D01*
X1306Y164D01*
X1306Y164D01*
X1305Y165D01*
X1305Y165D01*
X1304Y165D01*
X1303Y165D01*
X1302Y166D01*
X1301Y166D01*
X1300Y167D01*
X1300Y167D01*
X1299Y168D01*
X1298Y168D01*
X1298Y168D01*
X1298Y169D01*
X1298Y169D01*
X1298Y169D01*
X1297Y170D01*
X1297Y171D01*
X1297Y171D01*
X1296Y172D01*
X1296Y173D01*
X1296Y175D01*
X1295Y176D01*
X1295Y177D01*
X1295Y179D01*
X1295Y181D01*
X1294Y183D01*
X1294Y185D01*
Y185D01*
Y185D01*
Y185D01*
Y186D01*
X1294Y186D01*
Y187D01*
X1295Y188D01*
X1295Y189D01*
X1295Y190D01*
X1295Y192D01*
X1295Y194D01*
X1296Y195D01*
X1296Y196D01*
Y196D01*
X1296Y196D01*
X1296Y196D01*
X1296Y197D01*
X1296Y197D01*
X1296Y197D01*
X1297Y198D01*
X1297Y199D01*
X1298Y201D01*
X1299Y202D01*
X1300Y203D01*
X1300D01*
X1300Y203D01*
X1300Y203D01*
X1301Y203D01*
X1301Y203D01*
X1302Y204D01*
X1303Y204D01*
X1304Y205D01*
X1306Y205D01*
X1307Y205D01*
X1308D01*
X1308Y205D01*
D02*
G37*
G36*
X1196D02*
X1197Y205D01*
X1197Y205D01*
X1198Y204D01*
X1199Y204D01*
X1200Y203D01*
X1201D01*
X1201Y203D01*
X1201Y203D01*
X1201Y203D01*
X1202Y203D01*
X1203Y202D01*
X1203Y201D01*
X1204Y201D01*
X1205Y200D01*
X1205Y200D01*
X1205Y199D01*
X1205Y199D01*
X1205Y198D01*
X1206Y197D01*
X1206Y197D01*
X1206Y196D01*
X1206Y195D01*
Y194D01*
Y194D01*
X1206Y194D01*
X1206Y193D01*
X1206Y192D01*
X1206Y192D01*
X1205Y191D01*
X1205Y190D01*
X1205Y190D01*
X1205Y190D01*
X1204Y189D01*
X1204Y189D01*
X1203Y188D01*
X1202Y188D01*
X1202Y187D01*
X1201Y187D01*
X1201D01*
X1201Y186D01*
X1201D01*
X1201Y186D01*
X1202Y186D01*
X1203Y186D01*
X1204Y185D01*
X1204Y185D01*
X1205Y184D01*
X1206Y183D01*
X1206Y183D01*
X1206Y183D01*
X1207Y182D01*
X1207Y181D01*
X1208Y180D01*
X1208Y179D01*
X1208Y178D01*
X1208Y177D01*
Y177D01*
Y176D01*
Y176D01*
X1208Y176D01*
X1208Y175D01*
X1208Y175D01*
X1208Y174D01*
X1208Y174D01*
X1207Y172D01*
X1207Y172D01*
X1206Y171D01*
X1206Y170D01*
X1206Y169D01*
X1205Y169D01*
X1204Y168D01*
X1204Y168D01*
X1204Y168D01*
X1204Y168D01*
X1204Y167D01*
X1203Y167D01*
X1203Y167D01*
X1202Y166D01*
X1202Y166D01*
X1201Y166D01*
X1200Y165D01*
X1200Y165D01*
X1199Y165D01*
X1198Y165D01*
X1197Y165D01*
X1196Y164D01*
X1195Y164D01*
X1194D01*
X1194Y164D01*
X1193Y164D01*
X1193Y165D01*
X1192Y165D01*
X1192Y165D01*
X1190Y165D01*
X1189Y166D01*
X1188Y166D01*
X1187Y166D01*
X1187Y167D01*
X1186Y167D01*
X1186Y167D01*
X1186Y168D01*
X1186Y168D01*
X1186Y168D01*
X1185Y168D01*
X1185Y169D01*
X1185Y169D01*
X1184Y170D01*
X1184Y171D01*
X1183Y172D01*
X1182Y174D01*
X1182Y175D01*
X1182Y176D01*
X1187Y176D01*
Y176D01*
X1187Y176D01*
Y176D01*
X1187Y176D01*
X1187Y175D01*
X1188Y174D01*
X1188Y173D01*
X1189Y172D01*
X1189Y171D01*
X1190Y170D01*
X1190Y170D01*
X1190Y170D01*
X1191Y170D01*
X1191Y169D01*
X1192Y169D01*
X1193Y169D01*
X1194Y168D01*
X1195Y168D01*
X1195D01*
X1195Y168D01*
X1196Y169D01*
X1197Y169D01*
X1198Y169D01*
X1199Y169D01*
X1200Y170D01*
X1201Y171D01*
X1201Y171D01*
X1201Y171D01*
X1201Y172D01*
X1202Y172D01*
X1202Y173D01*
X1203Y174D01*
X1203Y175D01*
X1203Y177D01*
Y177D01*
Y177D01*
Y177D01*
X1203Y177D01*
X1203Y178D01*
X1203Y179D01*
X1202Y179D01*
X1202Y180D01*
X1201Y181D01*
X1201Y182D01*
X1201Y182D01*
X1200Y183D01*
X1200Y183D01*
X1199Y183D01*
X1198Y184D01*
X1197Y184D01*
X1196Y184D01*
X1195Y184D01*
X1195D01*
X1194Y184D01*
X1194Y184D01*
X1193Y184D01*
X1192Y184D01*
X1192Y184D01*
X1192Y188D01*
X1193D01*
X1193Y188D01*
X1194D01*
X1194Y188D01*
X1195Y188D01*
X1196Y188D01*
X1197Y189D01*
X1198Y189D01*
X1199Y190D01*
X1199Y190D01*
X1199Y190D01*
X1199Y190D01*
X1200Y191D01*
X1200Y192D01*
X1201Y192D01*
X1201Y193D01*
X1201Y195D01*
Y195D01*
Y195D01*
Y195D01*
X1201Y196D01*
X1201Y196D01*
X1201Y197D01*
X1200Y198D01*
X1200Y198D01*
X1199Y199D01*
X1199Y199D01*
X1199Y199D01*
X1199Y200D01*
X1198Y200D01*
X1197Y200D01*
X1197Y201D01*
X1196Y201D01*
X1195Y201D01*
X1194D01*
X1194Y201D01*
X1193Y201D01*
X1192Y201D01*
X1191Y200D01*
X1191Y200D01*
X1190Y199D01*
X1190Y199D01*
X1190Y199D01*
X1189Y198D01*
X1189Y198D01*
X1189Y197D01*
X1188Y196D01*
X1188Y195D01*
X1188Y194D01*
X1183Y195D01*
Y195D01*
X1183Y195D01*
X1183Y195D01*
X1183Y195D01*
X1183Y196D01*
X1183Y196D01*
X1183Y197D01*
X1184Y199D01*
X1185Y200D01*
X1186Y201D01*
X1187Y202D01*
X1187Y202D01*
X1187Y202D01*
X1187Y202D01*
X1187Y203D01*
X1188Y203D01*
X1188Y203D01*
X1189Y204D01*
X1190Y204D01*
X1191Y205D01*
X1193Y205D01*
X1194Y205D01*
X1195D01*
X1196Y205D01*
D02*
G37*
G36*
X1392Y165D02*
X1386D01*
X1382Y177D01*
X1365D01*
X1361Y165D01*
X1355D01*
X1370Y205D01*
X1376D01*
X1392Y165D01*
D02*
G37*
G36*
X1292D02*
X1286D01*
X1282Y177D01*
X1265D01*
X1261Y165D01*
X1255D01*
X1270Y205D01*
X1276D01*
X1292Y165D01*
D02*
G37*
G36*
X2119Y113D02*
X2120Y113D01*
X2121Y113D01*
X2121Y113D01*
X2122Y113D01*
X2122D01*
X2122Y113D01*
X2123D01*
X2123Y113D01*
X2123Y113D01*
X2124Y112D01*
X2125Y112D01*
X2125Y112D01*
X2126Y111D01*
X2127Y111D01*
X2127D01*
X2127Y111D01*
X2127Y110D01*
X2128Y110D01*
X2128Y109D01*
X2129Y108D01*
X2130Y108D01*
X2130Y106D01*
X2131Y105D01*
Y105D01*
X2131Y105D01*
X2131Y105D01*
X2131Y105D01*
X2131Y104D01*
X2131Y104D01*
X2131Y104D01*
X2131Y103D01*
X2131Y103D01*
X2132Y102D01*
X2132Y101D01*
X2132Y99D01*
X2132Y98D01*
Y98D01*
Y98D01*
Y97D01*
Y97D01*
X2132Y97D01*
Y96D01*
X2132Y96D01*
X2132Y95D01*
X2132Y93D01*
X2131Y92D01*
X2131Y91D01*
Y91D01*
X2131Y91D01*
X2131Y91D01*
X2131Y91D01*
X2131Y90D01*
X2130Y90D01*
X2130Y89D01*
X2130Y88D01*
X2129Y87D01*
X2129Y87D01*
X2129Y87D01*
X2129Y86D01*
X2128Y86D01*
X2128Y86D01*
X2128Y85D01*
X2127Y85D01*
X2127Y84D01*
X2126Y84D01*
X2126Y84D01*
X2126Y84D01*
X2125Y83D01*
X2125Y83D01*
X2124Y83D01*
X2124Y83D01*
X2123Y82D01*
X2122Y82D01*
X2122D01*
X2122Y82D01*
X2121Y82D01*
X2121Y82D01*
X2120Y82D01*
X2119Y82D01*
X2118Y82D01*
X2117Y82D01*
X2106D01*
Y113D01*
X2118D01*
X2119Y113D01*
D02*
G37*
G36*
X1960Y587D02*
X1956D01*
Y592D01*
X1960D01*
Y587D01*
D02*
G37*
G36*
X1926D02*
X1922D01*
Y592D01*
X1926D01*
Y587D01*
D02*
G37*
G36*
X2028Y629D02*
X2028Y628D01*
X2029Y628D01*
X2029Y628D01*
X2030Y628D01*
X2031Y628D01*
X2032Y628D01*
X2032Y627D01*
X2033Y627D01*
X2034Y626D01*
X2034Y626D01*
X2035Y625D01*
X2035Y625D01*
X2035Y625D01*
X2035Y625D01*
X2035Y625D01*
X2035Y625D01*
X2036Y624D01*
X2036Y624D01*
X2036Y623D01*
X2037Y623D01*
X2037Y622D01*
X2037Y621D01*
X2037Y620D01*
X2038Y620D01*
X2038Y619D01*
X2038Y618D01*
X2038Y617D01*
Y617D01*
Y617D01*
Y616D01*
Y616D01*
X2038Y616D01*
Y615D01*
X2038Y615D01*
X2038Y614D01*
X2037Y613D01*
X2037Y612D01*
X2037Y611D01*
X2036Y610D01*
Y610D01*
X2036Y610D01*
X2036Y609D01*
X2036Y609D01*
X2035Y608D01*
X2035Y608D01*
X2034Y607D01*
X2033Y606D01*
X2033Y606D01*
X2032D01*
X2032Y606D01*
X2032Y606D01*
X2032Y606D01*
X2032Y605D01*
X2031Y605D01*
X2030Y605D01*
X2029Y605D01*
X2028Y605D01*
X2027Y604D01*
X2027D01*
X2026Y605D01*
X2026Y605D01*
X2025Y605D01*
X2025Y605D01*
X2024Y605D01*
X2023Y605D01*
X2022Y605D01*
X2022Y606D01*
X2021Y606D01*
X2020Y607D01*
X2020Y607D01*
X2019Y608D01*
X2019Y608D01*
X2019Y608D01*
X2019Y608D01*
X2019Y608D01*
X2018Y608D01*
X2018Y609D01*
X2018Y609D01*
X2018Y610D01*
X2017Y610D01*
X2017Y611D01*
X2017Y612D01*
X2017Y613D01*
X2017Y614D01*
X2016Y614D01*
X2016Y615D01*
X2016Y617D01*
Y617D01*
Y617D01*
X2016Y617D01*
Y618D01*
X2016Y618D01*
X2016Y619D01*
X2017Y619D01*
X2017Y620D01*
X2017Y621D01*
X2017Y622D01*
X2017Y622D01*
X2018Y623D01*
X2018Y624D01*
X2019Y625D01*
X2019Y625D01*
X2020Y626D01*
X2020Y626D01*
X2020Y626D01*
X2020Y626D01*
X2020Y626D01*
X2021Y627D01*
X2021Y627D01*
X2021Y627D01*
X2022Y627D01*
X2022Y628D01*
X2023Y628D01*
X2024Y628D01*
X2025Y628D01*
X2026Y629D01*
X2027Y629D01*
X2027D01*
X2028Y629D01*
D02*
G37*
G36*
X1946D02*
X1947Y628D01*
X1947Y628D01*
X1948Y628D01*
X1948Y628D01*
X1950Y628D01*
X1950Y628D01*
X1951Y627D01*
X1952Y627D01*
X1952Y626D01*
X1953Y626D01*
X1953Y625D01*
X1953Y625D01*
X1953Y625D01*
X1954Y625D01*
X1954Y625D01*
X1954Y625D01*
X1954Y624D01*
X1955Y624D01*
X1955Y623D01*
X1955Y623D01*
X1955Y622D01*
X1956Y621D01*
X1956Y620D01*
X1956Y620D01*
X1956Y619D01*
X1956Y618D01*
X1956Y617D01*
Y617D01*
Y617D01*
Y616D01*
Y616D01*
X1956Y616D01*
Y615D01*
X1956Y615D01*
X1956Y614D01*
X1956Y613D01*
X1956Y612D01*
X1955Y611D01*
X1955Y610D01*
Y610D01*
X1955Y610D01*
X1955Y609D01*
X1954Y609D01*
X1954Y608D01*
X1953Y608D01*
X1953Y607D01*
X1952Y606D01*
X1951Y606D01*
X1951D01*
X1951Y606D01*
X1951Y606D01*
X1951Y606D01*
X1950Y605D01*
X1949Y605D01*
X1949Y605D01*
X1948Y605D01*
X1947Y605D01*
X1946Y604D01*
X1945D01*
X1945Y605D01*
X1944Y605D01*
X1944Y605D01*
X1943Y605D01*
X1943Y605D01*
X1942Y605D01*
X1941Y605D01*
X1940Y606D01*
X1940Y606D01*
X1939Y607D01*
X1938Y607D01*
X1938Y608D01*
X1938Y608D01*
X1938Y608D01*
X1937Y608D01*
X1937Y608D01*
X1937Y608D01*
X1937Y609D01*
X1937Y609D01*
X1936Y610D01*
X1936Y610D01*
X1936Y611D01*
X1935Y612D01*
X1935Y613D01*
X1935Y614D01*
X1935Y614D01*
X1935Y615D01*
X1935Y617D01*
Y617D01*
Y617D01*
X1935Y617D01*
Y618D01*
X1935Y618D01*
X1935Y619D01*
X1935Y619D01*
X1935Y620D01*
X1935Y621D01*
X1936Y622D01*
X1936Y622D01*
X1936Y623D01*
X1937Y624D01*
X1937Y625D01*
X1938Y625D01*
X1938Y626D01*
X1938Y626D01*
X1938Y626D01*
X1939Y626D01*
X1939Y626D01*
X1939Y627D01*
X1940Y627D01*
X1940Y627D01*
X1940Y627D01*
X1941Y628D01*
X1941Y628D01*
X1943Y628D01*
X1944Y628D01*
X1945Y629D01*
X1946Y629D01*
X1946D01*
X1946Y629D01*
D02*
G37*
G36*
X1960Y560D02*
X1956D01*
Y583D01*
X1960D01*
Y560D01*
D02*
G37*
G36*
X1926D02*
X1922D01*
Y583D01*
X1926D01*
Y560D01*
D02*
G37*
G36*
X1943Y584D02*
X1944Y583D01*
X1944Y583D01*
X1945Y583D01*
X1945Y583D01*
X1946Y583D01*
X1946Y583D01*
X1946Y583D01*
X1947Y583D01*
X1947Y582D01*
X1948Y582D01*
X1948Y582D01*
X1948Y581D01*
X1949Y581D01*
X1949Y581D01*
X1949Y581D01*
X1949Y580D01*
X1949Y580D01*
X1949Y580D01*
X1950Y579D01*
X1950Y579D01*
X1950Y578D01*
Y578D01*
X1950Y578D01*
X1950Y577D01*
X1950Y577D01*
Y577D01*
X1950Y576D01*
X1950Y575D01*
Y574D01*
Y560D01*
X1946D01*
Y574D01*
Y574D01*
Y574D01*
Y574D01*
Y575D01*
X1946Y575D01*
X1946Y576D01*
X1946Y577D01*
X1946Y577D01*
X1946Y578D01*
Y578D01*
X1946Y578D01*
X1946Y578D01*
X1945Y578D01*
X1945Y579D01*
X1945Y579D01*
X1945Y579D01*
X1944Y579D01*
X1944Y580D01*
X1944Y580D01*
X1944Y580D01*
X1943Y580D01*
X1943Y580D01*
X1943Y580D01*
X1942Y580D01*
X1941Y580D01*
X1941D01*
X1941Y580D01*
X1940Y580D01*
X1939Y580D01*
X1939Y580D01*
X1938Y579D01*
X1937Y579D01*
X1937Y578D01*
X1937Y578D01*
X1937Y578D01*
X1936Y578D01*
X1936Y577D01*
X1936Y577D01*
X1936Y576D01*
X1936Y576D01*
X1936Y575D01*
X1936Y575D01*
X1935Y574D01*
X1935Y573D01*
Y573D01*
Y560D01*
X1931D01*
Y583D01*
X1935D01*
Y580D01*
X1935Y580D01*
X1935Y580D01*
X1935Y580D01*
X1935Y580D01*
X1936Y581D01*
X1936Y581D01*
X1936Y581D01*
X1937Y582D01*
X1937Y582D01*
X1938Y582D01*
X1938Y583D01*
X1939Y583D01*
X1940Y583D01*
X1941Y583D01*
X1941Y584D01*
X1942Y584D01*
X1943D01*
X1943Y584D01*
D02*
G37*
G36*
X1915Y560D02*
X1911D01*
Y587D01*
X1902Y560D01*
X1898D01*
X1889Y587D01*
Y560D01*
X1885D01*
Y592D01*
X1891D01*
X1899Y569D01*
Y569D01*
X1899Y569D01*
X1899Y569D01*
X1899Y569D01*
X1899Y568D01*
X1899Y568D01*
X1900Y567D01*
X1900Y566D01*
X1900Y565D01*
X1900Y565D01*
X1900Y565D01*
X1900Y565D01*
X1901Y565D01*
X1901Y566D01*
X1901Y567D01*
X1901Y567D01*
X1902Y568D01*
X1902Y570D01*
X1910Y592D01*
X1915D01*
Y560D01*
D02*
G37*
G36*
X1835Y605D02*
X1830D01*
X1826Y615D01*
X1813D01*
X1809Y605D01*
X1805D01*
X1817Y637D01*
X1822D01*
X1835Y605D01*
D02*
G37*
G36*
X1923Y629D02*
X1924Y628D01*
X1924Y628D01*
X1925Y628D01*
X1926Y628D01*
X1926Y628D01*
X1926Y628D01*
X1927Y628D01*
X1927Y628D01*
X1927Y627D01*
X1928Y627D01*
X1928Y627D01*
X1929Y626D01*
X1929Y626D01*
X1929Y626D01*
X1929Y626D01*
X1929Y625D01*
X1929Y625D01*
X1930Y625D01*
X1930Y624D01*
X1930Y624D01*
X1930Y623D01*
Y623D01*
X1930Y623D01*
X1930Y622D01*
X1930Y622D01*
Y622D01*
X1930Y621D01*
X1930Y620D01*
Y619D01*
Y605D01*
X1926D01*
Y619D01*
Y619D01*
Y619D01*
Y619D01*
Y620D01*
X1926Y620D01*
X1926Y621D01*
X1926Y622D01*
X1926Y622D01*
X1926Y623D01*
Y623D01*
X1926Y623D01*
X1926Y623D01*
X1926Y623D01*
X1925Y624D01*
X1925Y624D01*
X1925Y624D01*
X1924Y624D01*
X1924Y625D01*
X1924Y625D01*
X1924Y625D01*
X1924Y625D01*
X1923Y625D01*
X1923Y625D01*
X1922Y625D01*
X1922Y625D01*
X1921D01*
X1921Y625D01*
X1920Y625D01*
X1919Y625D01*
X1919Y625D01*
X1918Y624D01*
X1917Y624D01*
X1917Y623D01*
X1917Y623D01*
X1917Y623D01*
X1917Y623D01*
X1916Y622D01*
X1916Y622D01*
X1916Y621D01*
X1916Y621D01*
X1916Y620D01*
X1916Y620D01*
X1916Y619D01*
X1915Y618D01*
Y618D01*
Y605D01*
X1912D01*
Y628D01*
X1915D01*
Y625D01*
X1915Y625D01*
X1915Y625D01*
X1915Y625D01*
X1916Y625D01*
X1916Y626D01*
X1916Y626D01*
X1917Y626D01*
X1917Y627D01*
X1917Y627D01*
X1918Y627D01*
X1919Y628D01*
X1919Y628D01*
X1920Y628D01*
X1921Y628D01*
X1922Y629D01*
X1922Y629D01*
X1923D01*
X1923Y629D01*
D02*
G37*
G36*
X2012D02*
X2013Y628D01*
X2013Y628D01*
X2014Y628D01*
X2015Y628D01*
X2015Y627D01*
X2014Y624D01*
X2014Y624D01*
X2014Y624D01*
X2013Y624D01*
X2013Y624D01*
X2013Y624D01*
X2012Y624D01*
X2012Y625D01*
X2011Y625D01*
X2011D01*
X2011Y625D01*
X2010Y624D01*
X2010Y624D01*
X2010Y624D01*
X2009Y624D01*
X2009Y624D01*
X2009Y624D01*
X2009Y624D01*
X2009Y623D01*
X2008Y623D01*
X2008Y623D01*
X2008Y623D01*
X2008Y622D01*
X2007Y622D01*
X2007Y622D01*
X2007Y621D01*
X2007Y621D01*
X2007Y620D01*
X2007Y620D01*
X2007Y619D01*
X2007Y618D01*
X2007Y617D01*
Y605D01*
X2003D01*
Y628D01*
X2006D01*
Y625D01*
X2006Y625D01*
X2007Y625D01*
X2007Y625D01*
X2007Y626D01*
X2008Y626D01*
X2008Y627D01*
X2008Y627D01*
X2009Y628D01*
X2009Y628D01*
X2009Y628D01*
X2009Y628D01*
X2010Y628D01*
X2010Y628D01*
X2010Y628D01*
X2011Y629D01*
X2011Y629D01*
X2012D01*
X2012Y629D01*
D02*
G37*
G36*
X1906Y632D02*
X1902D01*
Y637D01*
X1906D01*
Y632D01*
D02*
G37*
G36*
X1871Y605D02*
X1867D01*
Y608D01*
X1867Y608D01*
X1867Y608D01*
X1867Y608D01*
X1867Y607D01*
X1867Y607D01*
X1866Y607D01*
X1866Y607D01*
X1866Y606D01*
X1865Y606D01*
X1865Y606D01*
X1864Y605D01*
X1864Y605D01*
X1863Y605D01*
X1862Y605D01*
X1862Y605D01*
X1861Y604D01*
X1861D01*
X1860Y605D01*
X1860Y605D01*
X1859Y605D01*
X1858Y605D01*
X1858Y605D01*
X1857Y605D01*
X1856Y606D01*
X1856D01*
X1856Y606D01*
X1855Y606D01*
X1855Y607D01*
X1854Y607D01*
X1854Y608D01*
X1853Y608D01*
X1853Y609D01*
X1852Y610D01*
Y610D01*
X1852Y610D01*
X1852Y610D01*
X1852Y611D01*
X1852Y611D01*
X1852Y611D01*
X1852Y612D01*
X1851Y613D01*
X1851Y614D01*
X1851Y615D01*
X1851Y616D01*
Y617D01*
Y617D01*
Y617D01*
Y617D01*
X1851Y617D01*
Y618D01*
X1851Y619D01*
X1851Y620D01*
X1851Y621D01*
X1852Y622D01*
X1852Y623D01*
Y623D01*
X1852Y623D01*
X1852Y623D01*
X1852Y623D01*
X1853Y624D01*
X1853Y624D01*
X1853Y625D01*
X1854Y626D01*
X1855Y626D01*
X1855Y627D01*
X1856D01*
X1856Y627D01*
X1856Y627D01*
X1856Y628D01*
X1857Y628D01*
X1858Y628D01*
X1859Y628D01*
X1860Y629D01*
X1861Y629D01*
X1861D01*
X1861Y629D01*
X1862Y628D01*
X1862Y628D01*
X1863Y628D01*
X1864Y628D01*
X1864Y628D01*
X1864Y628D01*
X1865Y628D01*
X1865Y627D01*
X1865Y627D01*
X1866Y627D01*
X1866Y626D01*
X1867Y626D01*
X1867Y625D01*
Y637D01*
X1871D01*
Y605D01*
D02*
G37*
G36*
X1988Y637D02*
X1988Y637D01*
X1989Y637D01*
X1990Y637D01*
X1991Y636D01*
X1991D01*
X1991Y636D01*
X1991Y636D01*
X1992Y636D01*
X1993Y636D01*
X1993Y636D01*
X1994Y635D01*
X1995Y635D01*
X1995Y635D01*
X1995Y635D01*
X1995Y635D01*
X1995Y634D01*
X1996Y634D01*
X1996Y633D01*
X1997Y633D01*
X1997Y632D01*
X1997Y632D01*
X1997Y632D01*
X1997Y631D01*
X1998Y631D01*
X1998Y630D01*
X1998Y629D01*
X1998Y628D01*
X1998Y628D01*
Y628D01*
Y627D01*
Y627D01*
X1998Y627D01*
X1998Y627D01*
X1998Y626D01*
X1998Y626D01*
X1998Y625D01*
X1997Y624D01*
X1997Y623D01*
X1997Y622D01*
X1996Y622D01*
X1996Y621D01*
X1995Y621D01*
X1995Y621D01*
X1995Y621D01*
X1995Y620D01*
X1995Y620D01*
X1995Y620D01*
X1994Y620D01*
X1994Y620D01*
X1993Y619D01*
X1993Y619D01*
X1992Y619D01*
X1991Y619D01*
X1990Y618D01*
X1990Y618D01*
X1988Y618D01*
X1987Y618D01*
X1986Y618D01*
X1978D01*
Y605D01*
X1974D01*
Y637D01*
X1987D01*
X1988Y637D01*
D02*
G37*
G36*
X1906Y605D02*
X1902D01*
Y628D01*
X1906D01*
Y605D01*
D02*
G37*
G36*
X1847Y629D02*
X1847Y628D01*
X1848Y628D01*
X1849Y628D01*
X1849Y628D01*
X1850Y627D01*
X1849Y624D01*
X1849Y624D01*
X1848Y624D01*
X1848Y624D01*
X1848Y624D01*
X1847Y624D01*
X1847Y624D01*
X1846Y625D01*
X1846Y625D01*
X1846D01*
X1845Y625D01*
X1845Y624D01*
X1845Y624D01*
X1844Y624D01*
X1844Y624D01*
X1844Y624D01*
X1843Y624D01*
X1843Y624D01*
X1843Y623D01*
X1843Y623D01*
X1843Y623D01*
X1843Y623D01*
X1842Y622D01*
X1842Y622D01*
X1842Y622D01*
X1842Y621D01*
X1842Y621D01*
X1842Y620D01*
X1842Y620D01*
X1842Y619D01*
X1842Y618D01*
X1841Y617D01*
Y605D01*
X1838D01*
Y628D01*
X1841D01*
Y625D01*
X1841Y625D01*
X1841Y625D01*
X1842Y625D01*
X1842Y626D01*
X1842Y626D01*
X1843Y627D01*
X1843Y627D01*
X1844Y628D01*
X1844Y628D01*
X1844Y628D01*
X1844Y628D01*
X1844Y628D01*
X1845Y628D01*
X1845Y628D01*
X1846Y629D01*
X1846Y629D01*
X1846D01*
X1847Y629D01*
D02*
G37*
G36*
X1896Y605D02*
X1892D01*
Y608D01*
X1892Y608D01*
X1892Y608D01*
X1892Y608D01*
X1892Y608D01*
X1891Y607D01*
X1891Y607D01*
X1891Y607D01*
X1890Y606D01*
X1890Y606D01*
X1889Y606D01*
X1889Y605D01*
X1888Y605D01*
X1887Y605D01*
X1886Y605D01*
X1886Y605D01*
X1885Y604D01*
X1884D01*
X1884Y605D01*
X1884Y605D01*
X1883Y605D01*
X1882Y605D01*
X1882Y605D01*
X1881Y605D01*
X1881Y605D01*
X1881Y605D01*
X1880Y606D01*
X1880Y606D01*
X1880Y606D01*
X1879Y606D01*
X1879Y607D01*
X1878Y607D01*
X1878Y607D01*
X1878Y607D01*
X1878Y608D01*
X1878Y608D01*
X1878Y608D01*
X1878Y609D01*
X1877Y609D01*
X1877Y610D01*
Y610D01*
X1877Y610D01*
Y611D01*
X1877Y611D01*
X1877Y611D01*
Y612D01*
X1877Y613D01*
Y614D01*
Y628D01*
X1881D01*
Y615D01*
Y615D01*
Y615D01*
Y615D01*
Y615D01*
Y614D01*
X1881Y614D01*
Y613D01*
X1881Y612D01*
X1881Y612D01*
X1881Y611D01*
Y611D01*
X1881Y611D01*
X1881Y611D01*
X1881Y610D01*
X1882Y610D01*
X1882Y609D01*
X1882Y609D01*
X1883Y609D01*
X1883Y609D01*
X1883Y609D01*
X1883Y608D01*
X1883Y608D01*
X1884Y608D01*
X1884Y608D01*
X1885Y608D01*
X1886Y608D01*
X1886D01*
X1886Y608D01*
X1887Y608D01*
X1887Y608D01*
X1888Y608D01*
X1888Y608D01*
X1889Y609D01*
X1889Y609D01*
X1889Y609D01*
X1889Y609D01*
X1890Y609D01*
X1890Y610D01*
X1890Y610D01*
X1891Y611D01*
X1891Y611D01*
X1891Y611D01*
X1891Y611D01*
X1891Y612D01*
X1891Y612D01*
X1891Y613D01*
X1892Y614D01*
X1892Y615D01*
X1892Y616D01*
Y628D01*
X1896D01*
Y605D01*
D02*
G37*
G36*
X1960Y197D02*
X1961D01*
X1962Y197D01*
X1963Y197D01*
X1964Y196D01*
X1965Y196D01*
X1965Y196D01*
X1966Y196D01*
X1966D01*
X1966Y196D01*
X1966Y196D01*
X1966Y196D01*
X1967Y195D01*
X1967Y195D01*
X1968Y194D01*
X1969Y194D01*
X1969Y193D01*
X1969Y193D01*
X1969Y192D01*
X1969Y192D01*
X1970Y191D01*
X1970Y191D01*
X1970Y190D01*
X1970Y189D01*
X1970Y188D01*
Y188D01*
Y188D01*
Y188D01*
X1970Y188D01*
Y187D01*
X1970Y187D01*
X1970Y186D01*
X1970Y185D01*
X1969Y184D01*
X1969Y183D01*
X1969Y183D01*
X1968Y182D01*
X1968Y182D01*
X1968Y182D01*
X1968Y182D01*
X1968Y182D01*
X1967Y182D01*
X1967Y181D01*
X1967Y181D01*
X1966Y181D01*
X1966Y181D01*
X1965Y180D01*
X1964Y180D01*
X1964Y180D01*
X1963Y180D01*
X1962Y180D01*
X1961Y179D01*
X1962Y179D01*
X1962Y179D01*
X1962Y179D01*
X1962Y179D01*
X1963Y178D01*
X1964Y178D01*
X1964Y178D01*
X1964Y178D01*
X1964Y178D01*
X1965Y177D01*
X1965Y177D01*
X1966Y176D01*
X1966Y175D01*
X1967Y175D01*
X1967Y174D01*
X1973Y165D01*
X1968D01*
X1963Y172D01*
Y172D01*
X1963Y172D01*
X1963Y172D01*
X1963Y172D01*
X1963Y173D01*
X1962Y173D01*
X1962Y174D01*
X1961Y175D01*
X1961Y175D01*
X1960Y176D01*
X1960Y176D01*
X1960Y176D01*
X1960Y176D01*
X1960Y177D01*
X1959Y177D01*
X1959Y178D01*
X1958Y178D01*
X1958Y178D01*
X1958Y178D01*
X1958Y178D01*
X1958Y178D01*
X1957Y179D01*
X1956Y179D01*
X1956D01*
X1956Y179D01*
X1956D01*
X1956Y179D01*
X1956Y179D01*
X1955D01*
X1955Y179D01*
X1949D01*
Y165D01*
X1945D01*
Y197D01*
X1960D01*
X1960Y197D01*
D02*
G37*
G36*
X2003Y165D02*
X1998D01*
X1995Y175D01*
X1981D01*
X1978Y165D01*
X1974D01*
X1986Y197D01*
X1990D01*
X2003Y165D01*
D02*
G37*
G36*
X2036D02*
X2032D01*
X2025Y189D01*
Y189D01*
X2025Y189D01*
X2025Y189D01*
X2025Y190D01*
X2025Y190D01*
X2025Y191D01*
X2024Y191D01*
X2024Y192D01*
X2024Y193D01*
X2024Y193D01*
X2024Y193D01*
Y193D01*
X2024Y193D01*
X2024Y192D01*
X2024Y192D01*
X2024Y191D01*
X2023Y190D01*
X2023Y190D01*
X2023Y189D01*
X2016Y165D01*
X2012D01*
X2004Y197D01*
X2008D01*
X2013Y176D01*
Y176D01*
X2013Y176D01*
X2013Y176D01*
X2013Y175D01*
X2013Y175D01*
X2013Y175D01*
X2013Y174D01*
X2013Y173D01*
X2014Y172D01*
X2014Y171D01*
X2014Y169D01*
Y169D01*
X2014Y170D01*
X2014Y170D01*
X2014Y170D01*
X2014Y171D01*
X2015Y171D01*
X2015Y172D01*
X2015Y173D01*
X2015Y174D01*
X2015Y174D01*
X2016Y175D01*
X2016Y175D01*
X2016Y175D01*
X2022Y197D01*
X2027D01*
X2031Y181D01*
Y181D01*
X2031Y180D01*
X2031Y180D01*
X2032Y180D01*
X2032Y179D01*
X2032Y179D01*
X2032Y178D01*
X2032Y177D01*
X2032Y176D01*
X2033Y175D01*
X2033Y173D01*
X2033Y171D01*
X2034Y169D01*
Y169D01*
X2034Y170D01*
Y170D01*
X2034Y170D01*
X2034Y170D01*
X2034Y171D01*
X2034Y171D01*
X2034Y171D01*
X2034Y172D01*
X2035Y174D01*
X2035Y175D01*
X2035Y176D01*
X2040Y197D01*
X2045D01*
X2036Y165D01*
D02*
G37*
G36*
X1185Y675D02*
X1185D01*
X1186Y675D01*
X1187Y675D01*
X1188Y674D01*
X1189Y674D01*
X1191Y673D01*
X1191Y673D01*
X1192Y672D01*
X1192D01*
X1192Y672D01*
X1192Y672D01*
X1193Y671D01*
X1194Y670D01*
X1194Y669D01*
X1195Y668D01*
X1195Y667D01*
X1196Y665D01*
X1191Y665D01*
Y665D01*
Y665D01*
X1191Y665D01*
X1190Y666D01*
X1190Y666D01*
X1190Y668D01*
X1189Y668D01*
X1189Y669D01*
X1189Y669D01*
X1189Y669D01*
X1188Y669D01*
X1188Y670D01*
X1187Y670D01*
X1186Y671D01*
X1185Y671D01*
X1184Y671D01*
X1184D01*
X1183Y671D01*
X1183Y671D01*
X1182Y671D01*
X1181Y670D01*
X1181Y670D01*
X1180Y670D01*
X1180Y670D01*
X1179Y669D01*
X1179Y669D01*
X1179Y668D01*
X1178Y668D01*
X1177Y667D01*
X1177Y666D01*
X1176Y665D01*
Y665D01*
X1176Y665D01*
X1176Y664D01*
X1176Y664D01*
X1176Y664D01*
X1176Y663D01*
X1176Y663D01*
X1176Y662D01*
X1175Y662D01*
X1175Y661D01*
X1175Y660D01*
X1175Y659D01*
X1175Y659D01*
X1175Y658D01*
X1175Y657D01*
Y656D01*
X1175Y656D01*
X1175Y656D01*
X1176Y656D01*
X1176Y657D01*
X1177Y658D01*
X1177Y658D01*
X1178Y659D01*
X1179Y659D01*
X1179Y660D01*
X1180Y660D01*
X1180Y660D01*
X1181Y660D01*
X1182Y660D01*
X1182Y661D01*
X1183Y661D01*
X1184Y661D01*
X1185D01*
X1185Y661D01*
X1186Y661D01*
X1186Y661D01*
X1187Y660D01*
X1189Y660D01*
X1189Y660D01*
X1190Y659D01*
X1191Y659D01*
X1191Y658D01*
X1192Y658D01*
X1193Y657D01*
X1193Y657D01*
X1193Y657D01*
X1193Y657D01*
X1193Y656D01*
X1194Y656D01*
X1194Y656D01*
X1194Y655D01*
X1195Y655D01*
X1195Y654D01*
X1195Y653D01*
X1195Y653D01*
X1196Y652D01*
X1196Y651D01*
X1196Y650D01*
X1196Y649D01*
X1196Y648D01*
Y648D01*
Y648D01*
Y648D01*
Y647D01*
X1196Y647D01*
Y647D01*
X1196Y646D01*
X1196Y645D01*
X1196Y643D01*
X1195Y642D01*
X1195Y641D01*
Y641D01*
X1195Y641D01*
X1194Y641D01*
X1194Y640D01*
X1194Y640D01*
X1193Y639D01*
X1193Y638D01*
X1192Y638D01*
X1191Y637D01*
X1190Y636D01*
X1190Y636D01*
X1190Y636D01*
X1189Y635D01*
X1188Y635D01*
X1187Y635D01*
X1186Y635D01*
X1185Y634D01*
X1184Y634D01*
X1184D01*
X1183Y634D01*
X1183D01*
X1182Y634D01*
X1182Y635D01*
X1181Y635D01*
X1180Y635D01*
X1179Y635D01*
X1179Y635D01*
X1178Y636D01*
X1177Y636D01*
X1176Y637D01*
X1175Y637D01*
X1175Y638D01*
X1174Y639D01*
X1174Y639D01*
X1174Y639D01*
X1173Y639D01*
X1173Y640D01*
X1173Y640D01*
X1173Y641D01*
X1172Y641D01*
X1172Y642D01*
X1172Y643D01*
X1171Y644D01*
X1171Y646D01*
X1171Y647D01*
X1170Y648D01*
X1170Y650D01*
X1170Y652D01*
X1170Y654D01*
Y654D01*
Y654D01*
Y654D01*
Y654D01*
Y655D01*
X1170Y655D01*
X1170Y656D01*
X1170Y658D01*
X1170Y659D01*
X1171Y660D01*
X1171Y661D01*
X1171Y663D01*
X1171Y664D01*
X1172Y665D01*
X1172Y667D01*
X1173Y668D01*
X1174Y669D01*
X1174Y670D01*
X1174Y670D01*
X1174Y671D01*
X1175Y671D01*
X1175Y671D01*
X1175Y671D01*
X1176Y672D01*
X1176Y672D01*
X1177Y673D01*
X1178Y673D01*
X1178Y673D01*
X1179Y674D01*
X1180Y674D01*
X1181Y675D01*
X1182Y675D01*
X1183Y675D01*
X1184Y675D01*
X1185D01*
X1185Y675D01*
D02*
G37*
G36*
X1906Y165D02*
X1901D01*
X1885Y190D01*
Y165D01*
X1881D01*
Y197D01*
X1885D01*
X1902Y172D01*
Y197D01*
X1906D01*
Y165D01*
D02*
G37*
G36*
X1862Y197D02*
X1862D01*
X1863Y197D01*
X1864Y197D01*
X1865Y197D01*
X1866Y197D01*
X1867Y196D01*
X1867D01*
X1867Y196D01*
X1867Y196D01*
X1868Y196D01*
X1868Y196D01*
X1869Y195D01*
X1869Y195D01*
X1870Y194D01*
X1871Y194D01*
X1871Y193D01*
X1872Y193D01*
X1872Y193D01*
X1872Y192D01*
X1872Y192D01*
X1873Y191D01*
X1873Y190D01*
X1874Y189D01*
X1874Y188D01*
X1870Y187D01*
Y187D01*
X1870Y187D01*
X1870Y187D01*
X1870Y188D01*
X1870Y188D01*
X1869Y189D01*
X1869Y189D01*
X1869Y190D01*
X1868Y191D01*
X1868Y191D01*
X1868Y191D01*
X1868Y191D01*
X1868Y191D01*
X1867Y192D01*
X1867Y192D01*
X1866Y193D01*
X1865Y193D01*
X1865Y193D01*
X1865Y193D01*
X1865Y193D01*
X1864Y193D01*
X1863Y193D01*
X1863Y194D01*
X1862Y194D01*
X1861Y194D01*
X1860D01*
X1860Y194D01*
X1859Y194D01*
X1858Y194D01*
X1858Y193D01*
X1857Y193D01*
X1856Y193D01*
X1856Y193D01*
X1856Y193D01*
X1855Y192D01*
X1855Y192D01*
X1854Y192D01*
X1854Y191D01*
X1853Y191D01*
X1853Y191D01*
X1853Y190D01*
X1852Y190D01*
X1852Y190D01*
X1852Y190D01*
X1851Y189D01*
X1851Y189D01*
X1851Y188D01*
X1851Y187D01*
Y187D01*
X1851Y187D01*
X1850Y187D01*
X1850Y187D01*
X1850Y187D01*
X1850Y186D01*
X1850Y185D01*
X1850Y185D01*
X1850Y183D01*
X1849Y182D01*
X1849Y181D01*
Y181D01*
Y181D01*
Y181D01*
X1849Y180D01*
Y180D01*
X1849Y179D01*
X1850Y179D01*
X1850Y179D01*
X1850Y177D01*
X1850Y176D01*
X1850Y175D01*
X1851Y174D01*
Y174D01*
X1851Y174D01*
X1851Y174D01*
X1851Y173D01*
X1851Y173D01*
X1852Y172D01*
X1852Y172D01*
X1853Y171D01*
X1854Y170D01*
X1855Y170D01*
X1855D01*
X1855Y170D01*
X1855Y169D01*
X1856Y169D01*
X1856Y169D01*
X1856Y169D01*
X1857Y169D01*
X1858Y169D01*
X1859Y168D01*
X1860Y168D01*
X1861Y168D01*
X1861D01*
X1862Y168D01*
X1863Y168D01*
X1863Y168D01*
X1864Y169D01*
X1865Y169D01*
X1866Y169D01*
X1866D01*
X1866Y169D01*
X1867Y169D01*
X1867Y169D01*
X1867Y170D01*
X1868Y170D01*
X1868Y170D01*
X1869Y171D01*
X1870Y171D01*
X1870Y171D01*
Y177D01*
X1861D01*
Y181D01*
X1874D01*
Y169D01*
X1874Y169D01*
X1874Y169D01*
X1874Y169D01*
X1874Y169D01*
X1874Y169D01*
X1873Y169D01*
X1872Y168D01*
X1871Y167D01*
X1870Y167D01*
X1869Y166D01*
X1868Y166D01*
X1868D01*
X1868Y166D01*
X1868Y166D01*
X1867Y165D01*
X1867Y165D01*
X1867Y165D01*
X1866Y165D01*
X1866Y165D01*
X1865Y165D01*
X1864Y165D01*
X1862Y165D01*
X1861Y164D01*
X1861D01*
X1860Y165D01*
X1860D01*
X1860Y165D01*
X1859Y165D01*
X1858Y165D01*
X1857Y165D01*
X1856Y165D01*
X1854Y166D01*
X1853Y166D01*
X1853Y167D01*
X1853Y167D01*
X1852Y167D01*
X1852Y167D01*
X1852Y167D01*
X1851Y167D01*
X1851Y168D01*
X1850Y169D01*
X1849Y170D01*
X1848Y171D01*
X1847Y172D01*
Y172D01*
X1847Y172D01*
X1847Y173D01*
X1847Y173D01*
X1847Y173D01*
X1846Y174D01*
X1846Y174D01*
X1846Y175D01*
X1846Y175D01*
X1846Y176D01*
X1845Y177D01*
X1845Y179D01*
X1845Y181D01*
Y181D01*
Y181D01*
Y181D01*
X1845Y182D01*
Y182D01*
X1845Y182D01*
X1845Y183D01*
X1845Y184D01*
X1845Y185D01*
X1846Y186D01*
X1846Y188D01*
X1847Y189D01*
Y189D01*
X1847Y190D01*
X1847Y190D01*
X1847Y190D01*
X1848Y190D01*
X1848Y191D01*
X1848Y192D01*
X1849Y193D01*
X1850Y194D01*
X1851Y195D01*
X1852Y195D01*
X1853Y195D01*
X1853D01*
X1853Y195D01*
X1853Y196D01*
X1853Y196D01*
X1853Y196D01*
X1854Y196D01*
X1854Y196D01*
X1855Y196D01*
X1856Y197D01*
X1856Y197D01*
X1858Y197D01*
X1859Y197D01*
X1861Y197D01*
X1861D01*
X1862Y197D01*
D02*
G37*
G36*
X1294Y669D02*
X1279D01*
X1276Y659D01*
X1276Y659D01*
X1277Y659D01*
X1277Y659D01*
X1277Y659D01*
X1277Y659D01*
X1278Y660D01*
X1279Y660D01*
X1280Y661D01*
X1281Y661D01*
X1282Y661D01*
X1284Y661D01*
X1284D01*
X1285Y661D01*
X1285Y661D01*
X1286Y661D01*
X1286Y661D01*
X1287Y661D01*
X1288Y660D01*
X1289Y660D01*
X1290Y660D01*
X1291Y659D01*
X1291Y659D01*
X1292Y658D01*
X1293Y658D01*
X1293Y658D01*
X1293Y658D01*
X1293Y657D01*
X1293Y657D01*
X1294Y657D01*
X1294Y656D01*
X1294Y656D01*
X1295Y655D01*
X1295Y655D01*
X1295Y654D01*
X1295Y653D01*
X1296Y652D01*
X1296Y651D01*
X1296Y650D01*
X1296Y649D01*
X1296Y648D01*
Y648D01*
Y648D01*
Y648D01*
X1296Y648D01*
X1296Y647D01*
X1296Y646D01*
X1296Y646D01*
X1296Y645D01*
X1296Y644D01*
X1295Y642D01*
X1295Y641D01*
X1294Y641D01*
X1294Y640D01*
X1293Y639D01*
X1293Y639D01*
X1293Y639D01*
X1293Y639D01*
X1292Y638D01*
X1292Y638D01*
X1292Y638D01*
X1291Y637D01*
X1290Y637D01*
X1290Y636D01*
X1289Y636D01*
X1288Y635D01*
X1287Y635D01*
X1286Y635D01*
X1285Y635D01*
X1284Y634D01*
X1283Y634D01*
X1282D01*
X1282Y634D01*
X1281Y634D01*
X1281Y635D01*
X1280Y635D01*
X1280Y635D01*
X1278Y635D01*
X1277Y636D01*
X1276Y636D01*
X1275Y636D01*
X1275Y637D01*
X1274Y637D01*
X1274Y637D01*
X1274Y637D01*
X1274Y638D01*
X1273Y638D01*
X1273Y638D01*
X1273Y639D01*
X1272Y639D01*
X1272Y639D01*
X1271Y641D01*
X1271Y642D01*
X1270Y644D01*
X1270Y644D01*
X1270Y645D01*
X1275Y646D01*
Y646D01*
Y646D01*
X1275Y645D01*
X1275Y645D01*
X1275Y644D01*
X1276Y644D01*
X1276Y643D01*
X1276Y642D01*
X1277Y641D01*
X1278Y640D01*
X1278Y640D01*
X1278Y640D01*
X1279Y640D01*
X1279Y639D01*
X1280Y639D01*
X1281Y639D01*
X1282Y638D01*
X1283Y638D01*
X1283D01*
X1283Y638D01*
X1284Y638D01*
X1285Y639D01*
X1286Y639D01*
X1287Y639D01*
X1288Y640D01*
X1288Y640D01*
X1289Y641D01*
Y641D01*
X1289Y641D01*
X1289Y641D01*
X1289Y642D01*
X1290Y643D01*
X1290Y644D01*
X1291Y645D01*
X1291Y646D01*
X1291Y648D01*
Y648D01*
Y648D01*
Y648D01*
X1291Y649D01*
Y649D01*
X1291Y649D01*
X1291Y650D01*
X1291Y651D01*
X1290Y653D01*
X1290Y654D01*
X1289Y655D01*
X1289Y655D01*
X1288Y655D01*
X1288Y655D01*
X1287Y656D01*
X1286Y656D01*
X1285Y657D01*
X1284Y657D01*
X1283Y657D01*
X1282D01*
X1282Y657D01*
X1281Y657D01*
X1281Y657D01*
X1280Y657D01*
X1279Y656D01*
X1278Y656D01*
X1278Y656D01*
X1278Y656D01*
X1278Y655D01*
X1277Y655D01*
X1277Y655D01*
X1276Y654D01*
X1276Y654D01*
X1275Y653D01*
X1271Y654D01*
X1275Y674D01*
X1294D01*
Y669D01*
D02*
G37*
G36*
X1657Y672D02*
X1657D01*
X1658Y672D01*
X1659Y672D01*
X1660Y672D01*
X1661Y672D01*
X1662Y671D01*
X1662D01*
X1662Y671D01*
X1662Y671D01*
X1663Y671D01*
X1663Y671D01*
X1664Y670D01*
X1664Y670D01*
X1665Y669D01*
X1666Y669D01*
X1666Y668D01*
X1667Y668D01*
X1667Y668D01*
X1667Y667D01*
X1667Y667D01*
X1668Y666D01*
X1668Y665D01*
X1669Y664D01*
X1669Y663D01*
X1665Y662D01*
Y662D01*
X1665Y662D01*
X1665Y662D01*
X1665Y663D01*
X1665Y663D01*
X1664Y664D01*
X1664Y664D01*
X1664Y665D01*
X1663Y666D01*
X1663Y666D01*
X1663Y666D01*
X1663Y666D01*
X1663Y666D01*
X1662Y667D01*
X1662Y667D01*
X1661Y668D01*
X1660Y668D01*
X1660Y668D01*
X1660Y668D01*
X1660Y668D01*
X1659Y668D01*
X1658Y668D01*
X1658Y669D01*
X1657Y669D01*
X1656Y669D01*
X1655D01*
X1655Y669D01*
X1654Y669D01*
X1653Y669D01*
X1653Y668D01*
X1652Y668D01*
X1651Y668D01*
X1651Y668D01*
X1651Y668D01*
X1650Y667D01*
X1650Y667D01*
X1649Y667D01*
X1649Y666D01*
X1648Y666D01*
X1648Y666D01*
X1648Y665D01*
X1647Y665D01*
X1647Y665D01*
X1647Y665D01*
X1646Y664D01*
X1646Y664D01*
X1646Y663D01*
X1646Y662D01*
Y662D01*
X1646Y662D01*
X1645Y662D01*
X1645Y662D01*
X1645Y662D01*
X1645Y661D01*
X1645Y660D01*
X1645Y660D01*
X1645Y658D01*
X1644Y657D01*
X1644Y656D01*
Y656D01*
Y656D01*
Y656D01*
X1644Y655D01*
Y655D01*
X1644Y654D01*
X1645Y654D01*
X1645Y654D01*
X1645Y652D01*
X1645Y651D01*
X1645Y650D01*
X1646Y649D01*
Y649D01*
X1646Y649D01*
X1646Y649D01*
X1646Y648D01*
X1646Y648D01*
X1647Y647D01*
X1647Y647D01*
X1648Y646D01*
X1649Y645D01*
X1650Y645D01*
X1650D01*
X1650Y645D01*
X1650Y644D01*
X1651Y644D01*
X1651Y644D01*
X1651Y644D01*
X1652Y644D01*
X1653Y644D01*
X1654Y643D01*
X1655Y643D01*
X1656Y643D01*
X1656D01*
X1657Y643D01*
X1658Y643D01*
X1658Y643D01*
X1659Y644D01*
X1660Y644D01*
X1661Y644D01*
X1661D01*
X1661Y644D01*
X1662Y644D01*
X1662Y644D01*
X1662Y645D01*
X1663Y645D01*
X1663Y645D01*
X1664Y646D01*
X1665Y646D01*
X1665Y646D01*
Y652D01*
X1656D01*
Y656D01*
X1669D01*
Y644D01*
X1669Y644D01*
X1669Y644D01*
X1669Y644D01*
X1669Y644D01*
X1669Y644D01*
X1668Y644D01*
X1667Y643D01*
X1666Y642D01*
X1665Y642D01*
X1664Y641D01*
X1663Y641D01*
X1663D01*
X1663Y641D01*
X1663Y641D01*
X1662Y640D01*
X1662Y640D01*
X1662Y640D01*
X1661Y640D01*
X1661Y640D01*
X1660Y640D01*
X1659Y640D01*
X1657Y640D01*
X1656Y639D01*
X1656D01*
X1655Y640D01*
X1655D01*
X1655Y640D01*
X1654Y640D01*
X1653Y640D01*
X1652Y640D01*
X1651Y640D01*
X1649Y641D01*
X1648Y641D01*
X1648Y641D01*
X1648Y642D01*
X1647Y642D01*
X1647Y642D01*
X1647Y642D01*
X1646Y642D01*
X1646Y643D01*
X1645Y644D01*
X1644Y645D01*
X1643Y646D01*
X1642Y647D01*
Y647D01*
X1642Y647D01*
X1642Y648D01*
X1642Y648D01*
X1641Y648D01*
X1641Y649D01*
X1641Y649D01*
X1641Y650D01*
X1641Y650D01*
X1641Y651D01*
X1640Y652D01*
X1640Y654D01*
X1640Y656D01*
Y656D01*
Y656D01*
Y656D01*
X1640Y657D01*
Y657D01*
X1640Y657D01*
X1640Y658D01*
X1640Y659D01*
X1640Y660D01*
X1641Y661D01*
X1641Y663D01*
X1642Y664D01*
Y664D01*
X1642Y665D01*
X1642Y665D01*
X1642Y665D01*
X1643Y665D01*
X1643Y666D01*
X1643Y667D01*
X1644Y668D01*
X1645Y669D01*
X1646Y670D01*
X1647Y670D01*
X1648Y670D01*
X1648D01*
X1648Y670D01*
X1648Y671D01*
X1648Y671D01*
X1648Y671D01*
X1649Y671D01*
X1649Y671D01*
X1650Y671D01*
X1651Y672D01*
X1651Y672D01*
X1653Y672D01*
X1654Y672D01*
X1656Y672D01*
X1656D01*
X1657Y672D01*
D02*
G37*
G36*
X1587Y678D02*
X1587Y678D01*
X1588Y678D01*
X1588Y678D01*
X1589Y678D01*
X1590Y677D01*
X1591Y677D01*
X1592Y677D01*
X1592Y676D01*
X1593Y676D01*
X1593Y675D01*
X1593Y675D01*
X1593Y675D01*
X1594Y675D01*
X1594Y675D01*
X1594Y675D01*
X1594Y674D01*
X1595Y674D01*
X1595Y673D01*
X1596Y672D01*
X1596Y670D01*
X1596Y670D01*
X1596Y669D01*
Y669D01*
Y669D01*
X1596Y668D01*
X1596Y668D01*
X1596Y667D01*
X1596Y667D01*
X1596Y666D01*
X1595Y665D01*
X1595Y665D01*
X1595Y665D01*
X1595Y665D01*
X1595Y664D01*
X1594Y664D01*
X1594Y663D01*
X1593Y662D01*
X1593Y661D01*
X1593Y661D01*
X1592Y661D01*
X1592Y661D01*
X1592Y660D01*
X1591Y660D01*
X1591Y660D01*
X1590Y659D01*
X1590Y659D01*
X1589Y658D01*
X1589Y658D01*
X1588Y657D01*
X1587Y657D01*
X1587Y656D01*
X1587Y656D01*
X1586Y656D01*
X1586Y656D01*
X1586Y655D01*
X1585Y655D01*
X1585Y654D01*
X1584Y654D01*
X1583Y653D01*
X1583Y652D01*
X1582Y652D01*
X1582Y652D01*
X1582Y652D01*
X1582Y652D01*
X1582Y651D01*
X1582Y651D01*
X1581Y651D01*
X1580Y650D01*
X1596D01*
Y646D01*
X1575D01*
Y646D01*
Y646D01*
Y647D01*
X1575Y647D01*
X1575Y647D01*
X1575Y648D01*
X1575Y648D01*
X1575Y649D01*
Y649D01*
X1576Y649D01*
X1576Y649D01*
X1576Y649D01*
X1576Y650D01*
X1576Y651D01*
X1577Y651D01*
X1577Y652D01*
X1578Y653D01*
Y653D01*
X1578Y653D01*
X1578Y653D01*
X1579Y654D01*
X1579Y654D01*
X1580Y655D01*
X1581Y656D01*
X1582Y657D01*
X1583Y658D01*
X1583Y658D01*
X1583Y658D01*
X1584Y658D01*
X1584Y658D01*
X1584Y659D01*
X1585Y659D01*
X1586Y660D01*
X1587Y661D01*
X1588Y662D01*
X1589Y663D01*
X1589Y663D01*
X1590Y664D01*
X1590Y664D01*
Y664D01*
X1590Y665D01*
X1590Y665D01*
X1590Y665D01*
X1591Y665D01*
X1591Y666D01*
X1591Y667D01*
X1592Y667D01*
X1592Y668D01*
X1592Y669D01*
Y669D01*
Y669D01*
X1592Y670D01*
X1592Y670D01*
X1592Y671D01*
X1592Y671D01*
X1591Y672D01*
X1591Y672D01*
X1590Y673D01*
X1590Y673D01*
X1590Y673D01*
X1590Y674D01*
X1589Y674D01*
X1589Y674D01*
X1588Y674D01*
X1587Y675D01*
X1586Y675D01*
X1586D01*
X1586Y675D01*
X1585Y675D01*
X1584Y675D01*
X1584Y674D01*
X1583Y674D01*
X1582Y674D01*
X1581Y673D01*
X1581Y673D01*
X1581Y673D01*
X1581Y672D01*
X1581Y672D01*
X1580Y671D01*
X1580Y670D01*
X1580Y669D01*
X1580Y668D01*
X1576Y669D01*
Y669D01*
Y669D01*
X1576Y669D01*
X1576Y669D01*
X1576Y670D01*
X1576Y670D01*
X1576Y671D01*
X1577Y672D01*
X1577Y673D01*
X1578Y675D01*
X1578Y675D01*
X1579Y676D01*
X1579Y676D01*
X1579Y676D01*
X1579Y676D01*
X1579Y676D01*
X1580Y676D01*
X1580Y676D01*
X1580Y677D01*
X1581Y677D01*
X1581Y677D01*
X1582Y677D01*
X1582Y677D01*
X1583Y678D01*
X1584Y678D01*
X1585Y678D01*
X1586Y678D01*
X1587D01*
X1587Y678D01*
D02*
G37*
G36*
X1484Y673D02*
X1484Y673D01*
X1485Y673D01*
X1486Y672D01*
X1487Y672D01*
X1488Y671D01*
X1488D01*
X1488Y671D01*
X1489Y671D01*
X1489Y671D01*
X1490Y671D01*
X1491Y670D01*
X1491Y669D01*
X1492Y669D01*
X1493Y668D01*
X1493Y668D01*
X1493Y667D01*
X1493Y667D01*
X1493Y666D01*
X1494Y665D01*
X1494Y665D01*
X1494Y664D01*
X1494Y663D01*
Y662D01*
Y662D01*
X1494Y662D01*
X1494Y661D01*
X1494Y660D01*
X1493Y660D01*
X1493Y659D01*
X1493Y658D01*
X1493Y658D01*
X1492Y658D01*
X1492Y657D01*
X1492Y657D01*
X1491Y656D01*
X1490Y656D01*
X1489Y655D01*
X1489Y655D01*
X1489D01*
X1489Y654D01*
X1489D01*
X1489Y654D01*
X1490Y654D01*
X1491Y654D01*
X1491Y653D01*
X1492Y653D01*
X1493Y652D01*
X1494Y651D01*
X1494Y651D01*
X1494Y651D01*
X1495Y650D01*
X1495Y649D01*
X1495Y648D01*
X1496Y647D01*
X1496Y646D01*
X1496Y645D01*
Y645D01*
Y644D01*
Y644D01*
X1496Y644D01*
X1496Y643D01*
X1496Y643D01*
X1496Y642D01*
X1495Y642D01*
X1495Y640D01*
X1495Y640D01*
X1494Y639D01*
X1494Y638D01*
X1493Y637D01*
X1493Y637D01*
X1492Y636D01*
X1492Y636D01*
X1492Y636D01*
X1492Y636D01*
X1491Y635D01*
X1491Y635D01*
X1491Y635D01*
X1490Y634D01*
X1490Y634D01*
X1489Y634D01*
X1488Y633D01*
X1487Y633D01*
X1487Y633D01*
X1486Y633D01*
X1485Y633D01*
X1484Y632D01*
X1483Y632D01*
X1482D01*
X1482Y632D01*
X1481Y632D01*
X1481Y633D01*
X1480Y633D01*
X1480Y633D01*
X1478Y633D01*
X1477Y634D01*
X1476Y634D01*
X1475Y634D01*
X1475Y635D01*
X1474Y635D01*
X1474Y635D01*
X1474Y636D01*
X1474Y636D01*
X1473Y636D01*
X1473Y636D01*
X1473Y637D01*
X1472Y637D01*
X1472Y638D01*
X1471Y639D01*
X1471Y640D01*
X1470Y642D01*
X1470Y643D01*
X1470Y644D01*
X1475Y644D01*
Y644D01*
X1475Y644D01*
Y644D01*
X1475Y644D01*
X1475Y643D01*
X1476Y642D01*
X1476Y641D01*
X1476Y640D01*
X1477Y639D01*
X1478Y638D01*
X1478Y638D01*
X1478Y638D01*
X1478Y638D01*
X1479Y637D01*
X1480Y637D01*
X1481Y637D01*
X1482Y636D01*
X1483Y636D01*
X1483D01*
X1483Y636D01*
X1484Y637D01*
X1485Y637D01*
X1486Y637D01*
X1487Y637D01*
X1487Y638D01*
X1488Y639D01*
X1489Y639D01*
X1489Y639D01*
X1489Y640D01*
X1490Y640D01*
X1490Y641D01*
X1490Y642D01*
X1491Y643D01*
X1491Y645D01*
Y645D01*
Y645D01*
Y645D01*
X1491Y645D01*
X1491Y646D01*
X1490Y647D01*
X1490Y647D01*
X1490Y648D01*
X1489Y649D01*
X1489Y650D01*
X1488Y650D01*
X1488Y651D01*
X1488Y651D01*
X1487Y651D01*
X1486Y652D01*
X1485Y652D01*
X1484Y652D01*
X1483Y652D01*
X1482D01*
X1482Y652D01*
X1482Y652D01*
X1481Y652D01*
X1480Y652D01*
X1480Y652D01*
X1480Y656D01*
X1480D01*
X1481Y656D01*
X1481D01*
X1482Y656D01*
X1483Y656D01*
X1484Y656D01*
X1485Y657D01*
X1485Y657D01*
X1486Y658D01*
X1487Y658D01*
X1487Y658D01*
X1487Y658D01*
X1488Y659D01*
X1488Y660D01*
X1489Y660D01*
X1489Y661D01*
X1489Y663D01*
Y663D01*
Y663D01*
Y663D01*
X1489Y664D01*
X1489Y664D01*
X1489Y665D01*
X1488Y666D01*
X1488Y666D01*
X1487Y667D01*
X1487Y667D01*
X1487Y667D01*
X1486Y668D01*
X1486Y668D01*
X1485Y668D01*
X1484Y669D01*
X1484Y669D01*
X1483Y669D01*
X1482D01*
X1481Y669D01*
X1481Y669D01*
X1480Y669D01*
X1479Y668D01*
X1479Y668D01*
X1478Y667D01*
X1478Y667D01*
X1477Y667D01*
X1477Y666D01*
X1477Y666D01*
X1476Y665D01*
X1476Y664D01*
X1476Y663D01*
X1475Y662D01*
X1470Y663D01*
Y663D01*
X1471Y663D01*
X1471Y663D01*
X1471Y663D01*
X1471Y664D01*
X1471Y664D01*
X1471Y665D01*
X1472Y667D01*
X1473Y668D01*
X1473Y669D01*
X1474Y670D01*
X1475Y670D01*
X1475Y670D01*
X1475Y670D01*
X1475Y671D01*
X1475Y671D01*
X1476Y671D01*
X1477Y672D01*
X1478Y672D01*
X1479Y673D01*
X1481Y673D01*
X1482Y673D01*
X1483D01*
X1484Y673D01*
D02*
G37*
G36*
X1392Y649D02*
X1398D01*
Y644D01*
X1392D01*
Y635D01*
X1387D01*
Y644D01*
X1370D01*
Y649D01*
X1388Y675D01*
X1392D01*
Y649D01*
D02*
G37*
G36*
X1721Y672D02*
X1722Y672D01*
X1722Y672D01*
X1723Y671D01*
X1724Y671D01*
X1724D01*
X1724Y671D01*
X1724D01*
X1725Y671D01*
X1725Y671D01*
X1726Y671D01*
X1726Y670D01*
X1727Y670D01*
X1728Y670D01*
X1729Y669D01*
X1729D01*
X1729Y669D01*
X1729Y669D01*
X1730Y668D01*
X1730Y668D01*
X1731Y667D01*
X1731Y666D01*
X1732Y665D01*
X1733Y664D01*
Y664D01*
X1733Y663D01*
X1733Y663D01*
X1733Y663D01*
X1733Y663D01*
X1733Y662D01*
X1733Y662D01*
X1733Y661D01*
X1733Y661D01*
X1733Y660D01*
X1734Y659D01*
X1734Y658D01*
X1734Y656D01*
Y656D01*
Y656D01*
Y656D01*
Y655D01*
X1734Y655D01*
Y655D01*
X1734Y654D01*
X1734Y653D01*
X1733Y652D01*
X1733Y651D01*
X1733Y650D01*
Y650D01*
X1733Y649D01*
X1733Y649D01*
X1733Y649D01*
X1733Y649D01*
X1732Y648D01*
X1732Y647D01*
X1732Y646D01*
X1731Y646D01*
X1731Y645D01*
X1731Y645D01*
X1731Y645D01*
X1730Y644D01*
X1730Y644D01*
X1730Y643D01*
X1729Y643D01*
X1728Y643D01*
X1728Y642D01*
X1728Y642D01*
X1728Y642D01*
X1727Y642D01*
X1727Y641D01*
X1726Y641D01*
X1726Y641D01*
X1725Y641D01*
X1724Y641D01*
X1724D01*
X1724Y640D01*
X1723Y640D01*
X1723Y640D01*
X1722Y640D01*
X1721Y640D01*
X1720Y640D01*
X1719Y640D01*
X1708D01*
Y672D01*
X1720D01*
X1721Y672D01*
D02*
G37*
G36*
X1701Y640D02*
X1696D01*
X1680Y665D01*
Y640D01*
X1676D01*
Y672D01*
X1680D01*
X1697Y647D01*
Y672D01*
X1701D01*
Y640D01*
D02*
G37*
G36*
X1926Y197D02*
X1927Y197D01*
X1927Y197D01*
X1928Y196D01*
X1929Y196D01*
X1929D01*
X1929Y196D01*
X1929D01*
X1930Y196D01*
X1930Y196D01*
X1931Y196D01*
X1931Y195D01*
X1932Y195D01*
X1933Y195D01*
X1934Y194D01*
X1934D01*
X1934Y194D01*
X1934Y194D01*
X1935Y193D01*
X1935Y193D01*
X1936Y192D01*
X1936Y191D01*
X1937Y190D01*
X1938Y189D01*
Y189D01*
X1938Y188D01*
X1938Y188D01*
X1938Y188D01*
X1938Y188D01*
X1938Y187D01*
X1938Y187D01*
X1938Y186D01*
X1938Y186D01*
X1938Y185D01*
X1939Y184D01*
X1939Y183D01*
X1939Y181D01*
Y181D01*
Y181D01*
Y181D01*
Y180D01*
X1939Y180D01*
Y180D01*
X1939Y179D01*
X1939Y178D01*
X1938Y177D01*
X1938Y176D01*
X1938Y175D01*
Y175D01*
X1938Y174D01*
X1938Y174D01*
X1938Y174D01*
X1938Y174D01*
X1937Y173D01*
X1937Y172D01*
X1937Y171D01*
X1936Y171D01*
X1936Y170D01*
X1936Y170D01*
X1936Y170D01*
X1935Y169D01*
X1935Y169D01*
X1935Y168D01*
X1934Y168D01*
X1933Y168D01*
X1933Y167D01*
X1933Y167D01*
X1933Y167D01*
X1932Y167D01*
X1932Y167D01*
X1931Y166D01*
X1931Y166D01*
X1930Y166D01*
X1929Y166D01*
X1929D01*
X1929Y165D01*
X1928Y165D01*
X1928Y165D01*
X1927Y165D01*
X1926Y165D01*
X1925Y165D01*
X1924Y165D01*
X1913D01*
Y197D01*
X1925D01*
X1926Y197D01*
D02*
G37*
G36*
X1602Y197D02*
X1603Y197D01*
X1604Y197D01*
X1605Y196D01*
X1605Y196D01*
X1606Y196D01*
X1606D01*
X1606Y196D01*
X1607Y196D01*
X1607Y195D01*
X1607Y195D01*
X1608Y195D01*
X1609Y194D01*
X1609Y193D01*
X1610Y193D01*
X1610Y193D01*
X1610Y192D01*
X1610Y192D01*
X1610Y192D01*
X1610Y191D01*
X1611Y190D01*
X1611Y189D01*
X1611Y189D01*
Y189D01*
Y188D01*
X1611Y188D01*
X1611Y187D01*
X1610Y187D01*
X1610Y186D01*
X1610Y186D01*
X1610Y185D01*
X1610Y185D01*
X1609Y185D01*
X1609Y184D01*
X1609Y184D01*
X1608Y184D01*
X1608Y183D01*
X1607Y183D01*
X1606Y182D01*
X1606D01*
X1607Y182D01*
X1607D01*
X1607Y182D01*
X1607Y182D01*
X1608Y182D01*
X1609Y181D01*
X1609Y181D01*
X1610Y180D01*
X1611Y180D01*
X1611Y179D01*
X1611Y179D01*
X1611Y179D01*
X1612Y178D01*
X1612Y177D01*
X1612Y177D01*
X1612Y176D01*
X1612Y174D01*
Y174D01*
Y174D01*
Y174D01*
X1612Y174D01*
X1612Y173D01*
X1612Y173D01*
X1612Y172D01*
X1612Y172D01*
X1612Y171D01*
X1611Y170D01*
X1611Y170D01*
X1611Y169D01*
X1610Y168D01*
X1610Y168D01*
X1609Y167D01*
X1609Y167D01*
X1609Y167D01*
X1609Y167D01*
X1609Y167D01*
X1608Y167D01*
X1608Y166D01*
X1608Y166D01*
X1607Y166D01*
X1607Y166D01*
X1606Y165D01*
X1605Y165D01*
X1605Y165D01*
X1604Y165D01*
X1603Y165D01*
X1602Y165D01*
X1602Y164D01*
X1601D01*
X1601Y165D01*
X1601Y165D01*
X1600Y165D01*
X1600Y165D01*
X1599Y165D01*
X1598Y165D01*
X1597Y166D01*
X1596Y166D01*
X1596Y166D01*
X1595Y167D01*
X1595Y167D01*
X1595Y167D01*
X1595Y167D01*
X1594Y167D01*
X1594Y167D01*
X1594Y168D01*
X1594Y168D01*
X1594Y168D01*
X1593Y169D01*
X1593Y170D01*
X1592Y171D01*
X1592Y172D01*
X1592Y173D01*
X1592Y173D01*
X1595Y174D01*
Y174D01*
X1596Y174D01*
Y174D01*
X1596Y173D01*
X1596Y173D01*
X1596Y172D01*
X1596Y171D01*
X1597Y171D01*
X1597Y170D01*
X1598Y169D01*
X1598Y169D01*
X1598Y169D01*
X1598Y169D01*
X1599Y168D01*
X1599Y168D01*
X1600Y168D01*
X1601Y168D01*
X1602Y168D01*
X1602D01*
X1602Y168D01*
X1603Y168D01*
X1603Y168D01*
X1604Y168D01*
X1605Y168D01*
X1606Y169D01*
X1606Y170D01*
X1606Y170D01*
X1607Y170D01*
X1607Y170D01*
X1607Y171D01*
X1608Y172D01*
X1608Y172D01*
X1608Y173D01*
X1608Y174D01*
Y174D01*
Y174D01*
Y175D01*
X1608Y175D01*
X1608Y175D01*
X1608Y176D01*
X1608Y177D01*
X1607Y177D01*
X1607Y178D01*
X1606Y179D01*
X1606Y179D01*
X1606Y179D01*
X1606Y179D01*
X1605Y180D01*
X1605Y180D01*
X1604Y180D01*
X1603Y180D01*
X1602Y180D01*
X1602D01*
X1601Y180D01*
X1601Y180D01*
X1600Y180D01*
X1600Y180D01*
X1599Y180D01*
X1600Y184D01*
X1600D01*
X1600Y183D01*
X1601D01*
X1601Y184D01*
X1602Y184D01*
X1602Y184D01*
X1603Y184D01*
X1604Y184D01*
X1605Y185D01*
X1605Y185D01*
X1605Y185D01*
X1605Y185D01*
X1606Y186D01*
X1606Y186D01*
X1606Y187D01*
X1607Y188D01*
X1607Y189D01*
Y189D01*
Y189D01*
Y189D01*
X1607Y189D01*
X1607Y190D01*
X1606Y191D01*
X1606Y191D01*
X1606Y192D01*
X1605Y192D01*
X1605Y192D01*
X1605Y193D01*
X1605Y193D01*
X1604Y193D01*
X1604Y193D01*
X1603Y194D01*
X1602Y194D01*
X1602Y194D01*
X1601D01*
X1601Y194D01*
X1600Y194D01*
X1600Y193D01*
X1599Y193D01*
X1598Y193D01*
X1598Y192D01*
X1598Y192D01*
X1598Y192D01*
X1597Y192D01*
X1597Y191D01*
X1597Y191D01*
X1596Y190D01*
X1596Y189D01*
X1596Y188D01*
X1592Y189D01*
Y189D01*
X1592Y189D01*
X1592Y189D01*
X1592Y189D01*
X1592Y190D01*
X1592Y190D01*
X1593Y191D01*
X1593Y192D01*
X1594Y193D01*
X1594Y194D01*
X1595Y195D01*
X1595Y195D01*
X1595Y195D01*
X1595Y195D01*
X1596Y195D01*
X1596Y195D01*
X1596Y195D01*
X1597Y196D01*
X1598Y196D01*
X1599Y197D01*
X1600Y197D01*
X1601Y197D01*
X1602D01*
X1602Y197D01*
D02*
G37*
G36*
X984Y675D02*
X984D01*
X985Y675D01*
X986Y675D01*
X987Y674D01*
X989Y674D01*
X989Y673D01*
X990Y673D01*
X991Y672D01*
X991Y672D01*
X991Y672D01*
X991Y672D01*
X992Y672D01*
X992Y671D01*
X992Y671D01*
X992Y671D01*
X993Y670D01*
X994Y669D01*
X994Y667D01*
X994Y666D01*
X995Y665D01*
X995Y665D01*
Y664D01*
Y664D01*
X995Y664D01*
X994Y663D01*
X994Y662D01*
X994Y661D01*
X994Y660D01*
X993Y660D01*
X993Y660D01*
X993Y659D01*
X993Y659D01*
X992Y659D01*
X991Y658D01*
X991Y658D01*
X990Y657D01*
X989Y657D01*
X989D01*
X989Y657D01*
X989Y656D01*
X989Y656D01*
X990Y656D01*
X991Y656D01*
X992Y655D01*
X993Y654D01*
X993Y654D01*
X994Y653D01*
X994Y653D01*
X995Y652D01*
X995Y652D01*
X995Y651D01*
X996Y650D01*
X996Y649D01*
X996Y648D01*
X996Y646D01*
Y646D01*
Y646D01*
Y646D01*
X996Y646D01*
X996Y645D01*
X996Y645D01*
X996Y643D01*
X995Y642D01*
X995Y641D01*
X995Y641D01*
X994Y640D01*
X994Y639D01*
X993Y638D01*
X993Y638D01*
X993Y638D01*
X992Y638D01*
X992Y637D01*
X992Y637D01*
X992Y637D01*
X991Y637D01*
X991Y636D01*
X990Y636D01*
X989Y636D01*
X989Y635D01*
X988Y635D01*
X987Y635D01*
X986Y635D01*
X985Y634D01*
X984Y634D01*
X983Y634D01*
X983D01*
X982Y634D01*
X982Y634D01*
X981Y635D01*
X980Y635D01*
X980Y635D01*
X978Y635D01*
X977Y635D01*
X977Y636D01*
X976Y636D01*
X975Y637D01*
X974Y637D01*
X974Y638D01*
X974Y638D01*
X973Y638D01*
X973Y638D01*
X973Y638D01*
X973Y639D01*
X972Y639D01*
X972Y640D01*
X972Y640D01*
X971Y641D01*
X971Y641D01*
X971Y643D01*
X970Y644D01*
X970Y645D01*
X970Y646D01*
X970Y646D01*
Y647D01*
Y647D01*
Y647D01*
X970Y647D01*
Y647D01*
X970Y648D01*
X970Y649D01*
X970Y650D01*
X971Y651D01*
X971Y652D01*
X972Y653D01*
Y653D01*
X972Y653D01*
X972Y653D01*
X973Y654D01*
X973Y654D01*
X974Y655D01*
X975Y656D01*
X976Y656D01*
X978Y657D01*
X978D01*
X977Y657D01*
X977Y657D01*
X977Y657D01*
X976Y657D01*
X975Y658D01*
X974Y658D01*
X974Y659D01*
X973Y660D01*
X973Y660D01*
X973Y660D01*
X973Y661D01*
X972Y661D01*
X972Y662D01*
X972Y663D01*
X972Y664D01*
X972Y665D01*
Y665D01*
Y665D01*
Y665D01*
X972Y665D01*
X972Y666D01*
X972Y666D01*
X972Y667D01*
X972Y668D01*
X973Y670D01*
X973Y670D01*
X974Y671D01*
X974Y671D01*
X975Y672D01*
X975Y672D01*
X975Y672D01*
X975Y672D01*
X975Y672D01*
X976Y673D01*
X976Y673D01*
X976Y673D01*
X977Y673D01*
X978Y674D01*
X979Y674D01*
X981Y675D01*
X982Y675D01*
X983Y675D01*
X983D01*
X984Y675D01*
D02*
G37*
G36*
X1724Y197D02*
X1725Y197D01*
X1725Y197D01*
X1726Y197D01*
X1726Y197D01*
X1728Y197D01*
X1729Y196D01*
X1730Y196D01*
X1730Y196D01*
X1731Y195D01*
X1732Y195D01*
X1732Y195D01*
X1732Y195D01*
X1732Y195D01*
X1732Y194D01*
X1732Y194D01*
X1733Y194D01*
X1733Y194D01*
X1733Y193D01*
X1734Y193D01*
X1734Y192D01*
X1735Y192D01*
X1735Y191D01*
X1735Y190D01*
X1736Y190D01*
X1736Y188D01*
X1732Y187D01*
Y187D01*
X1732Y187D01*
X1732Y187D01*
X1732Y188D01*
X1732Y188D01*
X1732Y188D01*
X1731Y189D01*
X1731Y190D01*
X1730Y191D01*
X1730Y191D01*
X1729Y192D01*
X1729Y192D01*
X1728Y192D01*
X1728Y193D01*
X1727Y193D01*
X1727Y193D01*
X1726Y194D01*
X1725Y194D01*
X1724Y194D01*
X1723D01*
X1723Y194D01*
X1723D01*
X1722Y194D01*
X1721Y194D01*
X1720Y193D01*
X1719Y193D01*
X1718Y193D01*
X1717Y192D01*
X1717D01*
X1717Y192D01*
X1717Y192D01*
X1717Y191D01*
X1716Y191D01*
X1716Y190D01*
X1715Y189D01*
X1714Y188D01*
X1714Y187D01*
Y187D01*
X1714Y187D01*
X1714Y187D01*
X1714Y187D01*
X1714Y186D01*
X1714Y186D01*
X1714Y185D01*
X1713Y184D01*
X1713Y183D01*
X1713Y182D01*
X1713Y181D01*
Y181D01*
Y181D01*
Y181D01*
Y180D01*
X1713Y180D01*
Y180D01*
X1713Y179D01*
X1713Y179D01*
X1713Y178D01*
X1714Y176D01*
X1714Y175D01*
X1714Y174D01*
Y174D01*
X1714Y174D01*
X1714Y174D01*
X1714Y174D01*
X1715Y173D01*
X1715Y172D01*
X1716Y172D01*
X1716Y171D01*
X1717Y170D01*
X1718Y170D01*
X1718D01*
X1718Y169D01*
X1718Y169D01*
X1718Y169D01*
X1719Y169D01*
X1719Y169D01*
X1720Y169D01*
X1721Y168D01*
X1722Y168D01*
X1723Y168D01*
X1724D01*
X1724Y168D01*
X1724D01*
X1725Y168D01*
X1725Y168D01*
X1726Y169D01*
X1727Y169D01*
X1728Y169D01*
X1729Y170D01*
X1729Y170D01*
X1729Y170D01*
X1730Y170D01*
X1730Y171D01*
X1731Y172D01*
X1731Y172D01*
X1732Y173D01*
X1732Y175D01*
X1733Y176D01*
X1737Y175D01*
Y175D01*
X1737Y175D01*
X1737Y175D01*
X1737Y174D01*
X1736Y174D01*
X1736Y173D01*
X1736Y173D01*
X1736Y172D01*
X1735Y171D01*
X1734Y170D01*
X1733Y168D01*
X1733Y168D01*
X1732Y167D01*
X1732Y167D01*
X1732Y167D01*
X1732Y167D01*
X1731Y167D01*
X1731Y167D01*
X1731Y166D01*
X1730Y166D01*
X1730Y166D01*
X1729Y166D01*
X1728Y165D01*
X1728Y165D01*
X1727Y165D01*
X1725Y165D01*
X1725Y165D01*
X1724Y164D01*
X1723D01*
X1723Y165D01*
X1722D01*
X1722Y165D01*
X1721Y165D01*
X1721Y165D01*
X1719Y165D01*
X1718Y165D01*
X1717Y166D01*
X1716Y166D01*
X1715Y167D01*
X1715Y167D01*
X1715Y167D01*
X1715Y167D01*
X1715Y167D01*
X1714Y167D01*
X1713Y168D01*
X1713Y169D01*
X1712Y170D01*
X1711Y171D01*
X1710Y173D01*
Y173D01*
X1710Y173D01*
X1710Y173D01*
X1710Y173D01*
X1710Y174D01*
X1710Y174D01*
X1710Y175D01*
X1710Y175D01*
X1709Y176D01*
X1709Y176D01*
X1709Y178D01*
X1709Y179D01*
X1709Y181D01*
Y181D01*
Y181D01*
Y182D01*
X1709Y182D01*
Y182D01*
X1709Y183D01*
X1709Y183D01*
X1709Y184D01*
X1709Y185D01*
X1709Y187D01*
X1710Y188D01*
X1711Y190D01*
Y190D01*
X1711Y190D01*
X1711Y190D01*
X1711Y190D01*
X1711Y191D01*
X1711Y191D01*
X1712Y192D01*
X1713Y193D01*
X1714Y194D01*
X1715Y195D01*
X1716Y195D01*
X1716D01*
X1716Y195D01*
X1716Y196D01*
X1717Y196D01*
X1717Y196D01*
X1717Y196D01*
X1718Y196D01*
X1718Y196D01*
X1719Y197D01*
X1719Y197D01*
X1721Y197D01*
X1722Y197D01*
X1724Y197D01*
X1724D01*
X1724Y197D01*
D02*
G37*
G36*
X1692D02*
X1693Y197D01*
X1693Y197D01*
X1694Y197D01*
X1694Y197D01*
X1696Y197D01*
X1697Y196D01*
X1698Y196D01*
X1698Y196D01*
X1699Y195D01*
X1700Y195D01*
X1700Y195D01*
X1700Y195D01*
X1700Y195D01*
X1700Y194D01*
X1700Y194D01*
X1701Y194D01*
X1701Y194D01*
X1701Y193D01*
X1702Y193D01*
X1702Y192D01*
X1703Y192D01*
X1703Y191D01*
X1703Y190D01*
X1704Y190D01*
X1704Y188D01*
X1700Y187D01*
Y187D01*
X1700Y187D01*
X1700Y187D01*
X1700Y188D01*
X1700Y188D01*
X1700Y188D01*
X1699Y189D01*
X1699Y190D01*
X1698Y191D01*
X1698Y191D01*
X1697Y192D01*
X1697Y192D01*
X1696Y192D01*
X1696Y193D01*
X1695Y193D01*
X1695Y193D01*
X1694Y194D01*
X1693Y194D01*
X1692Y194D01*
X1691D01*
X1691Y194D01*
X1691D01*
X1690Y194D01*
X1689Y194D01*
X1688Y193D01*
X1687Y193D01*
X1686Y193D01*
X1685Y192D01*
X1685D01*
X1685Y192D01*
X1685Y192D01*
X1685Y191D01*
X1684Y191D01*
X1684Y190D01*
X1683Y189D01*
X1682Y188D01*
X1682Y187D01*
Y187D01*
X1682Y187D01*
X1682Y187D01*
X1682Y187D01*
X1682Y186D01*
X1682Y186D01*
X1681Y185D01*
X1681Y184D01*
X1681Y183D01*
X1681Y182D01*
X1681Y181D01*
Y181D01*
Y181D01*
Y181D01*
Y180D01*
X1681Y180D01*
Y180D01*
X1681Y179D01*
X1681Y179D01*
X1681Y178D01*
X1681Y176D01*
X1682Y175D01*
X1682Y174D01*
Y174D01*
X1682Y174D01*
X1682Y174D01*
X1682Y174D01*
X1683Y173D01*
X1683Y172D01*
X1684Y172D01*
X1684Y171D01*
X1685Y170D01*
X1686Y170D01*
X1686D01*
X1686Y169D01*
X1686Y169D01*
X1686Y169D01*
X1687Y169D01*
X1687Y169D01*
X1688Y169D01*
X1689Y168D01*
X1690Y168D01*
X1691Y168D01*
X1692D01*
X1692Y168D01*
X1692D01*
X1692Y168D01*
X1693Y168D01*
X1694Y169D01*
X1695Y169D01*
X1696Y169D01*
X1697Y170D01*
X1697Y170D01*
X1697Y170D01*
X1698Y170D01*
X1698Y171D01*
X1699Y172D01*
X1699Y172D01*
X1700Y173D01*
X1700Y175D01*
X1701Y176D01*
X1705Y175D01*
Y175D01*
X1705Y175D01*
X1705Y175D01*
X1704Y174D01*
X1704Y174D01*
X1704Y173D01*
X1704Y173D01*
X1704Y172D01*
X1703Y171D01*
X1702Y170D01*
X1701Y168D01*
X1701Y168D01*
X1700Y167D01*
X1700Y167D01*
X1700Y167D01*
X1700Y167D01*
X1699Y167D01*
X1699Y167D01*
X1699Y166D01*
X1698Y166D01*
X1698Y166D01*
X1697Y166D01*
X1696Y165D01*
X1696Y165D01*
X1695Y165D01*
X1693Y165D01*
X1692Y165D01*
X1692Y164D01*
X1691D01*
X1691Y165D01*
X1690D01*
X1690Y165D01*
X1689Y165D01*
X1689Y165D01*
X1687Y165D01*
X1686Y165D01*
X1684Y166D01*
X1684Y166D01*
X1683Y167D01*
X1683Y167D01*
X1683Y167D01*
X1683Y167D01*
X1683Y167D01*
X1682Y167D01*
X1681Y168D01*
X1681Y169D01*
X1680Y170D01*
X1679Y171D01*
X1678Y173D01*
Y173D01*
X1678Y173D01*
X1678Y173D01*
X1678Y173D01*
X1678Y174D01*
X1678Y174D01*
X1678Y175D01*
X1677Y175D01*
X1677Y176D01*
X1677Y176D01*
X1677Y178D01*
X1677Y179D01*
X1677Y181D01*
Y181D01*
Y181D01*
Y182D01*
X1677Y182D01*
Y182D01*
X1677Y183D01*
X1677Y183D01*
X1677Y184D01*
X1677Y185D01*
X1677Y187D01*
X1678Y188D01*
X1679Y190D01*
Y190D01*
X1679Y190D01*
X1679Y190D01*
X1679Y190D01*
X1679Y191D01*
X1679Y191D01*
X1680Y192D01*
X1681Y193D01*
X1682Y194D01*
X1683Y195D01*
X1684Y195D01*
X1684D01*
X1684Y195D01*
X1684Y196D01*
X1685Y196D01*
X1685Y196D01*
X1685Y196D01*
X1686Y196D01*
X1686Y196D01*
X1687Y197D01*
X1687Y197D01*
X1689Y197D01*
X1690Y197D01*
X1692Y197D01*
X1692D01*
X1692Y197D01*
D02*
G37*
G36*
X883Y675D02*
X883D01*
X884Y675D01*
X885Y675D01*
X886Y674D01*
X887Y674D01*
X888Y674D01*
X890Y673D01*
X890D01*
X890Y673D01*
X890Y673D01*
X890Y672D01*
X891Y672D01*
X891Y671D01*
X892Y670D01*
X893Y669D01*
X894Y668D01*
X894Y667D01*
Y667D01*
X895Y667D01*
X895Y666D01*
X895Y666D01*
X895Y666D01*
X895Y665D01*
X895Y665D01*
X895Y664D01*
X895Y663D01*
X896Y662D01*
X896Y661D01*
X896Y661D01*
X896Y659D01*
X896Y658D01*
X896Y657D01*
Y656D01*
Y656D01*
Y655D01*
Y655D01*
Y654D01*
X896Y654D01*
Y653D01*
X896Y652D01*
X896Y651D01*
X896Y649D01*
X895Y647D01*
X895Y645D01*
X895Y644D01*
X894Y644D01*
Y643D01*
X894Y643D01*
X894Y643D01*
X894Y643D01*
X894Y642D01*
X894Y642D01*
X893Y641D01*
X893Y640D01*
X892Y639D01*
X891Y638D01*
X890Y637D01*
X889D01*
X889Y637D01*
X889Y636D01*
X889Y636D01*
X889Y636D01*
X888Y636D01*
X887Y635D01*
X886Y635D01*
X885Y635D01*
X883Y634D01*
X882Y634D01*
X881D01*
X881Y634D01*
X881D01*
X880Y634D01*
X879Y635D01*
X878Y635D01*
X877Y635D01*
X875Y636D01*
X874Y637D01*
X874Y637D01*
X874Y637D01*
X874Y637D01*
X873Y638D01*
X873Y639D01*
X872Y640D01*
X872Y641D01*
X871Y643D01*
X871Y644D01*
X875Y645D01*
Y644D01*
Y644D01*
X875Y644D01*
X876Y644D01*
X876Y643D01*
X876Y643D01*
X876Y642D01*
X877Y641D01*
X877Y640D01*
X878Y640D01*
X878Y640D01*
X878Y640D01*
X878Y639D01*
X879Y639D01*
X879Y639D01*
X880Y639D01*
X881Y638D01*
X882Y638D01*
X882D01*
X883Y638D01*
X883Y638D01*
X884Y639D01*
X885Y639D01*
X885Y639D01*
X886Y639D01*
X886Y639D01*
X886Y640D01*
X887Y640D01*
X887Y640D01*
X887Y640D01*
X888Y641D01*
X888Y641D01*
X889Y642D01*
X889Y642D01*
X889Y642D01*
X889Y643D01*
X889Y643D01*
X890Y644D01*
X890Y645D01*
X890Y646D01*
X891Y647D01*
Y647D01*
X891Y647D01*
Y647D01*
X891Y647D01*
X891Y648D01*
X891Y649D01*
X891Y650D01*
X891Y650D01*
X891Y652D01*
Y653D01*
Y653D01*
Y653D01*
Y653D01*
Y654D01*
X891Y654D01*
X891Y653D01*
X891Y653D01*
X890Y652D01*
X890Y652D01*
X889Y651D01*
X888Y650D01*
X887Y650D01*
X887Y650D01*
X887Y650D01*
X886Y649D01*
X886Y649D01*
X885Y649D01*
X884Y649D01*
X883Y649D01*
X882Y648D01*
X881D01*
X881Y649D01*
X880Y649D01*
X880Y649D01*
X879Y649D01*
X878Y649D01*
X877Y650D01*
X876Y650D01*
X875Y650D01*
X875Y651D01*
X874Y651D01*
X873Y652D01*
X873Y652D01*
X873Y652D01*
X873Y652D01*
X873Y653D01*
X873Y653D01*
X872Y654D01*
X872Y654D01*
X872Y655D01*
X871Y655D01*
X871Y656D01*
X871Y657D01*
X871Y658D01*
X870Y658D01*
X870Y659D01*
X870Y660D01*
X870Y661D01*
Y662D01*
Y662D01*
Y662D01*
X870Y663D01*
X870Y663D01*
X870Y664D01*
X870Y664D01*
X870Y665D01*
X871Y667D01*
X871Y667D01*
X872Y668D01*
X872Y669D01*
X872Y670D01*
X873Y671D01*
X874Y671D01*
X874Y671D01*
X874Y671D01*
X874Y672D01*
X874Y672D01*
X874Y672D01*
X875Y672D01*
X875Y673D01*
X876Y673D01*
X877Y673D01*
X877Y674D01*
X879Y674D01*
X880Y675D01*
X881Y675D01*
X881Y675D01*
X882Y675D01*
X883D01*
X883Y675D01*
D02*
G37*
G36*
X1101Y670D02*
X1101Y670D01*
X1101Y670D01*
X1100Y670D01*
X1100Y670D01*
X1100Y669D01*
X1099Y669D01*
X1099Y668D01*
X1098Y668D01*
X1098Y667D01*
X1097Y666D01*
X1097Y665D01*
X1096Y664D01*
X1095Y663D01*
X1095Y662D01*
X1094Y661D01*
X1093Y660D01*
X1093Y660D01*
X1093Y659D01*
X1093Y659D01*
X1093Y659D01*
X1092Y658D01*
X1092Y657D01*
X1091Y656D01*
X1091Y655D01*
X1091Y654D01*
X1090Y653D01*
X1090Y652D01*
X1089Y651D01*
X1088Y649D01*
X1087Y646D01*
Y646D01*
X1087Y646D01*
X1087Y645D01*
X1087Y645D01*
X1087Y645D01*
X1087Y644D01*
X1087Y643D01*
X1087Y643D01*
X1086Y642D01*
X1086Y641D01*
X1086Y639D01*
X1086Y637D01*
X1086Y635D01*
X1081D01*
Y635D01*
Y635D01*
Y635D01*
X1081Y636D01*
Y636D01*
X1081Y637D01*
X1081Y637D01*
X1081Y638D01*
X1081Y639D01*
X1081Y640D01*
X1081Y641D01*
X1081Y642D01*
X1082Y643D01*
X1082Y644D01*
X1082Y646D01*
Y646D01*
X1082Y647D01*
X1083Y647D01*
X1083Y647D01*
X1083Y648D01*
X1083Y649D01*
X1083Y650D01*
X1084Y650D01*
X1084Y651D01*
X1084Y652D01*
X1085Y655D01*
X1086Y657D01*
X1087Y659D01*
X1087Y659D01*
X1088Y659D01*
X1088Y660D01*
X1088Y660D01*
X1088Y661D01*
X1089Y661D01*
X1089Y662D01*
X1090Y663D01*
X1091Y664D01*
X1092Y666D01*
X1093Y668D01*
X1094Y670D01*
X1075D01*
Y674D01*
X1101D01*
Y670D01*
D02*
G37*
G36*
X1789Y197D02*
X1789D01*
X1790Y197D01*
X1791Y197D01*
X1792Y197D01*
X1793Y197D01*
X1794Y196D01*
X1794D01*
X1794Y196D01*
X1794Y196D01*
X1795Y196D01*
X1795Y196D01*
X1796Y195D01*
X1796Y195D01*
X1797Y194D01*
X1798Y194D01*
X1798Y193D01*
X1798Y193D01*
X1799Y192D01*
X1799Y192D01*
X1799Y191D01*
X1799Y191D01*
X1800Y190D01*
X1800Y189D01*
X1800Y188D01*
X1796Y188D01*
Y188D01*
Y188D01*
X1796Y188D01*
X1796Y188D01*
X1796Y189D01*
X1795Y189D01*
X1795Y190D01*
X1795Y191D01*
X1794Y191D01*
X1794Y192D01*
X1794Y192D01*
X1793Y192D01*
X1793Y193D01*
X1792Y193D01*
X1792Y193D01*
X1791Y193D01*
X1789Y194D01*
X1788Y194D01*
X1787D01*
X1787Y194D01*
X1787D01*
X1786Y193D01*
X1785Y193D01*
X1784Y193D01*
X1783Y193D01*
X1783Y192D01*
X1783Y192D01*
X1783Y192D01*
X1782Y192D01*
X1782Y192D01*
X1782Y191D01*
X1781Y191D01*
X1781Y190D01*
X1781Y190D01*
X1781Y189D01*
Y189D01*
Y189D01*
X1781Y188D01*
X1781Y188D01*
X1781Y187D01*
X1781Y187D01*
X1782Y186D01*
X1782Y186D01*
X1782Y186D01*
X1782Y186D01*
X1783Y186D01*
X1783Y186D01*
X1783Y185D01*
X1783Y185D01*
X1784Y185D01*
X1784Y185D01*
X1785Y185D01*
X1785Y185D01*
X1786Y184D01*
X1787Y184D01*
X1787Y184D01*
X1788Y184D01*
X1788D01*
X1789Y184D01*
X1789Y184D01*
X1789Y184D01*
X1790Y183D01*
X1790Y183D01*
X1791Y183D01*
X1792Y183D01*
X1793Y182D01*
X1794Y182D01*
X1795Y182D01*
X1795Y182D01*
X1795Y182D01*
X1795D01*
X1796Y182D01*
X1796Y182D01*
X1796Y181D01*
X1796Y181D01*
X1797Y181D01*
X1798Y180D01*
X1798Y180D01*
X1799Y179D01*
X1799Y178D01*
X1800Y178D01*
X1800Y178D01*
X1800Y178D01*
X1800Y177D01*
X1800Y177D01*
X1801Y176D01*
X1801Y175D01*
X1801Y174D01*
Y174D01*
Y174D01*
Y174D01*
Y174D01*
X1801Y173D01*
X1801Y172D01*
X1801Y172D01*
X1800Y171D01*
X1800Y170D01*
X1799Y169D01*
X1799Y169D01*
X1799Y169D01*
X1799Y168D01*
X1798Y168D01*
X1798Y167D01*
X1797Y167D01*
X1796Y166D01*
X1795Y166D01*
X1795D01*
X1795Y166D01*
X1795Y166D01*
X1795Y165D01*
X1794Y165D01*
X1794Y165D01*
X1793Y165D01*
X1793Y165D01*
X1791Y165D01*
X1790Y165D01*
X1789Y164D01*
X1788D01*
X1788Y165D01*
X1788D01*
X1787Y165D01*
X1787Y165D01*
X1785Y165D01*
X1784Y165D01*
X1783Y165D01*
X1782Y166D01*
X1782D01*
X1782Y166D01*
X1782Y166D01*
X1781Y166D01*
X1781Y166D01*
X1780Y167D01*
X1779Y167D01*
X1779Y168D01*
X1778Y169D01*
X1777Y169D01*
Y170D01*
X1777Y170D01*
X1777Y170D01*
X1777Y170D01*
X1777Y170D01*
X1777Y170D01*
X1776Y171D01*
X1776Y172D01*
X1776Y173D01*
X1776Y174D01*
X1776Y175D01*
X1780Y176D01*
Y176D01*
Y175D01*
X1780Y175D01*
X1780Y175D01*
X1780Y174D01*
X1780Y174D01*
X1780Y173D01*
X1780Y172D01*
X1781Y172D01*
X1781Y172D01*
X1781Y171D01*
X1781Y171D01*
X1782Y171D01*
X1782Y170D01*
X1783Y170D01*
X1783Y170D01*
X1784Y169D01*
X1784D01*
X1784Y169D01*
X1784Y169D01*
X1785Y169D01*
X1785Y169D01*
X1786Y168D01*
X1787Y168D01*
X1788Y168D01*
X1789Y168D01*
X1789D01*
X1790Y168D01*
X1790Y168D01*
X1791Y168D01*
X1792Y168D01*
X1792Y169D01*
X1793Y169D01*
X1793Y169D01*
X1793Y169D01*
X1794Y169D01*
X1794Y169D01*
X1795Y170D01*
X1795Y170D01*
X1795Y170D01*
X1796Y171D01*
X1796Y171D01*
X1796Y171D01*
X1796Y171D01*
X1796Y172D01*
X1796Y172D01*
X1797Y173D01*
X1797Y173D01*
X1797Y174D01*
Y174D01*
Y174D01*
X1797Y174D01*
X1797Y174D01*
X1797Y175D01*
X1796Y175D01*
X1796Y176D01*
X1796Y176D01*
X1796Y176D01*
X1796Y176D01*
X1796Y177D01*
X1795Y177D01*
X1795Y177D01*
X1794Y177D01*
X1794Y178D01*
X1793Y178D01*
X1793Y178D01*
X1793Y178D01*
X1792Y178D01*
X1792Y178D01*
X1792Y178D01*
X1792Y179D01*
X1791Y179D01*
X1791Y179D01*
X1790Y179D01*
X1790Y179D01*
X1789Y179D01*
X1788Y179D01*
X1787Y180D01*
X1787D01*
X1787Y180D01*
X1787Y180D01*
X1787Y180D01*
X1786Y180D01*
X1786Y180D01*
X1785Y180D01*
X1784Y181D01*
X1783Y181D01*
X1782Y181D01*
X1782Y181D01*
X1781Y182D01*
X1781D01*
X1781Y182D01*
X1781Y182D01*
X1781Y182D01*
X1780Y182D01*
X1779Y183D01*
X1779Y183D01*
X1778Y184D01*
X1778Y185D01*
X1778Y185D01*
X1778Y185D01*
X1778Y185D01*
X1777Y186D01*
X1777Y186D01*
X1777Y187D01*
X1777Y188D01*
X1777Y189D01*
Y189D01*
Y189D01*
Y189D01*
Y189D01*
X1777Y189D01*
X1777Y190D01*
X1777Y191D01*
X1777Y191D01*
X1778Y192D01*
X1778Y193D01*
Y193D01*
X1778Y193D01*
X1778Y193D01*
X1779Y194D01*
X1779Y194D01*
X1780Y195D01*
X1780Y195D01*
X1781Y196D01*
X1782Y196D01*
X1782D01*
X1782Y196D01*
X1782Y196D01*
X1783Y196D01*
X1783Y196D01*
X1783Y197D01*
X1784Y197D01*
X1785Y197D01*
X1786Y197D01*
X1787Y197D01*
X1788Y197D01*
X1789D01*
X1789Y197D01*
D02*
G37*
G36*
X1829Y193D02*
X1819D01*
Y165D01*
X1815D01*
Y193D01*
X1804D01*
Y197D01*
X1829D01*
Y193D01*
D02*
G37*
G36*
X1760Y197D02*
X1761D01*
X1762Y197D01*
X1763Y197D01*
X1764Y196D01*
X1765Y196D01*
X1765Y196D01*
X1766Y196D01*
X1766D01*
X1766Y196D01*
X1766Y196D01*
X1766Y196D01*
X1767Y195D01*
X1767Y195D01*
X1768Y194D01*
X1769Y194D01*
X1769Y193D01*
X1769Y193D01*
X1769Y192D01*
X1769Y192D01*
X1770Y191D01*
X1770Y191D01*
X1770Y190D01*
X1770Y189D01*
X1770Y188D01*
Y188D01*
Y188D01*
Y188D01*
X1770Y188D01*
Y187D01*
X1770Y187D01*
X1770Y186D01*
X1770Y185D01*
X1769Y184D01*
X1769Y183D01*
X1769Y183D01*
X1768Y182D01*
X1768Y182D01*
X1768Y182D01*
X1768Y182D01*
X1768Y182D01*
X1767Y182D01*
X1767Y181D01*
X1767Y181D01*
X1766Y181D01*
X1766Y181D01*
X1765Y180D01*
X1764Y180D01*
X1764Y180D01*
X1763Y180D01*
X1762Y180D01*
X1761Y179D01*
X1762Y179D01*
X1762Y179D01*
X1762Y179D01*
X1762Y179D01*
X1763Y178D01*
X1764Y178D01*
X1764Y178D01*
X1764Y178D01*
X1764Y178D01*
X1765Y177D01*
X1765Y177D01*
X1766Y176D01*
X1766Y175D01*
X1767Y175D01*
X1767Y174D01*
X1773Y165D01*
X1768D01*
X1763Y172D01*
Y172D01*
X1763Y172D01*
X1763Y172D01*
X1763Y172D01*
X1763Y173D01*
X1762Y173D01*
X1762Y174D01*
X1761Y175D01*
X1761Y175D01*
X1760Y176D01*
X1760Y176D01*
X1760Y176D01*
X1760Y176D01*
X1760Y177D01*
X1759Y177D01*
X1759Y178D01*
X1758Y178D01*
X1758Y178D01*
X1758Y178D01*
X1758Y178D01*
X1758Y178D01*
X1757Y179D01*
X1756Y179D01*
X1756D01*
X1756Y179D01*
X1756D01*
X1756Y179D01*
X1756Y179D01*
X1755D01*
X1755Y179D01*
X1749D01*
Y165D01*
X1745D01*
Y197D01*
X1760D01*
X1760Y197D01*
D02*
G37*
G36*
X1662Y165D02*
X1657D01*
X1645Y197D01*
X1650D01*
X1658Y174D01*
Y174D01*
X1658Y174D01*
X1658Y173D01*
X1658Y173D01*
X1658Y173D01*
X1658Y172D01*
X1659Y171D01*
X1659Y170D01*
X1659Y168D01*
Y169D01*
X1660Y169D01*
X1660Y169D01*
X1660Y169D01*
X1660Y169D01*
X1660Y170D01*
X1660Y171D01*
X1660Y172D01*
X1661Y173D01*
X1661Y174D01*
X1670Y197D01*
X1674D01*
X1662Y165D01*
D02*
G37*
%LPC*%
G36*
X883Y671D02*
X883D01*
X883Y671D01*
X882Y671D01*
X881Y671D01*
X880Y670D01*
X879Y670D01*
X878Y669D01*
X878Y669D01*
X877Y668D01*
X877Y668D01*
X877Y668D01*
X877Y667D01*
X876Y666D01*
X876Y665D01*
X875Y664D01*
X875Y663D01*
X875Y661D01*
Y661D01*
Y661D01*
Y661D01*
X875Y661D01*
X875Y660D01*
X875Y659D01*
X876Y658D01*
X876Y657D01*
X877Y656D01*
X877Y655D01*
X877Y655D01*
X878Y655D01*
X878Y654D01*
X879Y654D01*
X880Y654D01*
X881Y653D01*
X882Y653D01*
X883Y653D01*
X883D01*
X883Y653D01*
X884Y653D01*
X885Y653D01*
X886Y653D01*
X887Y654D01*
X888Y654D01*
X888Y655D01*
X889Y655D01*
X889Y656D01*
X889Y656D01*
X890Y657D01*
X890Y658D01*
X890Y659D01*
X891Y660D01*
X891Y662D01*
Y662D01*
Y662D01*
Y662D01*
X891Y662D01*
Y663D01*
X891Y663D01*
X890Y664D01*
X890Y665D01*
X890Y666D01*
X889Y667D01*
X888Y668D01*
X888Y669D01*
X888Y669D01*
X888Y669D01*
X887Y670D01*
X886Y670D01*
X885Y671D01*
X884Y671D01*
X883Y671D01*
D02*
G37*
G36*
X2028Y625D02*
X2027D01*
X2027Y625D01*
X2026Y625D01*
X2025Y625D01*
X2025Y625D01*
X2024Y624D01*
X2023Y624D01*
X2023Y623D01*
X2022Y623D01*
X2022Y623D01*
X2022Y623D01*
X2022Y623D01*
X2022Y622D01*
X2022Y622D01*
X2021Y622D01*
X2021Y621D01*
X2021Y621D01*
X2021Y621D01*
X2021Y620D01*
X2021Y619D01*
X2020Y619D01*
X2020Y618D01*
X2020Y617D01*
Y616D01*
Y616D01*
Y616D01*
Y616D01*
X2020Y616D01*
Y615D01*
X2020Y615D01*
X2020Y614D01*
X2021Y613D01*
X2021Y612D01*
X2021Y611D01*
X2022Y610D01*
X2022Y610D01*
X2022Y610D01*
X2022Y610D01*
X2023Y609D01*
X2023Y609D01*
X2024Y608D01*
X2025Y608D01*
X2026Y608D01*
X2026Y608D01*
X2027Y608D01*
X2027D01*
X2027Y608D01*
X2028Y608D01*
X2029Y608D01*
X2029Y608D01*
X2030Y609D01*
X2031Y609D01*
X2031Y609D01*
X2032Y610D01*
Y610D01*
X2032Y610D01*
X2032Y610D01*
X2032Y610D01*
X2032Y611D01*
X2032Y611D01*
X2033Y611D01*
X2033Y612D01*
X2033Y612D01*
X2033Y612D01*
X2033Y613D01*
X2033Y614D01*
X2034Y614D01*
X2034Y615D01*
X2034Y616D01*
Y617D01*
Y617D01*
Y617D01*
Y617D01*
X2034Y617D01*
Y618D01*
X2034Y618D01*
X2034Y619D01*
X2033Y620D01*
X2033Y621D01*
X2032Y622D01*
X2032Y623D01*
Y623D01*
X2032Y623D01*
X2031Y623D01*
X2031Y624D01*
X2030Y624D01*
X2030Y625D01*
X2029Y625D01*
X2028Y625D01*
X2028Y625D01*
D02*
G37*
G36*
X1946D02*
X1945D01*
X1945Y625D01*
X1945Y625D01*
X1944Y625D01*
X1943Y625D01*
X1942Y624D01*
X1941Y624D01*
X1941Y623D01*
X1941Y623D01*
X1941Y623D01*
X1941Y623D01*
X1940Y623D01*
X1940Y622D01*
X1940Y622D01*
X1940Y622D01*
X1940Y621D01*
X1940Y621D01*
X1939Y621D01*
X1939Y620D01*
X1939Y619D01*
X1939Y619D01*
X1939Y618D01*
X1939Y617D01*
Y616D01*
Y616D01*
Y616D01*
Y616D01*
X1939Y616D01*
Y615D01*
X1939Y615D01*
X1939Y614D01*
X1939Y613D01*
X1940Y612D01*
X1940Y611D01*
X1940Y610D01*
X1941Y610D01*
X1941Y610D01*
X1941Y610D01*
X1941Y609D01*
X1942Y609D01*
X1943Y608D01*
X1944Y608D01*
X1945Y608D01*
X1945Y608D01*
X1946Y608D01*
X1946D01*
X1946Y608D01*
X1947Y608D01*
X1947Y608D01*
X1948Y608D01*
X1949Y609D01*
X1950Y609D01*
X1950Y609D01*
X1950Y610D01*
Y610D01*
X1951Y610D01*
X1951Y610D01*
X1951Y610D01*
X1951Y611D01*
X1951Y611D01*
X1951Y611D01*
X1951Y612D01*
X1952Y612D01*
X1952Y612D01*
X1952Y613D01*
X1952Y614D01*
X1952Y614D01*
X1952Y615D01*
X1952Y616D01*
Y617D01*
Y617D01*
Y617D01*
Y617D01*
X1952Y617D01*
Y618D01*
X1952Y618D01*
X1952Y619D01*
X1952Y620D01*
X1952Y621D01*
X1951Y622D01*
X1950Y623D01*
Y623D01*
X1950Y623D01*
X1950Y623D01*
X1950Y624D01*
X1949Y624D01*
X1948Y625D01*
X1948Y625D01*
X1947Y625D01*
X1946Y625D01*
D02*
G37*
G36*
X983Y654D02*
X983D01*
X982Y654D01*
X982Y654D01*
X981Y654D01*
X980Y654D01*
X979Y654D01*
X978Y653D01*
X977Y652D01*
X977Y652D01*
X977Y652D01*
X977Y651D01*
X976Y651D01*
X976Y650D01*
X975Y649D01*
X975Y648D01*
X975Y646D01*
Y646D01*
Y646D01*
X975Y646D01*
X975Y645D01*
X975Y645D01*
X975Y644D01*
X976Y643D01*
X976Y642D01*
X976Y642D01*
X976Y642D01*
X976Y642D01*
X977Y641D01*
X977Y641D01*
X978Y640D01*
X978Y640D01*
X979Y639D01*
X979Y639D01*
X979Y639D01*
X980Y639D01*
X980Y639D01*
X981Y639D01*
X981Y639D01*
X982Y638D01*
X983Y638D01*
X983D01*
X984Y638D01*
X984Y638D01*
X985Y639D01*
X986Y639D01*
X987Y639D01*
X988Y640D01*
X989Y641D01*
X989Y641D01*
X989Y641D01*
X990Y641D01*
X990Y642D01*
X990Y643D01*
X991Y644D01*
X991Y645D01*
X991Y646D01*
Y646D01*
Y646D01*
Y647D01*
X991Y647D01*
X991Y648D01*
X991Y648D01*
X991Y649D01*
X990Y650D01*
X990Y651D01*
X989Y652D01*
X989Y652D01*
X988Y652D01*
X988Y653D01*
X987Y653D01*
X986Y654D01*
X985Y654D01*
X984Y654D01*
X983Y654D01*
D02*
G37*
G36*
X1183Y656D02*
X1183D01*
X1183Y656D01*
X1182Y656D01*
X1182Y656D01*
X1181Y656D01*
X1180Y655D01*
X1179Y655D01*
X1178Y654D01*
X1178Y654D01*
X1178Y654D01*
X1177Y653D01*
X1177Y652D01*
X1176Y652D01*
X1176Y650D01*
X1176Y649D01*
X1176Y648D01*
Y648D01*
Y647D01*
X1176Y647D01*
X1176Y646D01*
X1176Y646D01*
X1176Y645D01*
X1176Y644D01*
X1177Y643D01*
X1177Y643D01*
X1177Y643D01*
X1177Y642D01*
X1177Y642D01*
X1178Y641D01*
X1178Y641D01*
X1179Y640D01*
X1180Y639D01*
X1180Y639D01*
X1180Y639D01*
X1180Y639D01*
X1181Y639D01*
X1181Y639D01*
X1182Y639D01*
X1183Y638D01*
X1184Y638D01*
X1184D01*
X1184Y638D01*
X1185Y638D01*
X1186Y639D01*
X1186Y639D01*
X1187Y639D01*
X1188Y640D01*
X1189Y641D01*
X1189Y641D01*
X1189Y641D01*
X1190Y642D01*
X1190Y643D01*
X1191Y644D01*
X1191Y645D01*
X1191Y646D01*
X1191Y648D01*
Y648D01*
Y648D01*
Y648D01*
X1191Y648D01*
Y649D01*
X1191Y649D01*
X1191Y650D01*
X1191Y651D01*
X1190Y652D01*
X1190Y653D01*
X1189Y654D01*
X1189Y654D01*
X1189Y654D01*
X1188Y655D01*
X1188Y655D01*
X1187Y656D01*
X1186Y656D01*
X1185Y656D01*
X1183Y656D01*
D02*
G37*
G36*
X1387Y667D02*
X1375Y649D01*
X1387D01*
Y667D01*
D02*
G37*
G36*
X1861Y625D02*
X1861D01*
X1861Y625D01*
X1860Y625D01*
X1859Y625D01*
X1859Y625D01*
X1858Y624D01*
X1857Y624D01*
X1857Y624D01*
X1857Y623D01*
X1857Y623D01*
X1857Y623D01*
X1856Y623D01*
X1856Y623D01*
X1856Y622D01*
X1856Y622D01*
X1856Y622D01*
X1856Y621D01*
X1855Y621D01*
X1855Y620D01*
X1855Y619D01*
X1855Y619D01*
X1855Y618D01*
X1855Y617D01*
Y616D01*
Y616D01*
Y616D01*
Y616D01*
X1855Y616D01*
Y615D01*
X1855Y615D01*
X1855Y614D01*
X1855Y613D01*
X1856Y612D01*
X1856Y611D01*
X1856Y610D01*
X1857Y610D01*
X1857Y610D01*
X1857Y610D01*
X1858Y609D01*
X1858Y609D01*
X1859Y608D01*
X1859Y608D01*
X1860Y608D01*
X1861Y608D01*
X1861Y608D01*
X1861D01*
X1862Y608D01*
X1862Y608D01*
X1863Y608D01*
X1863Y608D01*
X1864Y609D01*
X1865Y609D01*
X1865Y609D01*
X1866Y610D01*
Y610D01*
X1866Y610D01*
X1866Y610D01*
X1866Y610D01*
X1866Y610D01*
X1866Y611D01*
X1866Y611D01*
X1866Y611D01*
X1867Y612D01*
X1867Y612D01*
X1867Y613D01*
X1867Y613D01*
X1867Y614D01*
X1867Y615D01*
X1867Y615D01*
Y616D01*
Y616D01*
Y616D01*
Y617D01*
X1867Y617D01*
Y617D01*
X1867Y618D01*
X1867Y619D01*
X1867Y620D01*
X1867Y621D01*
X1866Y622D01*
X1866Y623D01*
X1865Y623D01*
Y623D01*
X1865Y623D01*
X1865Y623D01*
X1865Y624D01*
X1864Y624D01*
X1864Y625D01*
X1863Y625D01*
X1862Y625D01*
X1861Y625D01*
D02*
G37*
G36*
X983Y671D02*
X983D01*
X982Y671D01*
X981Y671D01*
X981Y671D01*
X980Y670D01*
X979Y670D01*
X978Y669D01*
X978Y669D01*
X978Y669D01*
X978Y668D01*
X978Y668D01*
X977Y667D01*
X977Y667D01*
X977Y666D01*
X977Y665D01*
Y665D01*
Y664D01*
X977Y664D01*
X977Y663D01*
X977Y662D01*
X977Y662D01*
X978Y661D01*
X978Y660D01*
X978Y660D01*
X979Y660D01*
X979Y660D01*
X980Y659D01*
X980Y659D01*
X981Y659D01*
X982Y659D01*
X983Y658D01*
X984D01*
X984Y659D01*
X985Y659D01*
X985Y659D01*
X986Y659D01*
X987Y660D01*
X988Y660D01*
X988Y660D01*
X988Y661D01*
X988Y661D01*
X989Y661D01*
X989Y662D01*
X989Y663D01*
X989Y664D01*
X990Y665D01*
Y665D01*
Y665D01*
Y665D01*
X989Y666D01*
X989Y666D01*
X989Y667D01*
X989Y668D01*
X988Y668D01*
X988Y669D01*
X988Y669D01*
X987Y669D01*
X987Y670D01*
X986Y670D01*
X986Y670D01*
X985Y671D01*
X984Y671D01*
X983Y671D01*
D02*
G37*
G36*
X1307Y201D02*
X1307D01*
X1307Y201D01*
X1306Y201D01*
X1305Y201D01*
X1304Y200D01*
X1304Y200D01*
X1303Y199D01*
X1302Y198D01*
X1302Y198D01*
Y198D01*
X1302Y198D01*
X1302Y198D01*
X1302Y197D01*
X1301Y197D01*
X1301Y196D01*
X1301Y196D01*
X1301Y195D01*
X1300Y194D01*
X1300Y193D01*
X1300Y192D01*
X1300Y191D01*
X1300Y189D01*
X1300Y188D01*
X1299Y186D01*
Y185D01*
Y184D01*
Y184D01*
Y184D01*
X1299Y183D01*
Y182D01*
X1300Y181D01*
X1300Y180D01*
X1300Y179D01*
X1300Y177D01*
X1300Y175D01*
X1301Y174D01*
X1301Y173D01*
X1301Y172D01*
X1302Y172D01*
Y171D01*
X1302Y171D01*
X1302Y171D01*
X1303Y171D01*
X1303Y170D01*
X1304Y169D01*
X1305Y169D01*
X1306Y168D01*
X1307Y168D01*
X1307Y168D01*
X1308D01*
X1308Y168D01*
X1308Y169D01*
X1309Y169D01*
X1310Y169D01*
X1311Y170D01*
X1312Y170D01*
X1312Y171D01*
X1313Y171D01*
X1313Y172D01*
Y172D01*
X1313Y172D01*
X1313Y172D01*
X1313Y172D01*
X1314Y173D01*
X1314Y173D01*
X1314Y174D01*
X1314Y174D01*
X1314Y175D01*
X1315Y176D01*
X1315Y177D01*
X1315Y178D01*
X1315Y180D01*
X1315Y181D01*
X1315Y183D01*
Y185D01*
Y185D01*
Y185D01*
Y186D01*
X1315Y186D01*
Y187D01*
X1315Y188D01*
X1315Y189D01*
X1315Y190D01*
X1315Y192D01*
X1314Y194D01*
X1314Y195D01*
X1314Y196D01*
X1313Y197D01*
X1313Y198D01*
Y198D01*
X1313Y198D01*
X1313Y198D01*
X1312Y199D01*
X1311Y199D01*
X1311Y200D01*
X1310Y200D01*
X1308Y201D01*
X1308Y201D01*
X1307Y201D01*
D02*
G37*
G36*
X1759Y193D02*
X1749D01*
Y183D01*
X1759D01*
X1759Y183D01*
X1760Y183D01*
X1761Y183D01*
X1761Y183D01*
X1762Y183D01*
X1763Y183D01*
X1763Y183D01*
X1763Y183D01*
X1763Y184D01*
X1764Y184D01*
X1764Y184D01*
X1764Y184D01*
X1765Y185D01*
X1765Y185D01*
X1765Y185D01*
X1765Y185D01*
X1765Y186D01*
X1766Y186D01*
X1766Y186D01*
X1766Y187D01*
X1766Y188D01*
X1766Y188D01*
Y188D01*
Y188D01*
Y188D01*
X1766Y189D01*
X1766Y189D01*
X1766Y190D01*
X1765Y191D01*
X1765Y191D01*
X1764Y192D01*
X1764Y192D01*
X1764Y192D01*
X1764Y192D01*
X1763Y193D01*
X1762Y193D01*
X1762Y193D01*
X1760Y193D01*
X1759Y193D01*
D02*
G37*
G36*
X1923Y193D02*
X1917D01*
Y169D01*
X1924D01*
X1925Y169D01*
X1925Y169D01*
X1926Y169D01*
X1927Y169D01*
X1928Y169D01*
X1928Y169D01*
X1929Y169D01*
X1929Y169D01*
X1929Y170D01*
X1929Y170D01*
X1930Y170D01*
X1930Y170D01*
X1931Y171D01*
X1931Y171D01*
X1931Y171D01*
X1932Y171D01*
X1932Y172D01*
X1932Y172D01*
X1933Y173D01*
X1933Y173D01*
X1933Y174D01*
X1934Y175D01*
Y175D01*
X1934Y175D01*
X1934Y175D01*
X1934Y175D01*
X1934Y176D01*
X1934Y176D01*
X1934Y177D01*
X1934Y178D01*
X1934Y179D01*
X1934Y180D01*
X1934Y181D01*
Y181D01*
Y181D01*
Y182D01*
Y182D01*
X1934Y182D01*
X1934Y183D01*
X1934Y183D01*
X1934Y184D01*
X1934Y185D01*
X1934Y186D01*
X1933Y188D01*
X1933Y188D01*
X1933Y189D01*
Y189D01*
X1933Y189D01*
X1933Y189D01*
X1933Y189D01*
X1932Y190D01*
X1932Y190D01*
X1931Y191D01*
X1930Y191D01*
X1930Y192D01*
X1929Y192D01*
X1929Y192D01*
X1929Y192D01*
X1928Y193D01*
X1928Y193D01*
X1927Y193D01*
X1926Y193D01*
X1925Y193D01*
X1923Y193D01*
D02*
G37*
G36*
X1273Y201D02*
Y201D01*
X1273Y200D01*
Y200D01*
X1273Y200D01*
X1273Y200D01*
X1273Y199D01*
X1272Y198D01*
X1272Y197D01*
X1272Y196D01*
X1271Y194D01*
X1271Y193D01*
X1266Y181D01*
X1280D01*
X1276Y192D01*
Y192D01*
X1276Y193D01*
X1276Y193D01*
X1275Y193D01*
X1275Y194D01*
X1275Y194D01*
X1275Y195D01*
X1274Y197D01*
X1274Y198D01*
X1273Y199D01*
X1273Y201D01*
D02*
G37*
G36*
X1574Y194D02*
Y193D01*
X1574Y193D01*
Y193D01*
X1574Y193D01*
X1574Y193D01*
X1574Y192D01*
X1574Y192D01*
X1574Y191D01*
X1573Y190D01*
X1573Y188D01*
X1573Y187D01*
X1569Y178D01*
X1580D01*
X1577Y187D01*
Y187D01*
X1577Y187D01*
X1576Y187D01*
X1576Y188D01*
X1576Y188D01*
X1576Y188D01*
X1576Y189D01*
X1575Y190D01*
X1575Y191D01*
X1575Y192D01*
X1574Y194D01*
D02*
G37*
G36*
X1474D02*
Y193D01*
X1474Y193D01*
Y193D01*
X1474Y193D01*
X1474Y193D01*
X1474Y192D01*
X1474Y192D01*
X1474Y191D01*
X1473Y190D01*
X1473Y188D01*
X1473Y187D01*
X1469Y178D01*
X1480D01*
X1477Y187D01*
Y187D01*
X1477Y187D01*
X1476Y187D01*
X1476Y188D01*
X1476Y188D01*
X1476Y188D01*
X1476Y189D01*
X1475Y190D01*
X1475Y191D01*
X1475Y192D01*
X1474Y194D01*
D02*
G37*
G36*
X1373Y201D02*
Y201D01*
X1373Y200D01*
Y200D01*
X1373Y200D01*
X1373Y200D01*
X1373Y199D01*
X1372Y198D01*
X1372Y197D01*
X1372Y196D01*
X1371Y194D01*
X1371Y193D01*
X1366Y181D01*
X1380D01*
X1376Y192D01*
Y192D01*
X1376Y193D01*
X1376Y193D01*
X1375Y193D01*
X1375Y194D01*
X1375Y194D01*
X1375Y195D01*
X1374Y197D01*
X1374Y198D01*
X1373Y199D01*
X1373Y201D01*
D02*
G37*
G36*
X1718Y668D02*
X1712D01*
Y644D01*
X1719D01*
X1720Y644D01*
X1720Y644D01*
X1721Y644D01*
X1722Y644D01*
X1723Y644D01*
X1723Y644D01*
X1724Y644D01*
X1724Y644D01*
X1724Y645D01*
X1724Y645D01*
X1725Y645D01*
X1725Y645D01*
X1726Y646D01*
X1726Y646D01*
X1726Y646D01*
X1727Y646D01*
X1727Y647D01*
X1727Y647D01*
X1728Y648D01*
X1728Y648D01*
X1728Y649D01*
X1729Y650D01*
Y650D01*
X1729Y650D01*
X1729Y650D01*
X1729Y650D01*
X1729Y651D01*
X1729Y651D01*
X1729Y652D01*
X1729Y653D01*
X1729Y654D01*
X1729Y655D01*
X1729Y656D01*
Y656D01*
Y656D01*
Y657D01*
Y657D01*
X1729Y657D01*
X1729Y658D01*
X1729Y658D01*
X1729Y659D01*
X1729Y660D01*
X1729Y661D01*
X1728Y663D01*
X1728Y663D01*
X1728Y664D01*
Y664D01*
X1728Y664D01*
X1728Y664D01*
X1728Y664D01*
X1727Y665D01*
X1727Y665D01*
X1726Y666D01*
X1725Y666D01*
X1725Y667D01*
X1724Y667D01*
X1724Y667D01*
X1724Y667D01*
X1723Y668D01*
X1723Y668D01*
X1722Y668D01*
X1721Y668D01*
X1720Y668D01*
X1718Y668D01*
D02*
G37*
G36*
X1987Y633D02*
X1978D01*
Y622D01*
X1987D01*
X1987Y622D01*
X1987D01*
X1988Y622D01*
X1988Y622D01*
X1989Y622D01*
X1990Y622D01*
X1991Y623D01*
X1992Y623D01*
X1992Y623D01*
X1992Y623D01*
X1992Y623D01*
X1993Y624D01*
X1993Y624D01*
X1993Y625D01*
X1993Y626D01*
X1994Y626D01*
X1994Y627D01*
Y628D01*
Y628D01*
X1994Y628D01*
X1994Y629D01*
X1993Y629D01*
X1993Y630D01*
X1993Y630D01*
X1993Y631D01*
X1993Y631D01*
X1993Y631D01*
X1992Y631D01*
X1992Y632D01*
X1992Y632D01*
X1991Y632D01*
X1991Y633D01*
X1990Y633D01*
X1990D01*
X1990Y633D01*
X1990Y633D01*
X1989Y633D01*
X1989Y633D01*
X1988Y633D01*
X1987Y633D01*
D02*
G37*
G36*
X1819Y634D02*
Y633D01*
X1819Y633D01*
Y633D01*
X1819Y633D01*
X1819Y633D01*
X1819Y632D01*
X1819Y632D01*
X1819Y631D01*
X1818Y630D01*
X1818Y628D01*
X1818Y627D01*
X1814Y618D01*
X1825D01*
X1822Y627D01*
Y627D01*
X1822Y627D01*
X1821Y627D01*
X1821Y628D01*
X1821Y628D01*
X1821Y628D01*
X1821Y629D01*
X1820Y630D01*
X1820Y631D01*
X1820Y632D01*
X1819Y634D01*
D02*
G37*
G36*
X1959Y193D02*
X1949D01*
Y183D01*
X1959D01*
X1959Y183D01*
X1960Y183D01*
X1961Y183D01*
X1961Y183D01*
X1962Y183D01*
X1963Y183D01*
X1963Y183D01*
X1963Y183D01*
X1963Y184D01*
X1964Y184D01*
X1964Y184D01*
X1964Y184D01*
X1965Y185D01*
X1965Y185D01*
X1965Y185D01*
X1965Y185D01*
X1965Y186D01*
X1966Y186D01*
X1966Y186D01*
X1966Y187D01*
X1966Y188D01*
X1966Y188D01*
Y188D01*
Y188D01*
Y188D01*
X1966Y189D01*
X1966Y189D01*
X1966Y190D01*
X1965Y191D01*
X1965Y191D01*
X1964Y192D01*
X1964Y192D01*
X1964Y192D01*
X1964Y192D01*
X1963Y193D01*
X1962Y193D01*
X1962Y193D01*
X1960Y193D01*
X1959Y193D01*
D02*
G37*
G36*
X895Y198D02*
X895D01*
X895Y198D01*
X895Y198D01*
X894Y198D01*
X894Y197D01*
X893Y197D01*
X892Y197D01*
X892Y196D01*
X892Y196D01*
Y196D01*
X892Y196D01*
X892Y196D01*
X892Y195D01*
X892Y195D01*
X891Y195D01*
X891Y194D01*
X891Y194D01*
X891Y193D01*
X891Y193D01*
X891Y192D01*
X891Y191D01*
X891Y191D01*
X890Y190D01*
X890Y189D01*
Y187D01*
Y187D01*
Y187D01*
Y187D01*
X890Y186D01*
Y186D01*
X890Y185D01*
X891Y185D01*
X891Y184D01*
X891Y183D01*
X891Y181D01*
X891Y181D01*
X891Y180D01*
X892Y180D01*
X892Y179D01*
Y179D01*
X892Y179D01*
X892Y179D01*
X892Y178D01*
X893Y178D01*
X893Y178D01*
X894Y177D01*
X895Y177D01*
X895Y177D01*
X895Y177D01*
X896D01*
X896Y177D01*
X896Y177D01*
X897Y177D01*
X897Y178D01*
X898Y178D01*
X898Y178D01*
X898Y178D01*
X899Y179D01*
X899Y179D01*
Y179D01*
X899Y179D01*
X899Y179D01*
X899Y180D01*
X899Y180D01*
X899Y180D01*
X900Y181D01*
X900Y181D01*
X900Y181D01*
X900Y182D01*
X900Y183D01*
X900Y184D01*
X900Y184D01*
X900Y185D01*
X900Y186D01*
Y187D01*
Y188D01*
Y188D01*
Y188D01*
X900Y188D01*
Y189D01*
X900Y190D01*
X900Y190D01*
X900Y191D01*
X900Y192D01*
X900Y194D01*
X900Y194D01*
X899Y195D01*
X899Y195D01*
X899Y196D01*
Y196D01*
X899Y196D01*
X899Y196D01*
X898Y196D01*
X898Y197D01*
X897Y197D01*
X897Y197D01*
X896Y198D01*
X896Y198D01*
X895Y198D01*
D02*
G37*
G36*
X1988Y194D02*
Y193D01*
X1988Y193D01*
Y193D01*
X1988Y193D01*
X1988Y193D01*
X1988Y192D01*
X1987Y192D01*
X1987Y191D01*
X1987Y190D01*
X1986Y188D01*
X1986Y187D01*
X1983Y178D01*
X1993D01*
X1990Y187D01*
Y187D01*
X1990Y187D01*
X1990Y187D01*
X1990Y188D01*
X1990Y188D01*
X1990Y188D01*
X1989Y189D01*
X1989Y190D01*
X1989Y191D01*
X1988Y192D01*
X1988Y194D01*
D02*
G37*
G36*
X2117Y110D02*
X2110D01*
Y85D01*
X2117D01*
X2118Y85D01*
X2118Y85D01*
X2119Y86D01*
X2120Y86D01*
X2121Y86D01*
X2122Y86D01*
X2122Y86D01*
X2122Y86D01*
X2122Y86D01*
X2123Y86D01*
X2123Y87D01*
X2124Y87D01*
X2124Y87D01*
X2124Y88D01*
X2124Y88D01*
X2125Y88D01*
X2125Y88D01*
X2125Y89D01*
X2126Y89D01*
X2126Y90D01*
X2126Y91D01*
X2127Y92D01*
Y92D01*
X2127Y92D01*
X2127Y92D01*
X2127Y92D01*
X2127Y92D01*
X2127Y93D01*
X2127Y93D01*
X2127Y94D01*
X2127Y95D01*
X2128Y96D01*
X2128Y98D01*
Y98D01*
Y98D01*
Y98D01*
Y99D01*
X2128Y99D01*
X2127Y100D01*
X2127Y100D01*
X2127Y101D01*
X2127Y102D01*
X2127Y103D01*
X2126Y104D01*
X2126Y105D01*
X2126Y105D01*
Y105D01*
X2126Y106D01*
X2126Y106D01*
X2126Y106D01*
X2125Y106D01*
X2125Y107D01*
X2124Y108D01*
X2124Y108D01*
X2123Y109D01*
X2122Y109D01*
X2122Y109D01*
X2122Y109D01*
X2121Y109D01*
X2121Y109D01*
X2120Y110D01*
X2119Y110D01*
X2118Y110D01*
X2117Y110D01*
D02*
G37*
%LPD*%
D16*
X224Y619D02*
Y671D01*
D20*
X130Y215D02*
G03*
X130Y215I-11J0D01*
G01*
X1642Y1130D02*
G03*
X1642Y1130I-11J0D01*
G01*
X1332D02*
G03*
X1332Y1130I-11J0D01*
G01*
X1097D02*
G03*
X1097Y1130I-11J0D01*
G01*
X500Y2709D02*
X1732D01*
X500D02*
Y3226D01*
X1732D01*
Y2709D02*
Y3226D01*
X132Y1264D02*
Y2288D01*
X2112D01*
X132Y1264D02*
X2112D01*
Y2288D01*
X130Y732D02*
X760D01*
X130Y1228D02*
X760D01*
Y732D02*
Y1228D01*
X130Y732D02*
Y1228D01*
X875Y1115D02*
Y1135D01*
X865Y1145D01*
X825D01*
X815Y1135D01*
Y1115D01*
X825Y1105D01*
X865D01*
X875Y1115D01*
X815Y1085D02*
X875D01*
Y1055D01*
X865Y1045D01*
X845D01*
X835Y1055D01*
Y1085D01*
X875Y1025D02*
Y985D01*
Y1005D01*
X815D01*
Y935D02*
X875D01*
X845Y965D01*
Y925D01*
X137Y2323D02*
Y2383D01*
X167D01*
X177Y2373D01*
Y2353D01*
X167Y2343D01*
X137D01*
X157D02*
X177Y2323D01*
X237Y2383D02*
X197D01*
Y2323D01*
X237D01*
X197Y2353D02*
X217D01*
X297Y2373D02*
X287Y2383D01*
X267D01*
X257Y2373D01*
Y2333D01*
X267Y2323D01*
X287D01*
X297Y2333D01*
Y2353D01*
X277D01*
X317Y2323D02*
X337D01*
X327D01*
Y2383D01*
X317Y2373D01*
X2035Y855D02*
Y805D01*
X2045Y795D01*
X2065D01*
X2075Y805D01*
Y855D01*
X2095Y795D02*
X2115D01*
X2105D01*
Y855D01*
X2095Y845D01*
X545Y3312D02*
X535Y3322D01*
X515D01*
X505Y3312D01*
Y3272D01*
X515Y3262D01*
X535D01*
X545Y3272D01*
X595Y3322D02*
X575D01*
X565Y3312D01*
Y3272D01*
X575Y3262D01*
X595D01*
X605Y3272D01*
Y3312D01*
X595Y3322D01*
X625Y3262D02*
Y3322D01*
X665Y3262D01*
Y3322D01*
X685Y3262D02*
X705D01*
X695D01*
Y3322D01*
X685Y3312D01*
X60Y300D02*
Y280D01*
X70Y270D01*
X110D01*
X120Y280D01*
Y300D01*
X110Y310D01*
X70D01*
X60Y300D01*
X120Y330D02*
X60D01*
Y360D01*
X70Y370D01*
X90D01*
X100Y360D01*
Y330D01*
X60Y390D02*
Y430D01*
Y410D01*
X120D01*
Y450D02*
Y470D01*
Y460D01*
X60D01*
X70Y450D01*
X1725Y1115D02*
Y1135D01*
X1715Y1145D01*
X1675D01*
X1665Y1135D01*
Y1115D01*
X1675Y1105D01*
X1715D01*
X1725Y1115D01*
X1665Y1085D02*
X1725D01*
Y1055D01*
X1715Y1045D01*
X1695D01*
X1685Y1055D01*
Y1085D01*
X1725Y1025D02*
Y985D01*
Y1005D01*
X1665D01*
Y925D02*
Y965D01*
X1705Y925D01*
X1715D01*
X1725Y935D01*
Y955D01*
X1715Y965D01*
X420Y200D02*
Y260D01*
X450D01*
X460Y250D01*
Y230D01*
X450Y220D01*
X420D01*
X440D02*
X460Y200D01*
X480D02*
X500D01*
X490D01*
Y260D01*
X480Y250D01*
X200Y590D02*
Y530D01*
X230D01*
X240Y540D01*
Y580D01*
X230Y590D01*
X200D01*
X260Y530D02*
X280D01*
X270D01*
Y590D01*
X260Y580D01*
X135Y1263D02*
Y1323D01*
X165D01*
X175Y1313D01*
Y1293D01*
X165Y1283D01*
X135D01*
X155D02*
X175Y1263D01*
X195Y1323D02*
Y1263D01*
X235D01*
X255D02*
X275D01*
X265D01*
Y1323D01*
X255Y1313D01*
X1415Y1115D02*
Y1135D01*
X1405Y1145D01*
X1365D01*
X1355Y1135D01*
Y1115D01*
X1365Y1105D01*
X1405D01*
X1415Y1115D01*
X1355Y1085D02*
X1415D01*
Y1055D01*
X1405Y1045D01*
X1385D01*
X1375Y1055D01*
Y1085D01*
X1415Y1025D02*
Y985D01*
Y1005D01*
X1355D01*
X1405Y965D02*
X1415Y955D01*
Y935D01*
X1405Y925D01*
X1395D01*
X1385Y935D01*
Y945D01*
Y935D01*
X1375Y925D01*
X1365D01*
X1355Y935D01*
Y955D01*
X1365Y965D01*
X1707Y2660D02*
X1747D01*
X1707Y2620D01*
Y2610D01*
X1717Y2600D01*
X1737D01*
X1747Y2610D01*
X1737Y2443D02*
X1717D01*
X1727D01*
Y2383D01*
X1737Y2393D01*
D30*
X835Y770D02*
X2135D01*
X835Y70D02*
Y770D01*
X2135Y70D02*
Y770D01*
X835Y70D02*
X2135D01*
X5473Y283D02*
X5445Y358D01*
X5416Y283D01*
X5427Y308D02*
X5462D01*
X5541Y347D02*
X5533Y354D01*
X5523Y358D01*
X5508D01*
X5498Y354D01*
X5491Y347D01*
Y340D01*
X5494Y333D01*
X5498Y329D01*
X5505Y326D01*
X5526Y319D01*
X5533Y315D01*
X5537Y312D01*
X5541Y304D01*
Y294D01*
X5533Y287D01*
X5523Y283D01*
X5508D01*
X5498Y287D01*
X5491Y294D01*
X5607Y347D02*
X5600Y354D01*
X5590Y358D01*
X5575D01*
X5565Y354D01*
X5557Y347D01*
Y340D01*
X5561Y333D01*
X5565Y329D01*
X5572Y326D01*
X5593Y319D01*
X5600Y315D01*
X5604Y312D01*
X5607Y304D01*
Y294D01*
X5600Y287D01*
X5590Y283D01*
X5575D01*
X5565Y287D01*
X5557Y294D01*
X5624Y358D02*
X5653Y322D01*
Y283D01*
X5681Y358D02*
X5653Y322D01*
X5750Y358D02*
Y283D01*
Y358D02*
X5800Y283D01*
Y358D02*
Y283D01*
X5842Y358D02*
X5835Y354D01*
X5828Y347D01*
X5824Y340D01*
X5821Y329D01*
Y312D01*
X5824Y301D01*
X5828Y294D01*
X5835Y287D01*
X5842Y283D01*
X5856D01*
X5863Y287D01*
X5871Y294D01*
X5874Y301D01*
X5878Y312D01*
Y329D01*
X5874Y340D01*
X5871Y347D01*
X5863Y354D01*
X5856Y358D01*
X5842D01*
X5899Y290D02*
X5895Y287D01*
X5899Y283D01*
X5902Y287D01*
X5899Y290D01*
X5922Y333D02*
X5919Y329D01*
X5922Y326D01*
X5926Y329D01*
X5922Y333D01*
Y290D02*
X5919Y287D01*
X5922Y283D01*
X5926Y287D01*
X5922Y290D01*
X6001Y358D02*
X6051Y283D01*
Y358D02*
X6001Y283D01*
X6068Y358D02*
X6118Y283D01*
Y358D02*
X6068Y283D01*
X6135Y358D02*
X6185Y283D01*
Y358D02*
X6135Y283D01*
X6202Y358D02*
X6252Y283D01*
Y358D02*
X6202Y283D01*
X6268Y358D02*
X6318Y283D01*
Y358D02*
X6268Y283D01*
X6335Y358D02*
X6385Y283D01*
Y358D02*
X6335Y283D01*
X5459Y654D02*
X5456Y659D01*
X5450Y665D01*
X5445Y668D01*
X5433D01*
X5427Y665D01*
X5422Y659D01*
X5419Y654D01*
X5416Y645D01*
Y631D01*
X5419Y622D01*
X5422Y617D01*
X5427Y611D01*
X5433Y608D01*
X5445D01*
X5450Y611D01*
X5456Y617D01*
X5459Y622D01*
X5570Y665D02*
Y669D01*
X5573Y676D01*
X5577Y679D01*
X5584Y683D01*
X5598D01*
X5605Y679D01*
X5609Y676D01*
X5612Y669D01*
Y662D01*
X5609Y654D01*
X5602Y644D01*
X5566Y608D01*
X5616D01*
X5654Y683D02*
X5643Y679D01*
X5636Y669D01*
X5633Y651D01*
Y640D01*
X5636Y622D01*
X5643Y612D01*
X5654Y608D01*
X5661D01*
X5672Y612D01*
X5679Y622D01*
X5683Y640D01*
Y651D01*
X5679Y669D01*
X5672Y679D01*
X5661Y683D01*
X5654D01*
X5721D02*
X5710Y679D01*
X5703Y669D01*
X5700Y651D01*
Y640D01*
X5703Y622D01*
X5710Y612D01*
X5721Y608D01*
X5728D01*
X5739Y612D01*
X5746Y622D01*
X5750Y640D01*
Y651D01*
X5746Y669D01*
X5739Y679D01*
X5728Y683D01*
X5721D01*
X5770Y665D02*
Y669D01*
X5773Y676D01*
X5777Y679D01*
X5784Y683D01*
X5798D01*
X5806Y679D01*
X5809Y676D01*
X5813Y669D01*
Y662D01*
X5809Y654D01*
X5802Y644D01*
X5766Y608D01*
X5816D01*
X5946Y665D02*
X5942Y672D01*
X5935Y679D01*
X5928Y683D01*
X5913D01*
X5906Y679D01*
X5899Y672D01*
X5896Y665D01*
X5892Y654D01*
Y637D01*
X5896Y626D01*
X5899Y619D01*
X5906Y612D01*
X5913Y608D01*
X5928D01*
X5935Y612D01*
X5942Y619D01*
X5946Y626D01*
X5988Y683D02*
X5981Y679D01*
X5974Y672D01*
X5970Y665D01*
X5967Y654D01*
Y637D01*
X5970Y626D01*
X5974Y619D01*
X5981Y612D01*
X5988Y608D01*
X6002D01*
X6009Y612D01*
X6017Y619D01*
X6020Y626D01*
X6024Y637D01*
Y654D01*
X6020Y665D01*
X6017Y672D01*
X6009Y679D01*
X6002Y683D01*
X5988D01*
X6041D02*
Y608D01*
Y683D02*
X6070Y608D01*
X6098Y683D02*
X6070Y608D01*
X6098Y683D02*
Y608D01*
X6120Y644D02*
X6152D01*
X6163Y647D01*
X6166Y651D01*
X6170Y658D01*
Y669D01*
X6166Y676D01*
X6163Y679D01*
X6152Y683D01*
X6120D01*
Y608D01*
X6244D02*
X6215Y683D01*
X6187Y608D01*
X6197Y633D02*
X6233D01*
X6261Y683D02*
Y608D01*
Y683D02*
X6311Y608D01*
Y683D02*
Y608D01*
X6332Y683D02*
X6360Y647D01*
Y608D01*
X6389Y683D02*
X6360Y647D01*
X6458Y683D02*
Y608D01*
Y683D02*
X6508Y608D01*
Y683D02*
Y608D01*
X6585D02*
X6557Y683D01*
X6528Y608D01*
X6539Y633D02*
X6575D01*
X6603Y683D02*
Y608D01*
Y683D02*
X6631Y608D01*
X6660Y683D02*
X6631Y608D01*
X6660Y683D02*
Y608D01*
X6728Y683D02*
X6681D01*
Y608D01*
X6728D01*
X6681Y647D02*
X6710D01*
X5416Y508D02*
Y433D01*
Y508D02*
X5448D01*
X5459Y504D01*
X5462Y501D01*
X5466Y494D01*
Y487D01*
X5462Y479D01*
X5459Y476D01*
X5448Y472D01*
X5416D02*
X5448D01*
X5459Y469D01*
X5462Y465D01*
X5466Y458D01*
Y447D01*
X5462Y440D01*
X5459Y437D01*
X5448Y433D01*
X5416D01*
X5504Y508D02*
X5497Y504D01*
X5490Y497D01*
X5486Y490D01*
X5483Y479D01*
Y462D01*
X5486Y451D01*
X5490Y444D01*
X5497Y437D01*
X5504Y433D01*
X5518D01*
X5526Y437D01*
X5533Y444D01*
X5536Y451D01*
X5540Y462D01*
Y479D01*
X5536Y490D01*
X5533Y497D01*
X5526Y504D01*
X5518Y508D01*
X5504D01*
X5615Y433D02*
X5586Y508D01*
X5557Y433D01*
X5568Y458D02*
X5604D01*
X5632Y508D02*
Y433D01*
Y508D02*
X5664D01*
X5675Y504D01*
X5678Y501D01*
X5682Y494D01*
Y487D01*
X5678Y479D01*
X5675Y476D01*
X5664Y472D01*
X5632D01*
X5657D02*
X5682Y433D01*
X5699Y508D02*
Y433D01*
Y508D02*
X5724D01*
X5735Y504D01*
X5742Y497D01*
X5745Y490D01*
X5749Y479D01*
Y462D01*
X5745Y451D01*
X5742Y444D01*
X5735Y437D01*
X5724Y433D01*
X5699D01*
X5824Y508D02*
Y433D01*
Y508D02*
X5874Y433D01*
Y508D02*
Y433D01*
X5952D02*
X5924Y508D01*
X5895Y433D01*
X5906Y458D02*
X5942D01*
X5970Y508D02*
Y433D01*
Y508D02*
X5998Y433D01*
X6027Y508D02*
X5998Y433D01*
X6027Y508D02*
Y433D01*
X6095Y508D02*
X6048D01*
Y433D01*
X6095D01*
X6048Y472D02*
X6077D01*
D31*
X5313Y606D02*
D03*
D32*
X142Y283D02*
G03*
X142Y347I-22J32D01*
G01*
X1608Y1062D02*
G03*
X1608Y998I22J-32D01*
G01*
X1298Y1062D02*
G03*
X1298Y998I22J-32D01*
G01*
X1063Y1062D02*
G03*
X1063Y998I22J-32D01*
G01*
X343Y220D02*
X387D01*
D33*
X140Y230D02*
X305D01*
Y405D01*
X140D02*
X305D01*
X140Y230D02*
Y405D01*
X218Y612D02*
X281D01*
X218Y678D02*
X281D01*
X218Y614D02*
Y676D01*
X1445Y1115D02*
X1610D01*
X1445Y940D02*
Y1115D01*
Y940D02*
X1610D01*
Y1115D01*
X1135D02*
X1300D01*
X1135Y940D02*
Y1115D01*
Y940D02*
X1300D01*
Y1115D01*
X1065Y940D02*
Y1115D01*
X900Y940D02*
X1065D01*
X900D02*
Y1115D01*
X1065D01*
X328Y141D02*
X402D01*
X328Y299D02*
X402D01*
Y141D02*
Y299D01*
X328Y141D02*
Y299D01*
D34*
X250Y603D02*
X250D01*
X250Y687D02*
X250D01*
D35*
X137Y612D02*
Y678D01*
M02*
