%FSLAX23Y23*%
%MOIN*%
G70*
G01*
G75*
G04 Layer_Color=16711935*
G04:AMPARAMS|DCode=10|XSize=51mil|YSize=118mil|CornerRadius=0mil|HoleSize=0mil|Usage=FLASHONLY|Rotation=0.000|XOffset=0mil|YOffset=0mil|HoleType=Round|Shape=Octagon|*
%AMOCTAGOND10*
4,1,8,-0.013,0.059,0.013,0.059,0.026,0.046,0.026,-0.046,0.013,-0.059,-0.013,-0.059,-0.026,-0.046,-0.026,0.046,-0.013,0.059,0.0*
%
%ADD10OCTAGOND10*%

%ADD11R,0.051X0.118*%
%ADD12R,0.051X0.073*%
%ADD13R,0.055X0.043*%
%ADD14C,0.059*%
%ADD15C,0.039*%
%ADD16C,0.020*%
%ADD17C,0.030*%
%ADD18C,0.020*%
%ADD19C,0.157*%
%ADD20C,0.010*%
%ADD21C,0.074*%
%ADD22O,0.098X0.118*%
G04:AMPARAMS|DCode=23|XSize=98mil|YSize=118mil|CornerRadius=0mil|HoleSize=0mil|Usage=FLASHONLY|Rotation=180.000|XOffset=0mil|YOffset=0mil|HoleType=Round|Shape=Octagon|*
%AMOCTAGOND23*
4,1,8,0.025,-0.059,-0.025,-0.059,-0.049,-0.034,-0.049,0.034,-0.025,0.059,0.025,0.059,0.049,0.034,0.049,-0.034,0.025,-0.059,0.0*
%
%ADD23OCTAGOND23*%

%ADD24C,0.091*%
%ADD25C,0.060*%
%ADD26C,0.031*%
%ADD27C,0.017*%
%ADD28R,0.047X0.026*%
%ADD29R,0.043X0.055*%
%ADD30C,0.008*%
%ADD31C,0.010*%
%ADD32C,0.008*%
%ADD33C,0.006*%
%ADD34C,0.010*%
%ADD35C,0.012*%
G04:AMPARAMS|DCode=36|XSize=59mil|YSize=126mil|CornerRadius=0mil|HoleSize=0mil|Usage=FLASHONLY|Rotation=0.000|XOffset=0mil|YOffset=0mil|HoleType=Round|Shape=Octagon|*
%AMOCTAGOND36*
4,1,8,-0.015,0.063,0.015,0.063,0.030,0.048,0.030,-0.048,0.015,-0.063,-0.015,-0.063,-0.030,-0.048,-0.030,0.048,-0.015,0.063,0.0*
%
%ADD36OCTAGOND36*%

%ADD37R,0.059X0.126*%
%ADD38R,0.059X0.081*%
%ADD39R,0.063X0.051*%
%ADD40C,0.082*%
%ADD41O,0.106X0.126*%
G04:AMPARAMS|DCode=42|XSize=106mil|YSize=126mil|CornerRadius=0mil|HoleSize=0mil|Usage=FLASHONLY|Rotation=180.000|XOffset=0mil|YOffset=0mil|HoleType=Round|Shape=Octagon|*
%AMOCTAGOND42*
4,1,8,0.027,-0.063,-0.027,-0.063,-0.053,-0.036,-0.053,0.036,-0.027,0.063,0.027,0.063,0.053,0.036,0.053,-0.036,0.027,-0.063,0.0*
%
%ADD42OCTAGOND42*%

%ADD43C,0.099*%
%ADD44C,0.068*%
%ADD45C,0.039*%
%ADD46C,0.025*%
%ADD47R,0.055X0.034*%
%ADD48R,0.051X0.063*%
D39*
X1590Y478D02*
D03*
X1590Y572D02*
D03*
X1185Y463D02*
D03*
X1185Y557D02*
D03*
X1085D02*
D03*
X1085Y463D02*
D03*
X985D02*
D03*
X985Y557D02*
D03*
X820Y2032D02*
D03*
X820Y1938D02*
D03*
X1681D02*
D03*
X1681Y2032D02*
D03*
X1122Y1938D02*
D03*
X1122Y2032D02*
D03*
X983D02*
D03*
X983Y1938D02*
D03*
X1541D02*
D03*
X1541Y2032D02*
D03*
X1401Y1938D02*
D03*
X1401Y2032D02*
D03*
X1210Y1468D02*
D03*
X1210Y1562D02*
D03*
X1262Y1938D02*
D03*
X1262Y2032D02*
D03*
X1395Y1468D02*
D03*
X1395Y1562D02*
D03*
X1580Y1468D02*
D03*
X1580Y1562D02*
D03*
X1820Y2032D02*
D03*
X1820Y1938D02*
D03*
X1960Y2032D02*
D03*
X1960Y1938D02*
D03*
D40*
X885Y120D02*
D03*
X985D02*
D03*
X1085D02*
D03*
X1185D02*
D03*
X1285D02*
D03*
X1385D02*
D03*
X1485D02*
D03*
X1585D02*
D03*
X1685D02*
D03*
X1785D02*
D03*
X1885D02*
D03*
X1985D02*
D03*
X1685Y720D02*
D03*
X1585D02*
D03*
X1485D02*
D03*
X1385D02*
D03*
X1285D02*
D03*
X1185D02*
D03*
X1085D02*
D03*
X985D02*
D03*
X885D02*
D03*
D41*
X620Y2630D02*
D03*
Y2413D02*
D03*
X785Y2630D02*
D03*
Y2413D02*
D03*
X951Y2630D02*
D03*
Y2413D02*
D03*
X1116Y2630D02*
D03*
Y2413D02*
D03*
X1281Y2630D02*
D03*
Y2413D02*
D03*
X1447Y2630D02*
D03*
Y2413D02*
D03*
X1612Y2630D02*
D03*
D42*
Y2413D02*
D03*
D43*
X2049Y2225D02*
D03*
Y1327D02*
D03*
X195D02*
D03*
Y2225D02*
D03*
D44*
Y980D02*
D03*
X293Y1177D02*
D03*
Y783D02*
D03*
X695D02*
D03*
D45*
X2049Y1631D02*
D03*
X727Y582D02*
D03*
X800Y1200D02*
D03*
X775Y100D02*
D03*
X780Y395D02*
D03*
X1035Y1400D02*
D03*
X1770Y1410D02*
D03*
X1100Y1475D02*
D03*
X1211Y1809D02*
D03*
X1393Y1808D02*
D03*
X1576Y1804D02*
D03*
X480Y50D02*
D03*
D46*
X1718Y478D02*
D03*
D47*
X1393Y1678D02*
D03*
Y1752D02*
D03*
X1492Y1715D02*
D03*
X1211Y1678D02*
D03*
Y1752D02*
D03*
X1309Y1715D02*
D03*
X1576Y1678D02*
D03*
Y1752D02*
D03*
X1674Y1715D02*
D03*
D48*
X727Y285D02*
D03*
X633Y285D02*
D03*
Y189D02*
D03*
X727D02*
D03*
X633Y100D02*
D03*
X727D02*
D03*
M02*
