%FSLAX23Y23*%
%MOIN*%
G70*
G01*
G75*
G04 Layer_Color=16711935*
G04:AMPARAMS|DCode=10|XSize=51mil|YSize=118mil|CornerRadius=0mil|HoleSize=0mil|Usage=FLASHONLY|Rotation=0.000|XOffset=0mil|YOffset=0mil|HoleType=Round|Shape=Octagon|*
%AMOCTAGOND10*
4,1,8,-0.013,0.059,0.013,0.059,0.026,0.046,0.026,-0.046,0.013,-0.059,-0.013,-0.059,-0.026,-0.046,-0.026,0.046,-0.013,0.059,0.0*
%
%ADD10OCTAGOND10*%

%ADD11R,0.051X0.118*%
%ADD12R,0.051X0.073*%
%ADD13R,0.055X0.043*%
%ADD14C,0.059*%
%ADD15C,0.039*%
%ADD16C,0.020*%
%ADD17C,0.030*%
%ADD18C,0.020*%
%ADD19C,0.157*%
%ADD20C,0.010*%
%ADD21C,0.074*%
%ADD22O,0.098X0.118*%
G04:AMPARAMS|DCode=23|XSize=98mil|YSize=118mil|CornerRadius=0mil|HoleSize=0mil|Usage=FLASHONLY|Rotation=180.000|XOffset=0mil|YOffset=0mil|HoleType=Round|Shape=Octagon|*
%AMOCTAGOND23*
4,1,8,0.025,-0.059,-0.025,-0.059,-0.049,-0.034,-0.049,0.034,-0.025,0.059,0.025,0.059,0.049,0.034,0.049,-0.034,0.025,-0.059,0.0*
%
%ADD23OCTAGOND23*%

%ADD24C,0.091*%
%ADD25C,0.060*%
%ADD26C,0.031*%
%ADD27C,0.017*%
%ADD28R,0.047X0.026*%
%ADD29R,0.043X0.055*%
%ADD30C,0.008*%
%ADD31C,0.010*%
%ADD32C,0.008*%
%ADD33C,0.006*%
%ADD34C,0.010*%
%ADD35C,0.012*%
G04:AMPARAMS|DCode=36|XSize=59mil|YSize=126mil|CornerRadius=0mil|HoleSize=0mil|Usage=FLASHONLY|Rotation=0.000|XOffset=0mil|YOffset=0mil|HoleType=Round|Shape=Octagon|*
%AMOCTAGOND36*
4,1,8,-0.015,0.063,0.015,0.063,0.030,0.048,0.030,-0.048,0.015,-0.063,-0.015,-0.063,-0.030,-0.048,-0.030,0.048,-0.015,0.063,0.0*
%
%ADD36OCTAGOND36*%

%ADD37R,0.059X0.126*%
%ADD38R,0.059X0.081*%
%ADD39R,0.063X0.051*%
%ADD40C,0.082*%
%ADD41O,0.106X0.126*%
G04:AMPARAMS|DCode=42|XSize=106mil|YSize=126mil|CornerRadius=0mil|HoleSize=0mil|Usage=FLASHONLY|Rotation=180.000|XOffset=0mil|YOffset=0mil|HoleType=Round|Shape=Octagon|*
%AMOCTAGOND42*
4,1,8,0.027,-0.063,-0.027,-0.063,-0.053,-0.036,-0.053,0.036,-0.027,0.063,0.027,0.063,0.053,0.036,0.053,-0.036,0.027,-0.063,0.0*
%
%ADD42OCTAGOND42*%

%ADD43C,0.099*%
%ADD44C,0.068*%
%ADD45C,0.039*%
%ADD46C,0.025*%
%ADD47R,0.055X0.034*%
%ADD48R,0.051X0.063*%
%ADD49C,0.006*%
%ADD50C,0.004*%
%ADD51R,0.750X0.200*%
D20*
X2242Y2776D02*
X2625D01*
X2242Y0D02*
X2625D01*
X2615Y1528D02*
Y2776D01*
Y0D02*
Y1216D01*
X2595Y2716D02*
X2615Y2776D01*
X2635Y2716D01*
X2615Y0D02*
X2635Y60D01*
X2595D02*
X2615Y0D01*
X0Y-325D02*
Y-10D01*
X2232Y-325D02*
Y-10D01*
X0Y-315D02*
X944D01*
X1256D02*
X2232D01*
X0D02*
X60Y-335D01*
X0Y-315D02*
X60Y-295D01*
X2172D02*
X2232Y-315D01*
X2172Y-335D02*
X2232Y-315D01*
X2110Y1266D02*
Y2290D01*
X130Y1266D02*
X2110D01*
X130Y2290D02*
X2110D01*
X130Y1266D02*
Y2290D01*
D30*
X835Y770D02*
X2135D01*
X835Y70D02*
Y770D01*
X2135Y70D02*
Y770D01*
X835Y70D02*
X2135D01*
D33*
X2601Y1232D02*
Y1272D01*
X2611D01*
X2651Y1232D01*
X2661D01*
X2611Y1292D02*
X2601Y1302D01*
Y1322D01*
X2611Y1332D01*
X2651D01*
X2661Y1322D01*
Y1302D01*
X2651Y1292D01*
X2611D01*
X2671Y1362D02*
X2661Y1372D01*
X2651D01*
Y1362D01*
X2661D01*
Y1372D01*
X2671Y1362D01*
X2681Y1352D01*
X2601Y1452D02*
Y1412D01*
X2631D01*
X2621Y1432D01*
Y1442D01*
X2631Y1452D01*
X2651D01*
X2661Y1442D01*
Y1422D01*
X2651Y1412D01*
X2611Y1472D02*
X2601Y1482D01*
Y1502D01*
X2611Y1512D01*
X2651D01*
X2661Y1502D01*
Y1482D01*
X2651Y1472D01*
X2611D01*
X1000Y-301D02*
X960D01*
Y-331D01*
X980Y-321D01*
X990D01*
X1000Y-331D01*
Y-351D01*
X990Y-361D01*
X970D01*
X960Y-351D01*
X1060Y-301D02*
X1040Y-311D01*
X1020Y-331D01*
Y-351D01*
X1030Y-361D01*
X1050D01*
X1060Y-351D01*
Y-341D01*
X1050Y-331D01*
X1020D01*
X1090Y-371D02*
X1100Y-361D01*
Y-351D01*
X1090D01*
Y-361D01*
X1100D01*
X1090Y-371D01*
X1080Y-381D01*
X1140Y-301D02*
X1180D01*
Y-311D01*
X1140Y-351D01*
Y-361D01*
X1200Y-311D02*
X1210Y-301D01*
X1230D01*
X1240Y-311D01*
Y-351D01*
X1230Y-361D01*
X1210D01*
X1200Y-351D01*
Y-311D01*
M02*
