%FSLAX23Y23*%
%MOIN*%
G70*
G01*
G75*
G04 Layer_Physical_Order=2*
G04 Layer_Color=16711680*
G04:AMPARAMS|DCode=10|XSize=51mil|YSize=118mil|CornerRadius=0mil|HoleSize=0mil|Usage=FLASHONLY|Rotation=180.000|XOffset=0mil|YOffset=0mil|HoleType=Round|Shape=Octagon|*
%AMOCTAGOND10*
4,1,8,0.013,-0.059,-0.013,-0.059,-0.026,-0.046,-0.026,0.046,-0.013,0.059,0.013,0.059,0.026,0.046,0.026,-0.046,0.013,-0.059,0.0*
%
%ADD10OCTAGOND10*%

%ADD11R,0.051X0.118*%
%ADD12R,0.051X0.073*%
%ADD13C,0.039*%
%ADD14C,0.118*%
%ADD15C,0.030*%
%ADD16C,0.020*%
%ADD17C,0.060*%
%ADD18C,0.071*%
%ADD19R,0.071X0.071*%
%ADD20C,0.091*%
G04:AMPARAMS|DCode=21|XSize=98mil|YSize=118mil|CornerRadius=0mil|HoleSize=0mil|Usage=FLASHONLY|Rotation=180.000|XOffset=0mil|YOffset=0mil|HoleType=Round|Shape=Octagon|*
%AMOCTAGOND21*
4,1,8,0.025,-0.059,-0.025,-0.059,-0.049,-0.034,-0.049,0.034,-0.025,0.059,0.025,0.059,0.049,0.034,0.049,-0.034,0.025,-0.059,0.0*
%
%ADD21OCTAGOND21*%

%ADD22O,0.098X0.118*%
%ADD23C,0.074*%
%ADD24C,0.050*%
%ADD25C,0.028*%
%ADD26C,0.031*%
%ADD27R,0.055X0.043*%
%ADD28R,0.043X0.055*%
%ADD29R,0.177X0.118*%
%ADD30R,0.026X0.047*%
%ADD31R,0.047X0.026*%
%ADD32C,0.010*%
%ADD33C,0.059*%
G36*
X1077Y25D02*
X-344D01*
X-347Y30D01*
X-346Y32D01*
X-346Y32D01*
X-444D01*
X-444Y32D01*
X-443Y30D01*
X-446Y25D01*
X-1077D01*
Y1059D01*
X-1072Y1061D01*
X-1070Y1059D01*
X-981Y970D01*
X-1054Y897D01*
X-1060Y890D01*
X-1063Y881D01*
X-1065Y872D01*
Y434D01*
X-1063Y425D01*
X-1060Y417D01*
X-1054Y409D01*
X-1021Y376D01*
X-1013Y370D01*
X-1005Y367D01*
X-1000Y366D01*
Y357D01*
X-935D01*
Y389D01*
X-933Y392D01*
X-933Y398D01*
X-927D01*
X-927Y392D01*
X-925Y389D01*
Y357D01*
X-860D01*
Y365D01*
X-844D01*
X-835Y367D01*
X-827Y370D01*
X-819Y376D01*
X-795Y400D01*
X-789Y407D01*
X-786Y416D01*
X-785Y425D01*
Y495D01*
X-760Y520D01*
X-755Y518D01*
Y425D01*
Y375D01*
X-645D01*
Y390D01*
X-562D01*
X-513Y342D01*
X-505Y335D01*
X-498Y333D01*
X-495Y331D01*
X-485Y330D01*
X-280D01*
X-270Y331D01*
X-267Y333D01*
X-260Y335D01*
X-252Y342D01*
X-131Y463D01*
X-79D01*
Y461D01*
X16D01*
Y461D01*
X21D01*
Y461D01*
X116D01*
Y463D01*
X417D01*
Y461D01*
X512D01*
X542Y432D01*
X550Y425D01*
X560Y421D01*
X570Y420D01*
X580Y421D01*
X590Y425D01*
X598Y432D01*
X605Y440D01*
X609Y450D01*
X610Y460D01*
X609Y470D01*
X605Y480D01*
X598Y488D01*
X556Y531D01*
X547Y537D01*
X540Y540D01*
X538Y541D01*
X527Y543D01*
X513D01*
Y544D01*
X417D01*
Y543D01*
X116D01*
Y544D01*
X21D01*
Y544D01*
X16D01*
Y544D01*
X-79D01*
Y543D01*
X-147D01*
X-158Y541D01*
X-160Y540D01*
X-167Y537D01*
X-176Y531D01*
X-297Y410D01*
X-468D01*
X-517Y458D01*
X-525Y465D01*
X-532Y467D01*
X-535Y469D01*
X-545Y470D01*
X-645D01*
Y535D01*
X-738D01*
X-740Y540D01*
X-725Y555D01*
X-580D01*
X-463Y438D01*
X-455Y432D01*
X-447Y429D01*
X-438Y427D01*
X-393D01*
Y421D01*
X-297D01*
Y504D01*
X-393D01*
Y498D01*
X-423D01*
X-540Y615D01*
X-547Y621D01*
X-556Y624D01*
X-565Y625D01*
X-740D01*
X-749Y624D01*
X-758Y621D01*
X-765Y615D01*
X-845Y535D01*
X-851Y528D01*
X-854Y519D01*
X-855Y510D01*
Y446D01*
X-860Y444D01*
X-860Y444D01*
Y444D01*
X-860Y444D01*
X-925D01*
Y413D01*
X-927Y410D01*
X-927Y404D01*
X-933D01*
X-933Y410D01*
X-935Y413D01*
Y444D01*
X-989D01*
X-994Y449D01*
Y857D01*
X-922Y930D01*
X-921Y930D01*
X-908Y931D01*
X-904Y933D01*
X-901Y929D01*
X-956Y874D01*
X-961Y867D01*
X-965Y858D01*
X-966Y849D01*
Y613D01*
X-970Y608D01*
X-975Y597D01*
X-976Y585D01*
X-975Y573D01*
X-970Y562D01*
X-966Y557D01*
Y500D01*
X-965Y491D01*
X-963Y486D01*
Y456D01*
X-897D01*
Y490D01*
X-897Y491D01*
X-895Y500D01*
Y557D01*
X-891Y562D01*
X-887Y573D01*
X-885Y585D01*
X-887Y597D01*
X-891Y608D01*
X-895Y613D01*
Y835D01*
X-798Y932D01*
X-792Y940D01*
X-789Y948D01*
X-787Y957D01*
Y1141D01*
X-787Y1141D01*
X-779Y1152D01*
X-774Y1164D01*
X-772Y1177D01*
X-774Y1190D01*
X-779Y1202D01*
X-787Y1213D01*
X-798Y1221D01*
X-810Y1226D01*
X-823Y1227D01*
X-836Y1226D01*
X-848Y1221D01*
X-858Y1213D01*
X-866Y1202D01*
X-871Y1190D01*
X-873Y1177D01*
X-871Y1164D01*
X-866Y1152D01*
X-858Y1141D01*
X-858Y1141D01*
Y972D01*
X-870Y960D01*
X-874Y963D01*
X-872Y967D01*
X-871Y980D01*
X-872Y993D01*
X-877Y1005D01*
X-885Y1016D01*
X-888Y1018D01*
X-985Y1115D01*
Y1288D01*
X-980Y1289D01*
X-980Y1288D01*
X-971Y1277D01*
X-960Y1269D01*
X-948Y1262D01*
X-935Y1258D01*
X-934Y1258D01*
Y1327D01*
Y1397D01*
X-935Y1397D01*
X-948Y1393D01*
X-960Y1386D01*
X-971Y1377D01*
X-980Y1367D01*
X-980Y1366D01*
X-985Y1367D01*
Y2090D01*
X-916Y2160D01*
X-908Y2161D01*
X-896Y2164D01*
X-885Y2170D01*
X-875Y2179D01*
X-867Y2189D01*
X-861Y2200D01*
X-857Y2212D01*
X-856Y2225D01*
X-857Y2238D01*
X-861Y2250D01*
X-867Y2261D01*
X-871Y2267D01*
Y2343D01*
X-634Y2580D01*
X-553D01*
X-545Y2571D01*
X-535Y2562D01*
X-523Y2556D01*
X-510Y2552D01*
X-496Y2551D01*
X-482Y2552D01*
X-469Y2556D01*
X-457Y2562D01*
X-447Y2571D01*
X-438Y2581D01*
X-432Y2593D01*
X-428Y2607D01*
X-427Y2620D01*
Y2640D01*
X-428Y2653D01*
X-432Y2666D01*
X-438Y2678D01*
X-447Y2689D01*
X-457Y2698D01*
X-469Y2704D01*
X-482Y2708D01*
X-496Y2709D01*
X-510Y2708D01*
X-523Y2704D01*
X-535Y2698D01*
X-545Y2689D01*
X-553Y2680D01*
X-655D01*
X-662Y2679D01*
X-668Y2678D01*
X-675Y2675D01*
X-680Y2673D01*
X-685Y2670D01*
X-690Y2665D01*
X-956Y2399D01*
X-964Y2389D01*
X-969Y2377D01*
X-971Y2364D01*
Y2267D01*
X-976Y2261D01*
X-982Y2250D01*
X-985Y2238D01*
X-986Y2231D01*
X-1070Y2146D01*
X-1072Y2144D01*
X-1077Y2146D01*
Y2750D01*
X1077D01*
Y25D01*
D02*
G37*
%LPC*%
G36*
X856Y499D02*
X822D01*
Y458D01*
X856D01*
Y499D01*
D02*
G37*
G36*
X915D02*
X881D01*
Y458D01*
X915D01*
Y499D01*
D02*
G37*
G36*
X690Y610D02*
X678Y609D01*
X667Y604D01*
X658Y597D01*
X651Y588D01*
X646Y577D01*
X645Y565D01*
X646Y553D01*
X651Y542D01*
X655Y537D01*
Y480D01*
X580Y405D01*
X190D01*
X190Y405D01*
X181Y404D01*
X172Y401D01*
X165Y395D01*
X165Y395D01*
X44Y274D01*
X38Y267D01*
X35Y258D01*
X34Y249D01*
Y165D01*
X28Y161D01*
X22Y153D01*
X16D01*
X10Y161D01*
X-2Y170D01*
X-16Y176D01*
X-31Y177D01*
X-46Y176D01*
X-60Y170D01*
X-72Y161D01*
X-78Y153D01*
X-84D01*
X-90Y161D01*
X-96Y165D01*
Y211D01*
X-97Y220D01*
X-101Y229D01*
X-106Y236D01*
X-160Y290D01*
X-167Y296D01*
X-176Y299D01*
X-185Y300D01*
X-191D01*
Y313D01*
X-274D01*
Y217D01*
X-191D01*
X-191Y217D01*
Y217D01*
X-186Y216D01*
X-166Y197D01*
Y165D01*
X-172Y161D01*
X-178Y153D01*
X-184D01*
X-190Y161D01*
X-202Y170D01*
X-216Y176D01*
X-231Y177D01*
X-246Y176D01*
X-260Y170D01*
X-272Y161D01*
X-281Y149D01*
X-287Y135D01*
X-289Y120D01*
X-287Y105D01*
X-281Y91D01*
X-272Y79D01*
X-260Y70D01*
X-246Y64D01*
X-231Y63D01*
X-216Y64D01*
X-202Y70D01*
X-190Y79D01*
X-184Y87D01*
X-178D01*
X-172Y79D01*
X-160Y70D01*
X-146Y64D01*
X-131Y63D01*
X-116Y64D01*
X-102Y70D01*
X-90Y79D01*
X-84Y87D01*
X-78D01*
X-72Y79D01*
X-60Y70D01*
X-46Y64D01*
X-31Y63D01*
X-16Y64D01*
X-2Y70D01*
X10Y79D01*
X16Y87D01*
X22D01*
X28Y79D01*
X40Y70D01*
X54Y64D01*
X69Y63D01*
X84Y64D01*
X98Y70D01*
X110Y79D01*
X116Y87D01*
X122D01*
X128Y79D01*
X140Y70D01*
X154Y64D01*
X169Y63D01*
X184Y64D01*
X198Y70D01*
X210Y79D01*
X216Y87D01*
X222D01*
X228Y79D01*
X240Y70D01*
X254Y64D01*
X269Y63D01*
X284Y64D01*
X298Y70D01*
X310Y79D01*
X316Y87D01*
X322D01*
X328Y79D01*
X340Y70D01*
X354Y64D01*
X369Y63D01*
X384Y64D01*
X398Y70D01*
X410Y79D01*
X416Y87D01*
X422D01*
X428Y79D01*
X440Y70D01*
X454Y64D01*
X469Y63D01*
X484Y64D01*
X498Y70D01*
X510Y79D01*
X516Y87D01*
X522D01*
X528Y79D01*
X540Y70D01*
X554Y64D01*
X569Y63D01*
X584Y64D01*
X598Y70D01*
X610Y79D01*
X616Y87D01*
X622D01*
X628Y79D01*
X640Y70D01*
X654Y64D01*
X669Y63D01*
X684Y64D01*
X698Y70D01*
X710Y79D01*
X713Y84D01*
X719Y83D01*
X725Y76D01*
X734Y68D01*
X745Y62D01*
X756Y59D01*
Y120D01*
Y181D01*
X745Y178D01*
X734Y172D01*
X725Y164D01*
X719Y157D01*
X713Y156D01*
X710Y161D01*
X698Y170D01*
X684Y176D01*
X669Y177D01*
X654Y176D01*
X640Y170D01*
X628Y161D01*
X622Y153D01*
X616D01*
X610Y161D01*
X598Y170D01*
X584Y176D01*
X569Y177D01*
X554Y176D01*
X540Y170D01*
X528Y161D01*
X522Y153D01*
X516D01*
X510Y161D01*
X498Y170D01*
X484Y176D01*
X478Y176D01*
X476Y181D01*
X520Y225D01*
X732D01*
Y212D01*
X816D01*
Y302D01*
Y398D01*
X816D01*
Y398D01*
X816D01*
Y494D01*
X732D01*
Y398D01*
X732D01*
Y398D01*
X732D01*
Y385D01*
X680D01*
X680Y385D01*
X671Y384D01*
X662Y381D01*
X660Y385D01*
X715Y440D01*
X721Y447D01*
X724Y456D01*
X725Y465D01*
Y537D01*
X729Y542D01*
X734Y553D01*
X735Y565D01*
X734Y577D01*
X729Y588D01*
X722Y597D01*
X713Y604D01*
X702Y609D01*
X690Y610D01*
D02*
G37*
G36*
X915Y433D02*
X822D01*
Y393D01*
Y363D01*
X915D01*
Y393D01*
Y433D01*
D02*
G37*
G36*
X630Y707D02*
X581D01*
Y659D01*
X593Y662D01*
X603Y668D01*
X613Y676D01*
X621Y685D01*
X626Y696D01*
X630Y707D01*
D02*
G37*
G36*
X581Y781D02*
Y733D01*
X630D01*
X626Y744D01*
X621Y755D01*
X613Y764D01*
X603Y772D01*
X593Y778D01*
X581Y781D01*
D02*
G37*
G36*
X-737Y2004D02*
X-833D01*
Y1921D01*
X-820D01*
Y1535D01*
X-819Y1526D01*
X-816Y1517D01*
X-810Y1510D01*
X-650Y1350D01*
Y828D01*
X-654Y823D01*
X-659Y812D01*
X-660Y800D01*
X-659Y788D01*
X-654Y777D01*
X-647Y768D01*
X-638Y761D01*
X-627Y756D01*
X-615Y755D01*
X-603Y756D01*
X-592Y761D01*
X-583Y768D01*
X-576Y777D01*
X-571Y788D01*
X-570Y800D01*
X-571Y812D01*
X-576Y823D01*
X-580Y828D01*
Y1365D01*
X-581Y1374D01*
X-584Y1383D01*
X-590Y1390D01*
X-750Y1550D01*
Y1921D01*
X-737D01*
Y2004D01*
D02*
G37*
G36*
X-835Y771D02*
X-877D01*
X-876Y769D01*
X-871Y755D01*
X-862Y744D01*
X-850Y735D01*
X-837Y730D01*
X-835Y729D01*
Y771D01*
D02*
G37*
G36*
X-769D02*
X-810D01*
Y729D01*
X-808Y730D01*
X-795Y735D01*
X-783Y744D01*
X-775Y755D01*
X-769Y769D01*
X-769Y771D01*
D02*
G37*
G36*
X915Y338D02*
X822D01*
Y297D01*
Y273D01*
X915D01*
Y297D01*
Y338D01*
D02*
G37*
G36*
X781Y181D02*
Y120D01*
Y59D01*
X793Y62D01*
X803Y68D01*
X813Y76D01*
X819Y83D01*
X825Y84D01*
X828Y79D01*
X840Y70D01*
X854Y64D01*
X869Y63D01*
X884Y64D01*
X898Y70D01*
X910Y79D01*
X919Y91D01*
X924Y105D01*
X926Y120D01*
X924Y135D01*
X919Y149D01*
X910Y161D01*
X898Y170D01*
X884Y176D01*
X869Y177D01*
X854Y176D01*
X840Y170D01*
X828Y161D01*
X825Y156D01*
X819Y157D01*
X813Y164D01*
X803Y172D01*
X793Y178D01*
X781Y181D01*
D02*
G37*
G36*
X-700Y286D02*
X-714Y284D01*
X-728Y278D01*
X-740Y270D01*
X-748Y258D01*
X-754Y244D01*
X-756Y230D01*
X-754Y216D01*
X-750Y205D01*
X-754Y194D01*
X-756Y180D01*
X-754Y166D01*
X-748Y152D01*
X-740Y140D01*
X-728Y132D01*
X-714Y126D01*
X-700Y124D01*
X-686Y126D01*
X-672Y132D01*
X-660Y140D01*
X-652Y152D01*
X-646Y166D01*
X-644Y180D01*
X-645Y190D01*
X-641Y195D01*
X-554D01*
X-545Y196D01*
X-542Y197D01*
X-511D01*
Y263D01*
X-542D01*
X-545Y264D01*
X-554Y265D01*
X-657D01*
X-660Y270D01*
X-672Y278D01*
X-686Y284D01*
X-700Y286D01*
D02*
G37*
G36*
X-407Y94D02*
X-408Y94D01*
X-420Y89D01*
X-431Y81D01*
X-439Y70D01*
X-444Y58D01*
X-444Y58D01*
X-407D01*
Y94D01*
D02*
G37*
G36*
X-382D02*
Y58D01*
X-346D01*
X-346Y58D01*
X-351Y70D01*
X-359Y81D01*
X-370Y89D01*
X-382Y94D01*
X-382Y94D01*
D02*
G37*
G36*
X-468Y180D02*
X-504D01*
Y155D01*
X-468D01*
Y180D01*
D02*
G37*
G36*
X915Y248D02*
X881D01*
Y207D01*
X915D01*
Y248D01*
D02*
G37*
G36*
X-286Y313D02*
X-369D01*
Y303D01*
X-456D01*
X-465Y302D01*
X-468Y300D01*
X-499D01*
Y235D01*
X-499Y235D01*
X-501Y230D01*
X-504D01*
Y205D01*
X-407D01*
Y227D01*
X-407Y230D01*
X-403Y232D01*
X-369D01*
Y217D01*
X-286D01*
Y313D01*
D02*
G37*
G36*
X-407Y180D02*
X-443D01*
Y155D01*
X-407D01*
Y180D01*
D02*
G37*
G36*
X856Y248D02*
X822D01*
Y207D01*
X856D01*
Y248D01*
D02*
G37*
G36*
X-835Y837D02*
X-837Y837D01*
X-850Y831D01*
X-862Y822D01*
X-871Y811D01*
X-876Y798D01*
X-877Y796D01*
X-835D01*
Y837D01*
D02*
G37*
G36*
X-738Y2392D02*
X-764D01*
X-761Y2384D01*
X-754Y2376D01*
X-746Y2369D01*
X-738Y2366D01*
Y2392D01*
D02*
G37*
G36*
X-686D02*
X-712D01*
Y2366D01*
X-704Y2369D01*
X-696Y2376D01*
X-689Y2384D01*
X-686Y2392D01*
D02*
G37*
G36*
X-509Y2401D02*
X-570D01*
X-569Y2389D01*
X-565Y2375D01*
X-558Y2362D01*
X-549Y2351D01*
X-537Y2342D01*
X-525Y2335D01*
X-511Y2330D01*
X-509Y2330D01*
Y2401D01*
D02*
G37*
G36*
X-422D02*
X-484D01*
Y2330D01*
X-482Y2330D01*
X-468Y2335D01*
X-455Y2342D01*
X-443Y2351D01*
X-434Y2362D01*
X-427Y2375D01*
X-423Y2389D01*
X-422Y2401D01*
D02*
G37*
G36*
X-738Y2444D02*
X-746Y2441D01*
X-754Y2434D01*
X-761Y2426D01*
X-764Y2418D01*
X-738D01*
Y2444D01*
D02*
G37*
G36*
X-331Y2709D02*
X-344Y2708D01*
X-357Y2704D01*
X-369Y2698D01*
X-380Y2689D01*
X-389Y2678D01*
X-395Y2666D01*
X-399Y2653D01*
X-400Y2640D01*
Y2620D01*
X-399Y2611D01*
X-465Y2545D01*
X-555D01*
X-564Y2544D01*
X-573Y2541D01*
X-580Y2535D01*
X-640Y2475D01*
X-646Y2468D01*
X-649Y2459D01*
X-650Y2450D01*
Y2242D01*
X-793Y2099D01*
X-833D01*
Y2016D01*
X-737D01*
Y2055D01*
X-590Y2202D01*
X-584Y2210D01*
X-581Y2218D01*
X-580Y2227D01*
Y2435D01*
X-573Y2442D01*
X-569Y2440D01*
X-569Y2438D01*
X-570Y2426D01*
X-422D01*
X-423Y2438D01*
X-427Y2452D01*
X-434Y2465D01*
X-440Y2471D01*
X-438Y2477D01*
X-433Y2479D01*
X-426Y2485D01*
X-355Y2555D01*
X-344Y2552D01*
X-331Y2551D01*
X-317Y2552D01*
X-304Y2556D01*
X-292Y2562D01*
X-282Y2571D01*
X-273Y2581D01*
X-266Y2593D01*
X-262Y2607D01*
X-261Y2620D01*
Y2640D01*
X-262Y2653D01*
X-266Y2666D01*
X-273Y2678D01*
X-282Y2689D01*
X-292Y2698D01*
X-304Y2704D01*
X-317Y2708D01*
X-331Y2709D01*
D02*
G37*
G36*
X-899Y2730D02*
X-1071D01*
Y2650D01*
X-899D01*
Y2730D01*
D02*
G37*
G36*
X-712Y2444D02*
Y2418D01*
X-686D01*
X-689Y2426D01*
X-696Y2434D01*
X-704Y2441D01*
X-712Y2444D01*
D02*
G37*
G36*
X496Y2709D02*
X482Y2708D01*
X469Y2704D01*
X457Y2698D01*
X447Y2689D01*
X438Y2678D01*
X432Y2666D01*
X428Y2653D01*
X427Y2640D01*
Y2620D01*
X428Y2607D01*
X432Y2593D01*
X438Y2581D01*
X447Y2571D01*
X457Y2562D01*
X465Y2558D01*
X465Y2556D01*
X471Y2549D01*
X523Y2497D01*
X521Y2492D01*
X461D01*
X454Y2485D01*
X449Y2487D01*
X449Y2489D01*
X446Y2498D01*
X440Y2505D01*
X379Y2566D01*
X380Y2571D01*
X380Y2571D01*
X389Y2581D01*
X395Y2593D01*
X399Y2607D01*
X400Y2620D01*
Y2640D01*
X399Y2653D01*
X395Y2666D01*
X389Y2678D01*
X380Y2689D01*
X369Y2698D01*
X357Y2704D01*
X344Y2708D01*
X331Y2709D01*
X317Y2708D01*
X304Y2704D01*
X292Y2698D01*
X282Y2689D01*
X273Y2678D01*
X266Y2666D01*
X262Y2653D01*
X261Y2640D01*
Y2620D01*
X262Y2607D01*
X266Y2593D01*
X273Y2581D01*
X282Y2571D01*
X292Y2562D01*
X296Y2560D01*
X297Y2556D01*
X297Y2555D01*
X300Y2547D01*
X306Y2539D01*
X350Y2495D01*
X348Y2490D01*
X344Y2491D01*
X331Y2493D01*
X317Y2491D01*
X304Y2487D01*
X292Y2481D01*
X290Y2479D01*
X285Y2482D01*
X284Y2489D01*
X281Y2498D01*
X275Y2505D01*
X214Y2566D01*
X214Y2571D01*
X215Y2571D01*
X223Y2581D01*
X230Y2593D01*
X234Y2607D01*
X235Y2620D01*
Y2640D01*
X234Y2653D01*
X230Y2666D01*
X223Y2678D01*
X215Y2689D01*
X204Y2698D01*
X192Y2704D01*
X179Y2708D01*
X165Y2709D01*
X152Y2708D01*
X139Y2704D01*
X127Y2698D01*
X116Y2689D01*
X108Y2678D01*
X101Y2666D01*
X97Y2653D01*
X96Y2640D01*
Y2620D01*
X97Y2607D01*
X101Y2593D01*
X108Y2581D01*
X116Y2571D01*
X127Y2562D01*
X131Y2560D01*
X131Y2556D01*
X135Y2547D01*
X140Y2540D01*
X185Y2495D01*
X183Y2490D01*
X179Y2491D01*
X165Y2493D01*
X152Y2491D01*
X139Y2487D01*
X127Y2481D01*
X124Y2479D01*
X120Y2481D01*
X119Y2484D01*
X116Y2493D01*
X110Y2500D01*
X46Y2564D01*
X46Y2569D01*
X49Y2571D01*
X58Y2581D01*
X64Y2593D01*
X68Y2607D01*
X70Y2620D01*
Y2640D01*
X68Y2653D01*
X64Y2666D01*
X58Y2678D01*
X49Y2689D01*
X39Y2698D01*
X27Y2704D01*
X14Y2708D01*
X0Y2709D01*
X-14Y2708D01*
X-27Y2704D01*
X-39Y2698D01*
X-49Y2689D01*
X-58Y2678D01*
X-64Y2666D01*
X-68Y2653D01*
X-70Y2640D01*
Y2620D01*
X-68Y2607D01*
X-64Y2593D01*
X-58Y2581D01*
X-49Y2571D01*
X-39Y2562D01*
X-35Y2560D01*
Y2560D01*
X-34Y2551D01*
X-31Y2542D01*
X-25Y2535D01*
X14Y2496D01*
X11Y2492D01*
X0Y2493D01*
X-14Y2491D01*
X-27Y2487D01*
X-35Y2483D01*
X-40Y2486D01*
Y2540D01*
X-40Y2540D01*
X-41Y2549D01*
X-44Y2557D01*
X-50Y2565D01*
X-50Y2565D01*
X-97Y2611D01*
X-96Y2620D01*
Y2640D01*
X-97Y2653D01*
X-101Y2666D01*
X-108Y2678D01*
X-116Y2689D01*
X-127Y2698D01*
X-139Y2704D01*
X-152Y2708D01*
X-165Y2709D01*
X-179Y2708D01*
X-192Y2704D01*
X-204Y2698D01*
X-215Y2689D01*
X-223Y2678D01*
X-230Y2666D01*
X-234Y2653D01*
X-235Y2640D01*
Y2620D01*
X-234Y2607D01*
X-230Y2593D01*
X-223Y2581D01*
X-215Y2571D01*
X-204Y2562D01*
X-192Y2556D01*
X-179Y2552D01*
X-165Y2551D01*
X-152Y2552D01*
X-141Y2555D01*
X-110Y2525D01*
Y2476D01*
X-115Y2474D01*
X-121Y2479D01*
X-135Y2487D01*
X-150Y2491D01*
X-165Y2493D01*
X-181Y2491D01*
X-196Y2487D01*
X-209Y2479D01*
X-222Y2470D01*
X-231Y2458D01*
X-239Y2444D01*
X-243Y2429D01*
X-245Y2413D01*
Y2330D01*
X-246Y2329D01*
X-247Y2329D01*
X-251Y2331D01*
Y2413D01*
X-253Y2429D01*
X-257Y2444D01*
X-265Y2458D01*
X-275Y2470D01*
X-287Y2479D01*
X-300Y2487D01*
X-315Y2491D01*
X-331Y2493D01*
X-346Y2491D01*
X-361Y2487D01*
X-375Y2479D01*
X-387Y2470D01*
X-397Y2458D01*
X-404Y2444D01*
X-409Y2429D01*
X-410Y2413D01*
Y2362D01*
X-601Y2171D01*
X-611Y2159D01*
X-618Y2145D01*
X-619Y2142D01*
X-623Y2130D01*
X-624Y2115D01*
Y2108D01*
X-654D01*
Y1950D01*
X-549D01*
X-545Y1949D01*
X-541Y1950D01*
X-436D01*
Y2108D01*
X-436Y2108D01*
X-436D01*
X-435Y2112D01*
X-324Y2224D01*
X-319Y2222D01*
X-319Y2220D01*
Y2108D01*
X-349D01*
Y1950D01*
X-244D01*
X-240Y1949D01*
X-236Y1950D01*
X-135D01*
Y1816D01*
X-236D01*
X-240Y1817D01*
X-545D01*
X-549Y1816D01*
X-654D01*
Y1658D01*
X-549D01*
X-545Y1658D01*
X-501D01*
Y781D01*
X-499Y766D01*
X-495Y751D01*
X-487Y737D01*
X-477Y725D01*
X-465Y715D01*
X-452Y708D01*
X-437Y703D01*
X-421Y702D01*
X-406Y703D01*
X-391Y708D01*
X-377Y715D01*
X-365Y725D01*
X-355Y737D01*
X-348Y751D01*
X-343Y766D01*
X-342Y781D01*
Y1658D01*
X-240D01*
X-236Y1658D01*
X-168D01*
X-166Y1654D01*
X-225Y1595D01*
X-231Y1588D01*
X-234Y1579D01*
X-235Y1570D01*
Y1468D01*
X-239Y1463D01*
X-244Y1452D01*
X-245Y1440D01*
X-244Y1428D01*
X-239Y1417D01*
X-232Y1408D01*
X-223Y1401D01*
X-212Y1396D01*
X-200Y1395D01*
X-188Y1396D01*
X-177Y1401D01*
X-168Y1408D01*
X-161Y1417D01*
X-156Y1428D01*
X-155Y1440D01*
X-156Y1452D01*
X-161Y1463D01*
X-165Y1468D01*
Y1555D01*
X-118Y1603D01*
X-113Y1600D01*
Y1521D01*
X-35D01*
Y1509D01*
X-113D01*
Y1426D01*
X-95D01*
Y1403D01*
X-153Y1345D01*
X-157Y1339D01*
X-160Y1332D01*
X-161Y1324D01*
Y769D01*
X-172Y761D01*
X-178Y753D01*
X-184D01*
X-190Y761D01*
X-202Y770D01*
X-216Y776D01*
X-231Y777D01*
X-246Y776D01*
X-260Y770D01*
X-272Y761D01*
X-281Y749D01*
X-287Y735D01*
X-289Y720D01*
X-287Y705D01*
X-281Y691D01*
X-272Y679D01*
X-266Y675D01*
Y633D01*
X-301Y599D01*
X-393D01*
Y516D01*
X-297D01*
Y522D01*
X-293D01*
X-284Y523D01*
X-275Y527D01*
X-268Y532D01*
X-206Y594D01*
X-201Y601D01*
X-197Y610D01*
X-196Y619D01*
Y675D01*
X-190Y679D01*
X-184Y687D01*
X-178D01*
X-172Y679D01*
X-160Y670D01*
X-146Y664D01*
X-131Y663D01*
X-116Y664D01*
X-102Y670D01*
X-90Y679D01*
X-84Y687D01*
X-78D01*
X-72Y679D01*
X-61Y671D01*
Y639D01*
X-79D01*
Y556D01*
X16D01*
Y556D01*
X21D01*
Y556D01*
X116D01*
Y639D01*
X99D01*
Y671D01*
X110Y679D01*
X116Y687D01*
X122D01*
X128Y679D01*
X140Y670D01*
X154Y664D01*
X169Y663D01*
X184Y664D01*
X198Y670D01*
X210Y679D01*
X216Y687D01*
X222D01*
X228Y679D01*
X240Y670D01*
X254Y664D01*
X269Y663D01*
X284Y664D01*
X298Y670D01*
X310Y679D01*
X316Y687D01*
X322D01*
X328Y679D01*
X340Y670D01*
X354Y664D01*
X369Y663D01*
X384Y664D01*
X398Y670D01*
X410Y679D01*
X416Y687D01*
X422D01*
X428Y679D01*
X435Y674D01*
Y639D01*
X417D01*
Y556D01*
X513D01*
Y639D01*
X495D01*
Y669D01*
X498Y670D01*
X510Y679D01*
X513Y684D01*
X519Y683D01*
X525Y676D01*
X534Y668D01*
X545Y662D01*
X556Y659D01*
Y720D01*
Y781D01*
X545Y778D01*
X534Y772D01*
X525Y764D01*
X519Y757D01*
X513Y756D01*
X510Y761D01*
X498Y770D01*
X484Y776D01*
X469Y777D01*
X454Y776D01*
X440Y770D01*
X428Y761D01*
X422Y753D01*
X416D01*
X410Y761D01*
X399Y769D01*
Y1326D01*
X485Y1412D01*
X490Y1419D01*
X493Y1426D01*
X493Y1426D01*
X511D01*
Y1509D01*
X416D01*
Y1429D01*
X347Y1360D01*
X343Y1354D01*
X340Y1347D01*
X339Y1339D01*
Y769D01*
X328Y761D01*
X322Y753D01*
X316D01*
X310Y761D01*
X299Y769D01*
Y1336D01*
X300Y1337D01*
X300Y1337D01*
X303Y1341D01*
X305Y1344D01*
X308Y1351D01*
X309Y1359D01*
Y1426D01*
X326D01*
Y1509D01*
X231D01*
Y1426D01*
X249D01*
Y1371D01*
X247Y1370D01*
X243Y1364D01*
X240Y1357D01*
X239Y1349D01*
Y769D01*
X228Y761D01*
X222Y753D01*
X216D01*
X210Y761D01*
X199Y769D01*
Y1341D01*
X198Y1349D01*
X195Y1356D01*
X190Y1363D01*
X131Y1421D01*
X133Y1426D01*
X141D01*
Y1509D01*
X60D01*
Y1521D01*
X141D01*
Y1604D01*
X125D01*
Y1645D01*
X138D01*
Y1710D01*
X138Y1710D01*
X138D01*
X138Y1710D01*
X140Y1715D01*
X143D01*
Y1740D01*
X95D01*
Y1765D01*
X143D01*
Y1790D01*
X135D01*
X133Y1794D01*
X134Y1798D01*
X95D01*
Y1822D01*
X134D01*
X131Y1831D01*
X124Y1839D01*
X116Y1846D01*
X106Y1850D01*
X96Y1851D01*
X93Y1855D01*
X132Y1894D01*
X137Y1901D01*
X140Y1908D01*
X141Y1916D01*
Y1921D01*
X158D01*
Y2004D01*
X63D01*
Y1921D01*
X67D01*
X69Y1916D01*
X44Y1892D01*
X40Y1894D01*
X40Y1900D01*
Y1921D01*
X58D01*
Y2004D01*
X-20D01*
Y2016D01*
X58D01*
Y2099D01*
X45D01*
Y2145D01*
X110Y2210D01*
X116Y2217D01*
X119Y2226D01*
X120Y2235D01*
Y2345D01*
X125Y2347D01*
X127Y2346D01*
X130Y2344D01*
Y2200D01*
X86Y2156D01*
X80Y2148D01*
X77Y2140D01*
X75Y2131D01*
Y2099D01*
X63D01*
Y2016D01*
X158D01*
Y2099D01*
X146D01*
Y2116D01*
X173Y2143D01*
X177Y2141D01*
X177Y2140D01*
X176Y2131D01*
Y2099D01*
X164D01*
Y2016D01*
X259D01*
Y2099D01*
X247D01*
Y2117D01*
X272Y2142D01*
X277Y2140D01*
Y2099D01*
X265D01*
Y2016D01*
X360D01*
Y2099D01*
X347D01*
Y2138D01*
X356Y2146D01*
X361Y2153D01*
X365Y2162D01*
X366Y2171D01*
Y2344D01*
X369Y2346D01*
X375Y2351D01*
X380Y2348D01*
Y2099D01*
X365D01*
Y2016D01*
X460D01*
Y2099D01*
X450D01*
Y2339D01*
X455Y2341D01*
X461Y2335D01*
Y2179D01*
X462Y2170D01*
X465Y2161D01*
X471Y2154D01*
X478Y2147D01*
Y2099D01*
X466D01*
Y2016D01*
X561D01*
Y2099D01*
X549D01*
Y2161D01*
X548Y2171D01*
X544Y2179D01*
X539Y2186D01*
X531Y2194D01*
Y2335D01*
X540Y2344D01*
X545Y2342D01*
Y2280D01*
X546Y2271D01*
X549Y2262D01*
X555Y2255D01*
X579Y2231D01*
Y2099D01*
X567D01*
Y2016D01*
X662D01*
Y2022D01*
X667D01*
Y2016D01*
X763D01*
Y2099D01*
X667D01*
Y2093D01*
X662D01*
Y2099D01*
X650D01*
Y2246D01*
X650Y2246D01*
X648Y2255D01*
X645Y2263D01*
X639Y2271D01*
X615Y2295D01*
Y2490D01*
X615Y2490D01*
X614Y2499D01*
X611Y2508D01*
X605Y2515D01*
X547Y2573D01*
X554Y2581D01*
X560Y2593D01*
X564Y2607D01*
X566Y2620D01*
Y2640D01*
X564Y2653D01*
X560Y2666D01*
X554Y2678D01*
X545Y2689D01*
X535Y2698D01*
X523Y2704D01*
X510Y2708D01*
X496Y2709D01*
D02*
G37*
G36*
X933Y2291D02*
X920Y2289D01*
X908Y2286D01*
X897Y2280D01*
X887Y2271D01*
X879Y2261D01*
X873Y2250D01*
X869Y2238D01*
X868Y2225D01*
X869Y2212D01*
X873Y2200D01*
X879Y2189D01*
X887Y2179D01*
X893Y2173D01*
Y2003D01*
X763D01*
Y2004D01*
X667D01*
Y1921D01*
X763D01*
Y1923D01*
X893D01*
Y1570D01*
X862Y1538D01*
X852Y1534D01*
X843Y1527D01*
X836Y1518D01*
X831Y1507D01*
X830Y1495D01*
X831Y1483D01*
X836Y1472D01*
X843Y1463D01*
X852Y1456D01*
X863Y1451D01*
X875Y1450D01*
X887Y1451D01*
X898Y1456D01*
X907Y1463D01*
X914Y1472D01*
X918Y1482D01*
X961Y1525D01*
X968Y1533D01*
X971Y1540D01*
X972Y1543D01*
X973Y1553D01*
Y2173D01*
X980Y2179D01*
X988Y2189D01*
X994Y2200D01*
X998Y2212D01*
X999Y2225D01*
X998Y2238D01*
X994Y2250D01*
X988Y2261D01*
X980Y2271D01*
X970Y2280D01*
X958Y2286D01*
X946Y2289D01*
X933Y2291D01*
D02*
G37*
G36*
X-852Y1315D02*
X-909D01*
Y1258D01*
X-907Y1258D01*
X-894Y1262D01*
X-882Y1269D01*
X-871Y1277D01*
X-862Y1288D01*
X-856Y1300D01*
X-852Y1314D01*
X-852Y1315D01*
D02*
G37*
G36*
X921D02*
X864D01*
X864Y1314D01*
X868Y1300D01*
X874Y1288D01*
X883Y1277D01*
X894Y1269D01*
X906Y1262D01*
X919Y1258D01*
X921Y1258D01*
Y1315D01*
D02*
G37*
G36*
X-810Y837D02*
Y796D01*
X-769D01*
X-769Y798D01*
X-775Y811D01*
X-783Y822D01*
X-795Y831D01*
X-808Y837D01*
X-810Y837D01*
D02*
G37*
G36*
X662Y2004D02*
X567D01*
Y1921D01*
X579D01*
Y1906D01*
X580Y1897D01*
X584Y1888D01*
X589Y1881D01*
X735Y1735D01*
Y1370D01*
X660Y1295D01*
X659Y1294D01*
X658Y1293D01*
X656Y1290D01*
X654Y1288D01*
X654Y1286D01*
X653Y1285D01*
X652Y1282D01*
X651Y1279D01*
X651Y1278D01*
X650Y1276D01*
X650Y1273D01*
X650Y1270D01*
X650Y1269D01*
X650Y1267D01*
X652Y1235D01*
X651Y1233D01*
X646Y1222D01*
X645Y1210D01*
X646Y1198D01*
X651Y1187D01*
X658Y1178D01*
X667Y1171D01*
X678Y1166D01*
X690Y1165D01*
X702Y1166D01*
X713Y1171D01*
X722Y1178D01*
X729Y1187D01*
X734Y1198D01*
X735Y1210D01*
X734Y1222D01*
X729Y1233D01*
X723Y1241D01*
X722Y1257D01*
X795Y1330D01*
X801Y1337D01*
X804Y1346D01*
X805Y1355D01*
X805Y1355D01*
Y1750D01*
X805Y1750D01*
X804Y1759D01*
X801Y1768D01*
X795Y1775D01*
X654Y1916D01*
X656Y1921D01*
X662D01*
Y2004D01*
D02*
G37*
G36*
X1003Y1315D02*
X946D01*
Y1258D01*
X947Y1258D01*
X960Y1262D01*
X972Y1269D01*
X983Y1277D01*
X992Y1288D01*
X998Y1300D01*
X1002Y1314D01*
X1003Y1315D01*
D02*
G37*
G36*
X946Y1397D02*
Y1340D01*
X1003D01*
X1002Y1341D01*
X998Y1354D01*
X992Y1367D01*
X983Y1377D01*
X972Y1386D01*
X960Y1393D01*
X947Y1397D01*
X946Y1397D01*
D02*
G37*
G36*
X561Y2004D02*
X466D01*
Y1921D01*
X483D01*
Y1892D01*
X483Y1891D01*
X479Y1889D01*
X451Y1916D01*
X453Y1921D01*
X460D01*
Y2004D01*
X365D01*
Y1921D01*
X383D01*
Y1912D01*
X384Y1904D01*
X387Y1897D01*
X391Y1891D01*
X428Y1854D01*
X427Y1849D01*
X419Y1846D01*
X411Y1839D01*
X404Y1831D01*
X401Y1822D01*
X440D01*
Y1798D01*
X401D01*
X404Y1789D01*
X411Y1781D01*
X411Y1781D01*
Y1748D01*
X406D01*
Y1769D01*
X405Y1777D01*
X402Y1785D01*
X397Y1791D01*
X397Y1791D01*
X342Y1845D01*
Y1921D01*
X360D01*
Y2004D01*
X265D01*
Y1921D01*
X282D01*
Y1850D01*
X277Y1847D01*
X273Y1849D01*
Y1810D01*
X248D01*
Y1849D01*
X247Y1849D01*
X244Y1853D01*
X246Y1857D01*
X247Y1866D01*
Y1921D01*
X259D01*
Y2004D01*
X164D01*
Y1921D01*
X176D01*
Y1881D01*
X168Y1873D01*
X162Y1866D01*
X159Y1857D01*
X158Y1848D01*
Y1748D01*
X149D01*
Y1682D01*
X181D01*
X184Y1681D01*
X193Y1680D01*
X202Y1681D01*
X205Y1682D01*
X234D01*
Y1645D01*
X247D01*
Y1604D01*
X231D01*
Y1521D01*
X326D01*
Y1604D01*
X307D01*
Y1645D01*
X321D01*
Y1710D01*
X321Y1710D01*
X321D01*
X321Y1710D01*
X323Y1715D01*
X326D01*
Y1740D01*
X277D01*
Y1765D01*
X326D01*
Y1770D01*
X330Y1772D01*
X345Y1757D01*
Y1748D01*
X332D01*
Y1682D01*
X416D01*
Y1645D01*
X429D01*
Y1604D01*
X416D01*
Y1521D01*
X511D01*
Y1604D01*
X490D01*
Y1645D01*
X503D01*
Y1710D01*
X503Y1710D01*
X503D01*
X503Y1710D01*
X505Y1715D01*
X508D01*
Y1740D01*
X460D01*
Y1765D01*
X508D01*
Y1767D01*
X513Y1769D01*
X528Y1754D01*
Y1748D01*
X514D01*
Y1682D01*
X578D01*
X580Y1678D01*
X549Y1646D01*
X544Y1640D01*
X541Y1633D01*
X540Y1625D01*
Y1413D01*
X453Y1326D01*
X447Y1323D01*
X440Y1318D01*
X434Y1311D01*
X431Y1303D01*
X430Y1294D01*
X431Y1285D01*
X434Y1277D01*
X440Y1270D01*
X447Y1264D01*
X455Y1261D01*
X464Y1260D01*
X473Y1261D01*
X481Y1264D01*
X488Y1270D01*
X493Y1277D01*
X496Y1283D01*
X591Y1379D01*
X591Y1379D01*
X596Y1385D01*
X599Y1392D01*
X600Y1400D01*
Y1424D01*
X601Y1425D01*
X606Y1427D01*
X609Y1425D01*
Y1392D01*
X606Y1385D01*
X567Y1346D01*
X560Y1337D01*
X558Y1330D01*
X556Y1328D01*
X555Y1317D01*
Y1031D01*
X551Y1022D01*
X550Y1010D01*
X551Y998D01*
X556Y987D01*
X563Y978D01*
X572Y971D01*
X583Y966D01*
X595Y965D01*
X607Y966D01*
X618Y971D01*
X627Y978D01*
X634Y987D01*
X639Y998D01*
X640Y1010D01*
X639Y1022D01*
X635Y1031D01*
Y1301D01*
X662Y1328D01*
X672Y1332D01*
X681Y1339D01*
X688Y1348D01*
X693Y1359D01*
X694Y1371D01*
X693Y1383D01*
X689Y1392D01*
Y1429D01*
X696D01*
Y1512D01*
X605D01*
X601Y1512D01*
X600Y1517D01*
Y1519D01*
X601Y1523D01*
X696D01*
Y1607D01*
X684D01*
Y1636D01*
X683Y1645D01*
X679Y1654D01*
X674Y1661D01*
X667Y1667D01*
X659Y1670D01*
X654Y1672D01*
X655Y1680D01*
Y1780D01*
X654Y1788D01*
X651Y1795D01*
X646Y1801D01*
X544Y1904D01*
Y1921D01*
X561D01*
Y2004D01*
D02*
G37*
G36*
X-909Y1397D02*
Y1340D01*
X-852D01*
X-852Y1341D01*
X-856Y1354D01*
X-862Y1367D01*
X-871Y1377D01*
X-882Y1386D01*
X-894Y1393D01*
X-907Y1397D01*
X-909Y1397D01*
D02*
G37*
G36*
X921D02*
X919Y1397D01*
X906Y1393D01*
X894Y1386D01*
X883Y1377D01*
X874Y1367D01*
X868Y1354D01*
X864Y1341D01*
X864Y1340D01*
X921D01*
Y1397D01*
D02*
G37*
%LPD*%
G36*
X-939Y2674D02*
X-914D01*
Y2665D01*
X-949D01*
Y2715D01*
X-939D01*
Y2674D01*
D02*
G37*
G36*
X-977Y2715D02*
X-975Y2715D01*
X-974Y2715D01*
X-972Y2715D01*
X-971Y2715D01*
X-971D01*
X-971Y2715D01*
X-970Y2715D01*
X-969Y2714D01*
X-969Y2714D01*
X-968Y2714D01*
X-967Y2713D01*
X-966Y2713D01*
X-966Y2713D01*
X-965Y2713D01*
X-965Y2712D01*
X-964Y2712D01*
X-964Y2711D01*
X-963Y2710D01*
X-963Y2710D01*
X-962Y2709D01*
X-962Y2708D01*
X-962Y2708D01*
X-961Y2708D01*
X-961Y2707D01*
X-961Y2706D01*
X-961Y2705D01*
X-960Y2704D01*
X-960Y2703D01*
Y2703D01*
Y2702D01*
X-960Y2701D01*
X-961Y2701D01*
X-961Y2700D01*
X-961Y2698D01*
X-962Y2697D01*
X-962Y2696D01*
X-962Y2696D01*
X-963Y2696D01*
X-963Y2695D01*
X-964Y2695D01*
X-964Y2694D01*
X-965Y2693D01*
X-966Y2692D01*
X-968Y2692D01*
X-967D01*
X-967Y2692D01*
X-967Y2692D01*
X-967Y2692D01*
X-966Y2691D01*
X-965Y2691D01*
X-964Y2690D01*
X-963Y2689D01*
X-961Y2688D01*
X-960Y2687D01*
X-960Y2687D01*
X-960Y2687D01*
X-960Y2686D01*
X-959Y2685D01*
X-959Y2684D01*
X-958Y2683D01*
X-958Y2681D01*
X-958Y2680D01*
Y2679D01*
Y2679D01*
X-958Y2678D01*
X-958Y2677D01*
X-958Y2676D01*
X-959Y2675D01*
X-959Y2674D01*
X-960Y2673D01*
X-960Y2673D01*
X-960Y2672D01*
X-960Y2672D01*
X-961Y2671D01*
X-961Y2670D01*
X-962Y2669D01*
X-963Y2668D01*
X-964Y2668D01*
X-964Y2668D01*
X-964Y2667D01*
X-965Y2667D01*
X-966Y2667D01*
X-967Y2666D01*
X-968Y2666D01*
X-969Y2666D01*
X-971Y2665D01*
X-971D01*
X-971Y2665D01*
X-972D01*
X-973Y2665D01*
X-974D01*
X-975Y2665D01*
X-977D01*
X-978Y2665D01*
X-1000D01*
Y2715D01*
X-978D01*
X-977Y2715D01*
D02*
G37*
G36*
X-1006Y2665D02*
X-1017D01*
X-1021Y2676D01*
X-1041D01*
X-1045Y2665D01*
X-1056D01*
X-1037Y2715D01*
X-1026D01*
X-1006Y2665D01*
D02*
G37*
%LPC*%
G36*
X-980Y2707D02*
X-990D01*
Y2695D01*
X-980D01*
X-979Y2695D01*
X-977D01*
X-976Y2696D01*
X-976D01*
X-975Y2696D01*
X-975Y2696D01*
X-974Y2696D01*
X-974Y2696D01*
X-973Y2696D01*
X-972Y2697D01*
X-972Y2697D01*
X-972Y2697D01*
X-972Y2698D01*
X-971Y2698D01*
X-971Y2698D01*
X-971Y2699D01*
X-971Y2700D01*
X-970Y2700D01*
X-970Y2701D01*
Y2701D01*
Y2702D01*
X-970Y2702D01*
X-970Y2703D01*
X-971Y2703D01*
X-971Y2704D01*
X-971Y2704D01*
X-972Y2705D01*
X-972Y2705D01*
X-972Y2705D01*
X-972Y2706D01*
X-973Y2706D01*
X-973Y2706D01*
X-974Y2706D01*
X-975Y2707D01*
X-975Y2707D01*
X-976D01*
X-976Y2707D01*
X-977D01*
X-977Y2707D01*
X-979D01*
X-980Y2707D01*
D02*
G37*
G36*
X-1031Y2704D02*
X-1038Y2685D01*
X-1024D01*
X-1031Y2704D01*
D02*
G37*
G36*
X-979Y2687D02*
X-990D01*
Y2674D01*
X-979D01*
X-978Y2674D01*
X-976D01*
X-975Y2674D01*
X-974Y2674D01*
X-974D01*
X-974Y2674D01*
X-974D01*
X-973Y2674D01*
X-973Y2674D01*
X-972Y2674D01*
X-972Y2675D01*
X-971Y2675D01*
X-970Y2675D01*
X-970Y2676D01*
X-970Y2676D01*
X-970Y2676D01*
X-969Y2677D01*
X-969Y2677D01*
X-969Y2678D01*
X-969Y2678D01*
X-969Y2679D01*
X-968Y2680D01*
Y2680D01*
Y2681D01*
X-969Y2681D01*
X-969Y2681D01*
X-969Y2682D01*
X-969Y2683D01*
X-969Y2683D01*
X-970Y2684D01*
X-970Y2684D01*
X-970Y2684D01*
X-970Y2685D01*
X-970Y2685D01*
X-971Y2685D01*
X-971Y2686D01*
X-972Y2686D01*
X-973Y2686D01*
X-973D01*
X-973Y2686D01*
X-974Y2687D01*
X-974Y2687D01*
X-975Y2687D01*
X-975Y2687D01*
X-976Y2687D01*
X-977Y2687D01*
X-977D01*
X-978Y2687D01*
X-979Y2687D01*
D02*
G37*
%LPD*%
D13*
X933Y1553D02*
Y2225D01*
X875Y1495D02*
X933Y1553D01*
X595Y1317D02*
X649Y1371D01*
X595Y1010D02*
Y1317D01*
X649Y1371D02*
Y1471D01*
X715Y1963D02*
X933D01*
X465Y503D02*
X527D01*
X69D02*
X465D01*
X-31D02*
X69D01*
X-280Y370D02*
X-147Y503D01*
X-31D01*
X527D02*
X570Y460D01*
X-545Y430D02*
X-485Y370D01*
X-280D01*
X-700Y430D02*
X-545D01*
D14*
X-240Y2029D02*
Y2220D01*
X-165Y2295D01*
Y2413D01*
X-545Y2115D02*
X-331Y2329D01*
Y2413D01*
X-421Y781D02*
Y1727D01*
X-545Y2029D02*
Y2115D01*
Y1737D02*
X-240D01*
D15*
X690Y465D02*
Y565D01*
X595Y370D02*
X690Y465D01*
X569Y720D02*
X650D01*
X868Y502D01*
Y446D02*
Y502D01*
X685Y1270D02*
X690Y1210D01*
X685Y1270D02*
X770Y1355D01*
X-75Y2205D02*
Y2540D01*
X-100Y2180D02*
X-75Y2205D01*
X-100Y1670D02*
Y2180D01*
X-55Y2165D02*
X0Y2220D01*
X-55Y1650D02*
Y2165D01*
X0Y2220D02*
Y2413D01*
X-200Y1570D02*
X-100Y1670D01*
X-65Y1640D02*
X-55Y1650D01*
X769Y144D02*
X868Y243D01*
X769Y120D02*
Y144D01*
X614Y1906D02*
Y1963D01*
Y1906D02*
X770Y1750D01*
Y1355D02*
Y1750D01*
X190Y370D02*
X595D01*
X69Y249D02*
X190Y370D01*
X69Y120D02*
Y249D01*
X-615Y800D02*
Y1365D01*
X-785Y1535D02*
X-615Y1365D01*
X-785Y1535D02*
Y1963D01*
X-65Y1562D02*
Y1635D01*
X774Y350D02*
Y446D01*
X868Y350D02*
Y446D01*
Y260D02*
Y350D01*
X169Y120D02*
Y214D01*
X210Y255D01*
X390D01*
X440Y305D01*
X635D01*
X680Y350D01*
X774D01*
X269Y120D02*
Y174D01*
X295Y200D01*
X445D01*
X505Y260D01*
X774D01*
X649Y1565D02*
Y1636D01*
X211Y1866D02*
Y1963D01*
X193Y1848D02*
X211Y1866D01*
X193Y1715D02*
Y1848D01*
X10Y2057D02*
Y2160D01*
X111Y2057D02*
Y2131D01*
X211Y2057D02*
Y2131D01*
X312Y2057D02*
Y2152D01*
X331Y2171D02*
Y2413D01*
X312Y2152D02*
X331Y2171D01*
X514Y2057D02*
Y2161D01*
X496Y2179D02*
X514Y2161D01*
X614Y2057D02*
X715D01*
X614D02*
Y2246D01*
X580Y2280D02*
X614Y2246D01*
X580Y2280D02*
Y2490D01*
X-231Y619D02*
Y720D01*
X-293Y557D02*
X-231Y619D01*
X-345Y557D02*
X-293D01*
X496Y2179D02*
Y2413D01*
Y2574D02*
X580Y2490D01*
X496Y2574D02*
Y2630D01*
X415Y2057D02*
Y2480D01*
X331Y2564D02*
X415Y2480D01*
X331Y2564D02*
Y2630D01*
X250Y2170D02*
Y2480D01*
X165Y2565D02*
X250Y2480D01*
X165Y2565D02*
Y2630D01*
X211Y2131D02*
X250Y2170D01*
X85Y2235D02*
Y2475D01*
X0Y2560D02*
X85Y2475D01*
X0Y2560D02*
Y2630D01*
X10Y2160D02*
X85Y2235D01*
X-200Y1440D02*
Y1570D01*
X-165Y2630D02*
X-75Y2540D01*
X165Y2185D02*
Y2413D01*
X111Y2131D02*
X165Y2185D01*
X-921Y1327D02*
Y2064D01*
X-825Y2160D01*
X-451Y2510D02*
X-331Y2630D01*
X-555Y2510D02*
X-451D01*
X-615Y2450D02*
X-555Y2510D01*
X-615Y2227D02*
Y2450D01*
X-785Y2057D02*
X-615Y2227D01*
X-825Y2160D02*
Y2305D01*
X-725Y2405D01*
X-1029Y872D02*
X-921Y980D01*
X-1029Y434D02*
Y872D01*
X-823Y957D02*
Y1177D01*
X-931Y849D02*
X-823Y957D01*
X-931Y585D02*
Y849D01*
X-700Y230D02*
X-554D01*
X-456Y106D02*
Y193D01*
Y106D02*
X-395Y45D01*
X735D01*
X769Y79D01*
Y120D01*
X-438Y463D02*
X-345D01*
X-565Y590D02*
X-438Y463D01*
X-931Y500D02*
Y585D01*
X-996Y401D02*
X-967D01*
X-1029Y434D02*
X-996Y401D01*
X-740Y590D02*
X-565D01*
X-820Y510D02*
X-740Y590D01*
X-893Y401D02*
X-844D01*
X-820Y425D01*
Y510D01*
X-456Y267D02*
X-330D01*
X-233Y265D02*
X-185D01*
X-131Y211D01*
Y120D02*
Y211D01*
X95Y1752D02*
Y1810D01*
X95Y1810D01*
X277Y1752D02*
Y1793D01*
X260Y1810D02*
X277Y1793D01*
X460Y1752D02*
Y1790D01*
X440Y1810D02*
X460Y1790D01*
X-823Y783D02*
X-720Y886D01*
Y1225D01*
X-822Y1327D02*
X-720Y1225D01*
X-921Y1327D02*
X-822D01*
D16*
X514Y1891D02*
Y1963D01*
Y1891D02*
X625Y1780D01*
Y1680D02*
Y1780D01*
X570Y1625D02*
X625Y1680D01*
X570Y1400D02*
Y1625D01*
X464Y1294D02*
X570Y1400D01*
X30Y1375D02*
X100Y1305D01*
X30Y1375D02*
Y1835D01*
X111Y1916D01*
Y1963D01*
X10Y1900D02*
Y1963D01*
X-5Y1885D02*
X10Y1900D01*
X-5Y1350D02*
Y1885D01*
X-40Y1315D02*
X-5Y1350D01*
X-40Y1300D02*
Y1315D01*
X-65Y1390D02*
Y1468D01*
X-131Y1324D02*
X-65Y1390D01*
X-131Y720D02*
Y1324D01*
X465Y597D02*
Y716D01*
X69Y597D02*
Y720D01*
X-31Y597D02*
Y720D01*
X413Y1912D02*
Y1963D01*
X312Y1833D02*
Y1963D01*
X169Y720D02*
Y1341D01*
X94Y1416D02*
X169Y1341D01*
X94Y1416D02*
Y1468D01*
X269Y720D02*
Y1349D01*
X279Y1359D01*
Y1468D01*
X369Y720D02*
Y1339D01*
X464Y1434D01*
Y1468D01*
X95Y1563D02*
Y1678D01*
X277Y1564D02*
Y1678D01*
X460Y1566D02*
Y1678D01*
X376Y1715D02*
Y1769D01*
X312Y1833D02*
X376Y1769D01*
X558Y1715D02*
Y1767D01*
X413Y1912D02*
X558Y1767D01*
D17*
X-421Y783D02*
D03*
X-823D02*
D03*
Y1177D02*
D03*
X-921Y980D02*
D03*
D18*
X-700Y230D02*
D03*
Y180D02*
D03*
D19*
Y430D02*
D03*
Y480D02*
D03*
D20*
X-921Y2225D02*
D03*
Y1327D02*
D03*
X933D02*
D03*
Y2225D02*
D03*
D21*
X496Y2413D02*
D03*
D22*
Y2630D02*
D03*
X331Y2413D02*
D03*
Y2630D02*
D03*
X165Y2413D02*
D03*
Y2630D02*
D03*
X0Y2413D02*
D03*
Y2630D02*
D03*
X-165Y2413D02*
D03*
Y2630D02*
D03*
X-331Y2413D02*
D03*
Y2630D02*
D03*
X-496Y2413D02*
D03*
Y2630D02*
D03*
D23*
X-231Y720D02*
D03*
X-131D02*
D03*
X-31D02*
D03*
X69D02*
D03*
X169D02*
D03*
X269D02*
D03*
X369D02*
D03*
X469D02*
D03*
X569D02*
D03*
X869Y120D02*
D03*
X769D02*
D03*
X669D02*
D03*
X569D02*
D03*
X469D02*
D03*
X369D02*
D03*
X269D02*
D03*
X169D02*
D03*
X69D02*
D03*
X-31D02*
D03*
X-131D02*
D03*
X-231D02*
D03*
D24*
X690Y565D02*
D03*
X-455Y2205D02*
D03*
X-545Y2115D02*
D03*
X-370Y2290D02*
D03*
X-165Y2320D02*
D03*
X-225Y2245D02*
D03*
X-240Y2145D02*
D03*
X-420Y900D02*
D03*
Y1025D02*
D03*
Y1185D02*
D03*
Y1320D02*
D03*
Y1445D02*
D03*
Y1590D02*
D03*
X-395Y45D02*
D03*
X690Y1210D02*
D03*
X595Y1010D02*
D03*
X875Y1495D02*
D03*
X649Y1371D02*
D03*
X-200Y1440D02*
D03*
X-615Y800D02*
D03*
X-931Y585D02*
D03*
D25*
X464Y1294D02*
D03*
X100Y1305D02*
D03*
X-65Y1635D02*
D03*
X570Y460D02*
D03*
X649Y1636D02*
D03*
D26*
X-40Y1300D02*
D03*
X-725Y2405D02*
D03*
X95Y1810D02*
D03*
X260D02*
D03*
X440D02*
D03*
D27*
X-65Y1562D02*
D03*
X-65Y1468D02*
D03*
X-345Y463D02*
D03*
X-345Y557D02*
D03*
X715Y1963D02*
D03*
X715Y2057D02*
D03*
X614Y1963D02*
D03*
X614Y2057D02*
D03*
X464Y1562D02*
D03*
X464Y1468D02*
D03*
X279Y1562D02*
D03*
X279Y1468D02*
D03*
X211Y2057D02*
D03*
X211Y1963D02*
D03*
X94Y1562D02*
D03*
X94Y1468D02*
D03*
X312Y2057D02*
D03*
X312Y1963D02*
D03*
X413Y2057D02*
D03*
X413Y1963D02*
D03*
X10D02*
D03*
X10Y2057D02*
D03*
X111D02*
D03*
X111Y1963D02*
D03*
X514Y2057D02*
D03*
X514Y1963D02*
D03*
X-785D02*
D03*
X-785Y2057D02*
D03*
X649Y1565D02*
D03*
X649Y1471D02*
D03*
X-31Y503D02*
D03*
X-31Y597D02*
D03*
X69D02*
D03*
X69Y503D02*
D03*
X465Y597D02*
D03*
X465Y503D02*
D03*
D28*
X-327Y265D02*
D03*
X-233Y265D02*
D03*
X774Y260D02*
D03*
X868D02*
D03*
X774Y446D02*
D03*
X868D02*
D03*
Y350D02*
D03*
X774Y350D02*
D03*
D29*
X-545Y1737D02*
D03*
Y2029D02*
D03*
X-240D02*
D03*
Y1737D02*
D03*
D30*
X-930Y499D02*
D03*
X-967Y401D02*
D03*
X-893D02*
D03*
D31*
X-554Y230D02*
D03*
X-456Y193D02*
D03*
Y267D02*
D03*
X558Y1715D02*
D03*
X460Y1752D02*
D03*
Y1678D02*
D03*
X193Y1715D02*
D03*
X95Y1752D02*
D03*
Y1678D02*
D03*
X376Y1715D02*
D03*
X277Y1752D02*
D03*
Y1678D02*
D03*
D32*
X-40Y120D02*
X-31D01*
D33*
X-655Y2630D02*
X-496D01*
X-921Y2364D02*
X-655Y2630D01*
X-921Y2225D02*
Y2364D01*
X-1035Y2111D02*
X-921Y2225D01*
X-1035Y1094D02*
Y2111D01*
Y1094D02*
X-921Y980D01*
M02*
