%FSLAX23Y23*%
%MOIN*%
G70*
G01*
G75*
G04 Layer_Color=32896*
G04:AMPARAMS|DCode=10|XSize=51mil|YSize=118mil|CornerRadius=0mil|HoleSize=0mil|Usage=FLASHONLY|Rotation=0.000|XOffset=0mil|YOffset=0mil|HoleType=Round|Shape=Octagon|*
%AMOCTAGOND10*
4,1,8,-0.013,0.059,0.013,0.059,0.026,0.046,0.026,-0.046,0.013,-0.059,-0.013,-0.059,-0.026,-0.046,-0.026,0.046,-0.013,0.059,0.0*
%
%ADD10OCTAGOND10*%

%ADD11R,0.051X0.118*%
%ADD12R,0.051X0.073*%
%ADD13R,0.055X0.043*%
%ADD14C,0.059*%
%ADD15C,0.039*%
%ADD16C,0.020*%
%ADD17C,0.030*%
%ADD18C,0.020*%
%ADD19C,0.157*%
%ADD20C,0.010*%
%ADD21C,0.074*%
%ADD22O,0.098X0.118*%
G04:AMPARAMS|DCode=23|XSize=98mil|YSize=118mil|CornerRadius=0mil|HoleSize=0mil|Usage=FLASHONLY|Rotation=180.000|XOffset=0mil|YOffset=0mil|HoleType=Round|Shape=Octagon|*
%AMOCTAGOND23*
4,1,8,0.025,-0.059,-0.025,-0.059,-0.049,-0.034,-0.049,0.034,-0.025,0.059,0.025,0.059,0.049,0.034,0.049,-0.034,0.025,-0.059,0.0*
%
%ADD23OCTAGOND23*%

%ADD24C,0.091*%
%ADD25C,0.060*%
%ADD26C,0.031*%
%ADD27C,0.017*%
%ADD28R,0.047X0.026*%
%ADD29R,0.043X0.055*%
%ADD30C,0.008*%
%ADD31C,0.010*%
%ADD32C,0.008*%
%ADD33C,0.006*%
%ADD34C,0.010*%
%ADD35C,0.012*%
G04:AMPARAMS|DCode=36|XSize=59mil|YSize=126mil|CornerRadius=0mil|HoleSize=0mil|Usage=FLASHONLY|Rotation=0.000|XOffset=0mil|YOffset=0mil|HoleType=Round|Shape=Octagon|*
%AMOCTAGOND36*
4,1,8,-0.015,0.063,0.015,0.063,0.030,0.048,0.030,-0.048,0.015,-0.063,-0.015,-0.063,-0.030,-0.048,-0.030,0.048,-0.015,0.063,0.0*
%
%ADD36OCTAGOND36*%

%ADD37R,0.059X0.126*%
%ADD38R,0.059X0.081*%
%ADD39R,0.063X0.051*%
%ADD40C,0.082*%
%ADD41O,0.106X0.126*%
G04:AMPARAMS|DCode=42|XSize=106mil|YSize=126mil|CornerRadius=0mil|HoleSize=0mil|Usage=FLASHONLY|Rotation=180.000|XOffset=0mil|YOffset=0mil|HoleType=Round|Shape=Octagon|*
%AMOCTAGOND42*
4,1,8,0.027,-0.063,-0.027,-0.063,-0.053,-0.036,-0.053,0.036,-0.027,0.063,0.027,0.063,0.053,0.036,0.053,-0.036,0.027,-0.063,0.0*
%
%ADD42OCTAGOND42*%

%ADD43C,0.099*%
%ADD44C,0.068*%
%ADD45C,0.039*%
%ADD46C,0.025*%
%ADD47R,0.055X0.034*%
%ADD48R,0.051X0.063*%
%ADD49C,0.006*%
%ADD50C,0.004*%
%ADD51R,0.750X0.200*%
G36*
X1690Y835D02*
X940D01*
Y1035D01*
X1690D01*
Y835D01*
D02*
G37*
%LPC*%
G36*
X1256Y895D02*
X1232D01*
Y871D01*
X1256D01*
Y895D01*
D02*
G37*
G36*
X1318Y997D02*
X1317D01*
X1315Y997D01*
X1314Y997D01*
X1312Y996D01*
X1310Y996D01*
X1308Y995D01*
X1306Y995D01*
X1303Y994D01*
X1301Y993D01*
X1298Y992D01*
X1296Y990D01*
X1294Y988D01*
X1292Y986D01*
X1290Y984D01*
X1289Y984D01*
X1289Y983D01*
X1288Y982D01*
X1288Y981D01*
X1287Y979D01*
X1286Y977D01*
X1285Y975D01*
X1283Y972D01*
X1282Y968D01*
X1281Y965D01*
X1280Y960D01*
X1279Y956D01*
X1278Y951D01*
X1278Y945D01*
X1278Y939D01*
X1277Y933D01*
Y932D01*
Y932D01*
Y931D01*
Y929D01*
X1278Y927D01*
X1278Y924D01*
X1278Y920D01*
X1278Y917D01*
X1279Y913D01*
X1280Y904D01*
X1281Y900D01*
X1283Y896D01*
X1284Y892D01*
X1286Y888D01*
X1288Y884D01*
X1290Y881D01*
X1290Y881D01*
X1290Y881D01*
X1291Y880D01*
X1292Y879D01*
X1293Y878D01*
X1294Y877D01*
X1295Y876D01*
X1297Y875D01*
X1299Y873D01*
X1301Y872D01*
X1304Y871D01*
X1306Y870D01*
X1309Y869D01*
X1312Y869D01*
X1315Y868D01*
X1318Y868D01*
X1319D01*
X1320Y868D01*
X1321D01*
X1323Y869D01*
X1325Y869D01*
X1327Y869D01*
X1329Y870D01*
X1331Y871D01*
X1334Y872D01*
X1336Y873D01*
X1339Y874D01*
X1341Y876D01*
X1343Y878D01*
X1346Y880D01*
X1348Y882D01*
X1348Y882D01*
X1348Y883D01*
X1349Y884D01*
X1350Y885D01*
X1351Y887D01*
X1352Y889D01*
X1353Y891D01*
X1354Y894D01*
X1355Y897D01*
X1356Y901D01*
X1357Y905D01*
X1357Y910D01*
X1358Y915D01*
X1359Y920D01*
X1359Y926D01*
X1359Y933D01*
Y933D01*
Y933D01*
Y934D01*
Y936D01*
X1359Y939D01*
X1359Y942D01*
X1359Y945D01*
X1358Y949D01*
X1358Y953D01*
X1356Y961D01*
X1355Y965D01*
X1354Y970D01*
X1353Y974D01*
X1351Y977D01*
X1349Y981D01*
X1347Y984D01*
X1347Y984D01*
X1347Y985D01*
X1346Y985D01*
X1345Y986D01*
X1344Y987D01*
X1343Y988D01*
X1341Y989D01*
X1339Y991D01*
X1337Y992D01*
X1335Y993D01*
X1333Y994D01*
X1331Y995D01*
X1328Y996D01*
X1325Y997D01*
X1322Y997D01*
X1318Y997D01*
D02*
G37*
G36*
X1171D02*
X1170D01*
X1168Y997D01*
X1167Y997D01*
X1165Y996D01*
X1163Y996D01*
X1161Y995D01*
X1159Y995D01*
X1156Y994D01*
X1154Y993D01*
X1151Y992D01*
X1149Y990D01*
X1147Y988D01*
X1145Y986D01*
X1143Y984D01*
X1142Y984D01*
X1142Y983D01*
X1141Y982D01*
X1141Y981D01*
X1140Y979D01*
X1139Y977D01*
X1138Y975D01*
X1136Y972D01*
X1135Y968D01*
X1134Y965D01*
X1133Y960D01*
X1132Y956D01*
X1131Y951D01*
X1131Y945D01*
X1130Y939D01*
X1130Y933D01*
Y932D01*
Y932D01*
Y931D01*
Y929D01*
X1130Y927D01*
X1131Y924D01*
X1131Y920D01*
X1131Y917D01*
X1132Y913D01*
X1133Y904D01*
X1134Y900D01*
X1135Y896D01*
X1137Y892D01*
X1139Y888D01*
X1141Y884D01*
X1143Y881D01*
X1143Y881D01*
X1143Y881D01*
X1144Y880D01*
X1145Y879D01*
X1146Y878D01*
X1147Y877D01*
X1148Y876D01*
X1150Y875D01*
X1152Y873D01*
X1154Y872D01*
X1157Y871D01*
X1159Y870D01*
X1162Y869D01*
X1165Y869D01*
X1168Y868D01*
X1171Y868D01*
X1172D01*
X1173Y868D01*
X1174D01*
X1176Y869D01*
X1178Y869D01*
X1180Y869D01*
X1182Y870D01*
X1184Y871D01*
X1187Y872D01*
X1189Y873D01*
X1192Y874D01*
X1194Y876D01*
X1196Y878D01*
X1199Y880D01*
X1201Y882D01*
X1201Y882D01*
X1201Y883D01*
X1202Y884D01*
X1203Y885D01*
X1204Y887D01*
X1204Y889D01*
X1206Y891D01*
X1207Y894D01*
X1208Y897D01*
X1209Y901D01*
X1210Y905D01*
X1210Y910D01*
X1211Y915D01*
X1212Y920D01*
X1212Y926D01*
X1212Y933D01*
Y933D01*
Y933D01*
Y934D01*
Y936D01*
X1212Y939D01*
X1212Y942D01*
X1212Y945D01*
X1211Y949D01*
X1211Y953D01*
X1209Y961D01*
X1208Y965D01*
X1207Y970D01*
X1206Y974D01*
X1204Y977D01*
X1202Y981D01*
X1200Y984D01*
X1200Y984D01*
X1199Y985D01*
X1199Y985D01*
X1198Y986D01*
X1197Y987D01*
X1196Y988D01*
X1194Y989D01*
X1192Y991D01*
X1190Y992D01*
X1188Y993D01*
X1186Y994D01*
X1184Y995D01*
X1181Y996D01*
X1178Y997D01*
X1175Y997D01*
X1171Y997D01*
D02*
G37*
G36*
X1464D02*
X1444D01*
Y871D01*
X1468D01*
Y962D01*
X1469Y961D01*
X1469Y961D01*
X1470Y960D01*
X1471Y960D01*
X1472Y959D01*
X1474Y957D01*
X1475Y956D01*
X1477Y955D01*
X1480Y953D01*
X1482Y952D01*
X1487Y949D01*
X1493Y946D01*
X1500Y943D01*
Y965D01*
X1500D01*
X1499Y965D01*
X1499Y966D01*
X1498Y966D01*
X1496Y967D01*
X1494Y968D01*
X1490Y970D01*
X1487Y972D01*
X1483Y974D01*
X1479Y977D01*
X1479Y977D01*
X1479Y977D01*
X1478Y978D01*
X1477Y979D01*
X1475Y980D01*
X1473Y983D01*
X1470Y986D01*
X1468Y989D01*
X1466Y993D01*
X1464Y997D01*
D02*
G37*
G36*
X1403Y895D02*
X1379D01*
Y871D01*
X1403D01*
Y895D01*
D02*
G37*
%LPD*%
G36*
X1320Y977D02*
X1321Y977D01*
X1322Y976D01*
X1323Y976D01*
X1325Y975D01*
X1326Y974D01*
X1326Y974D01*
X1327Y974D01*
X1327Y973D01*
X1328Y972D01*
X1329Y971D01*
X1330Y969D01*
X1331Y967D01*
X1331Y964D01*
Y964D01*
Y964D01*
X1332Y963D01*
X1332Y963D01*
X1332Y961D01*
X1332Y960D01*
X1332Y959D01*
X1332Y957D01*
X1333Y955D01*
X1333Y952D01*
X1333Y950D01*
X1333Y947D01*
X1333Y944D01*
Y940D01*
X1334Y937D01*
Y933D01*
Y932D01*
Y932D01*
Y930D01*
Y929D01*
Y927D01*
X1333Y925D01*
Y923D01*
Y920D01*
X1333Y915D01*
X1333Y910D01*
X1332Y908D01*
X1332Y906D01*
X1332Y904D01*
X1332Y902D01*
X1331Y901D01*
X1331Y900D01*
X1331Y899D01*
X1330Y897D01*
X1329Y896D01*
X1328Y894D01*
X1327Y892D01*
X1326Y891D01*
X1326Y891D01*
X1326Y891D01*
X1325Y890D01*
X1324Y890D01*
X1323Y889D01*
X1321Y889D01*
X1320Y888D01*
X1318Y888D01*
X1317D01*
X1317Y888D01*
X1316Y889D01*
X1313Y889D01*
X1312Y890D01*
X1311Y891D01*
X1311Y891D01*
X1310Y891D01*
X1310Y892D01*
X1309Y893D01*
X1308Y895D01*
X1307Y896D01*
X1306Y898D01*
X1305Y901D01*
Y901D01*
X1305Y901D01*
Y902D01*
X1305Y903D01*
X1305Y904D01*
X1305Y905D01*
X1304Y907D01*
X1304Y908D01*
X1304Y910D01*
X1304Y913D01*
X1303Y915D01*
X1303Y918D01*
X1303Y921D01*
Y925D01*
X1303Y929D01*
Y933D01*
Y933D01*
Y934D01*
Y935D01*
Y936D01*
Y938D01*
X1303Y940D01*
Y942D01*
Y945D01*
X1303Y950D01*
X1304Y955D01*
X1304Y957D01*
X1304Y960D01*
X1305Y961D01*
X1305Y963D01*
Y963D01*
Y964D01*
X1306Y965D01*
X1306Y966D01*
X1307Y968D01*
X1308Y971D01*
X1310Y973D01*
X1311Y974D01*
X1311Y974D01*
X1311Y975D01*
X1312Y975D01*
X1313Y976D01*
X1314Y976D01*
X1315Y977D01*
X1317Y977D01*
X1318Y977D01*
X1319D01*
X1320Y977D01*
D02*
G37*
G36*
X1173D02*
X1174Y977D01*
X1175Y976D01*
X1176Y976D01*
X1178Y975D01*
X1179Y974D01*
X1179Y974D01*
X1180Y974D01*
X1180Y973D01*
X1181Y972D01*
X1182Y971D01*
X1183Y969D01*
X1184Y967D01*
X1184Y964D01*
Y964D01*
Y964D01*
X1184Y963D01*
X1185Y963D01*
X1185Y961D01*
X1185Y960D01*
X1185Y959D01*
X1185Y957D01*
X1186Y955D01*
X1186Y952D01*
X1186Y950D01*
X1186Y947D01*
X1186Y944D01*
Y940D01*
X1187Y937D01*
Y933D01*
Y932D01*
Y932D01*
Y930D01*
Y929D01*
Y927D01*
X1186Y925D01*
Y923D01*
Y920D01*
X1186Y915D01*
X1186Y910D01*
X1185Y908D01*
X1185Y906D01*
X1185Y904D01*
X1184Y902D01*
X1184Y901D01*
X1184Y900D01*
X1184Y899D01*
X1183Y897D01*
X1182Y896D01*
X1181Y894D01*
X1180Y892D01*
X1179Y891D01*
X1179Y891D01*
X1179Y891D01*
X1178Y890D01*
X1177Y890D01*
X1176Y889D01*
X1174Y889D01*
X1173Y888D01*
X1171Y888D01*
X1170D01*
X1170Y888D01*
X1169Y889D01*
X1166Y889D01*
X1165Y890D01*
X1164Y891D01*
X1164Y891D01*
X1163Y891D01*
X1163Y892D01*
X1162Y893D01*
X1161Y895D01*
X1160Y896D01*
X1159Y898D01*
X1158Y901D01*
Y901D01*
X1158Y901D01*
Y902D01*
X1158Y903D01*
X1158Y904D01*
X1158Y905D01*
X1157Y907D01*
X1157Y908D01*
X1157Y910D01*
X1157Y913D01*
X1156Y915D01*
X1156Y918D01*
X1156Y921D01*
Y925D01*
X1156Y929D01*
Y933D01*
Y933D01*
Y934D01*
Y935D01*
Y936D01*
Y938D01*
X1156Y940D01*
Y942D01*
Y945D01*
X1156Y950D01*
X1157Y955D01*
X1157Y957D01*
X1157Y960D01*
X1158Y961D01*
X1158Y963D01*
Y963D01*
Y964D01*
X1159Y965D01*
X1159Y966D01*
X1160Y968D01*
X1161Y971D01*
X1163Y973D01*
X1164Y974D01*
X1164Y974D01*
X1164Y975D01*
X1165Y975D01*
X1166Y976D01*
X1167Y976D01*
X1168Y977D01*
X1170Y977D01*
X1171Y977D01*
X1172D01*
X1173Y977D01*
D02*
G37*
D20*
X950Y260D02*
X1010D01*
Y290D01*
X1000Y300D01*
X980D01*
X970Y290D01*
Y260D01*
Y280D02*
X950Y300D01*
Y320D02*
Y340D01*
Y330D01*
X1010D01*
X1000Y320D01*
X1010Y410D02*
X1000Y390D01*
X980Y370D01*
X960D01*
X950Y380D01*
Y400D01*
X960Y410D01*
X970D01*
X980Y400D01*
Y370D01*
X1055Y260D02*
X1115D01*
Y290D01*
X1105Y300D01*
X1085D01*
X1075Y290D01*
Y260D01*
Y280D02*
X1055Y300D01*
Y320D02*
Y340D01*
Y330D01*
X1115D01*
X1105Y320D01*
X1115Y410D02*
Y370D01*
X1085D01*
X1095Y390D01*
Y400D01*
X1085Y410D01*
X1065D01*
X1055Y400D01*
Y380D01*
X1065Y370D01*
X950Y2080D02*
X1010D01*
Y2110D01*
X1000Y2120D01*
X980D01*
X970Y2110D01*
Y2080D01*
Y2100D02*
X950Y2120D01*
Y2140D02*
Y2160D01*
Y2150D01*
X1010D01*
X1000Y2140D01*
X950Y2220D02*
X1010D01*
X980Y2190D01*
Y2230D01*
X585Y255D02*
Y315D01*
X555D01*
X545Y305D01*
Y285D01*
X555Y275D01*
X585D01*
X565D02*
X545Y255D01*
X525D02*
X505D01*
X515D01*
Y315D01*
X525Y305D01*
X475D02*
X465Y315D01*
X445D01*
X435Y305D01*
Y295D01*
X445Y285D01*
X455D01*
X445D01*
X435Y275D01*
Y265D01*
X445Y255D01*
X465D01*
X475Y265D01*
X795Y2080D02*
X855D01*
Y2110D01*
X845Y2120D01*
X825D01*
X815Y2110D01*
Y2080D01*
Y2100D02*
X795Y2120D01*
Y2140D02*
Y2160D01*
Y2150D01*
X855D01*
X845Y2140D01*
Y2190D02*
X855Y2200D01*
Y2220D01*
X845Y2230D01*
X805D01*
X795Y2220D01*
Y2200D01*
X805Y2190D01*
X845D01*
X545Y209D02*
X555Y219D01*
X575D01*
X585Y209D01*
Y169D01*
X575Y159D01*
X555D01*
X545Y169D01*
X525Y209D02*
X515Y219D01*
X495D01*
X485Y209D01*
Y199D01*
X495Y189D01*
X505D01*
X495D01*
X485Y179D01*
Y169D01*
X495Y159D01*
X515D01*
X525Y169D01*
X1652Y1815D02*
Y1855D01*
X1662Y1865D01*
X1682D01*
X1692Y1855D01*
Y1815D01*
X1682Y1805D01*
X1662D01*
X1672Y1825D02*
X1652Y1805D01*
X1662D02*
X1652Y1815D01*
X1632Y1805D02*
X1612D01*
X1622D01*
Y1865D01*
X1632Y1855D01*
X1287Y1815D02*
Y1855D01*
X1297Y1865D01*
X1317D01*
X1327Y1855D01*
Y1815D01*
X1317Y1805D01*
X1297D01*
X1307Y1825D02*
X1287Y1805D01*
X1297D02*
X1287Y1815D01*
X1227Y1805D02*
X1267D01*
X1227Y1845D01*
Y1855D01*
X1237Y1865D01*
X1257D01*
X1267Y1855D01*
X1470Y1815D02*
Y1855D01*
X1480Y1865D01*
X1500D01*
X1510Y1855D01*
Y1815D01*
X1500Y1805D01*
X1480D01*
X1490Y1825D02*
X1470Y1805D01*
X1480D02*
X1470Y1815D01*
X1450Y1855D02*
X1440Y1865D01*
X1420D01*
X1410Y1855D01*
Y1845D01*
X1420Y1835D01*
X1430D01*
X1420D01*
X1410Y1825D01*
Y1815D01*
X1420Y1805D01*
X1440D01*
X1450Y1815D01*
X1625Y1345D02*
Y1405D01*
X1595D01*
X1585Y1395D01*
Y1375D01*
X1595Y1365D01*
X1625D01*
X1605D02*
X1585Y1345D01*
X1525D02*
X1565D01*
X1525Y1385D01*
Y1395D01*
X1535Y1405D01*
X1555D01*
X1565Y1395D01*
X1514Y2080D02*
X1574D01*
Y2110D01*
X1564Y2120D01*
X1544D01*
X1534Y2110D01*
Y2080D01*
Y2100D02*
X1514Y2120D01*
X1564Y2140D02*
X1574Y2150D01*
Y2170D01*
X1564Y2180D01*
X1554D01*
X1544Y2170D01*
Y2160D01*
Y2170D01*
X1534Y2180D01*
X1524D01*
X1514Y2170D01*
Y2150D01*
X1524Y2140D01*
X1250Y1350D02*
Y1410D01*
X1220D01*
X1210Y1400D01*
Y1380D01*
X1220Y1370D01*
X1250D01*
X1230D02*
X1210Y1350D01*
X1160D02*
Y1410D01*
X1190Y1380D01*
X1150D01*
X1232Y2085D02*
X1292D01*
Y2115D01*
X1282Y2125D01*
X1262D01*
X1252Y2115D01*
Y2085D01*
Y2105D02*
X1232Y2125D01*
X1292Y2185D02*
Y2145D01*
X1262D01*
X1272Y2165D01*
Y2175D01*
X1262Y2185D01*
X1242D01*
X1232Y2175D01*
Y2155D01*
X1242Y2145D01*
X1440Y1350D02*
Y1410D01*
X1410D01*
X1400Y1400D01*
Y1380D01*
X1410Y1370D01*
X1440D01*
X1420D02*
X1400Y1350D01*
X1340Y1410D02*
X1360Y1400D01*
X1380Y1380D01*
Y1360D01*
X1370Y1350D01*
X1350D01*
X1340Y1360D01*
Y1370D01*
X1350Y1380D01*
X1380D01*
X1371Y2080D02*
X1431D01*
Y2110D01*
X1421Y2120D01*
X1401D01*
X1391Y2110D01*
Y2080D01*
Y2100D02*
X1371Y2120D01*
X1431Y2140D02*
Y2180D01*
X1421D01*
X1381Y2140D01*
X1371D01*
X1652Y2080D02*
X1712D01*
Y2110D01*
X1702Y2120D01*
X1682D01*
X1672Y2110D01*
Y2080D01*
Y2100D02*
X1652Y2120D01*
X1702Y2140D02*
X1712Y2150D01*
Y2170D01*
X1702Y2180D01*
X1692D01*
X1682Y2170D01*
X1672Y2180D01*
X1662D01*
X1652Y2170D01*
Y2150D01*
X1662Y2140D01*
X1672D01*
X1682Y2150D01*
X1692Y2140D01*
X1702D01*
X1682Y2150D02*
Y2170D01*
X1094Y2080D02*
X1154D01*
Y2110D01*
X1144Y2120D01*
X1124D01*
X1114Y2110D01*
Y2080D01*
Y2100D02*
X1094Y2120D01*
X1104Y2140D02*
X1094Y2150D01*
Y2170D01*
X1104Y2180D01*
X1144D01*
X1154Y2170D01*
Y2150D01*
X1144Y2140D01*
X1134D01*
X1124Y2150D01*
Y2180D01*
X1560Y295D02*
X1620D01*
Y325D01*
X1610Y335D01*
X1590D01*
X1580Y325D01*
Y295D01*
Y315D02*
X1560Y335D01*
Y355D02*
Y375D01*
Y365D01*
X1620D01*
X1610Y355D01*
X1560Y405D02*
Y425D01*
Y415D01*
X1620D01*
X1610Y405D01*
X1160Y260D02*
X1220D01*
Y290D01*
X1210Y300D01*
X1190D01*
X1180Y290D01*
Y260D01*
Y280D02*
X1160Y300D01*
Y320D02*
Y340D01*
Y330D01*
X1220D01*
X1210Y320D01*
X1160Y410D02*
Y370D01*
X1200Y410D01*
X1210D01*
X1220Y400D01*
Y380D01*
X1210Y370D01*
X545Y115D02*
X555Y125D01*
X575D01*
X585Y115D01*
Y75D01*
X575Y65D01*
X555D01*
X545Y75D01*
X525Y65D02*
X505D01*
X515D01*
Y125D01*
X525Y115D01*
X1790Y2080D02*
X1850D01*
Y2110D01*
X1840Y2120D01*
X1820D01*
X1810Y2110D01*
Y2080D01*
Y2100D02*
X1790Y2120D01*
Y2140D02*
Y2160D01*
Y2150D01*
X1850D01*
X1840Y2140D01*
X1850Y2190D02*
Y2230D01*
X1840D01*
X1800Y2190D01*
X1790D01*
X1925Y2090D02*
X1985D01*
Y2120D01*
X1975Y2130D01*
X1955D01*
X1945Y2120D01*
Y2090D01*
Y2110D02*
X1925Y2130D01*
Y2150D02*
Y2170D01*
Y2160D01*
X1985D01*
X1975Y2150D01*
Y2200D02*
X1985Y2210D01*
Y2230D01*
X1975Y2240D01*
X1965D01*
X1955Y2230D01*
X1945Y2240D01*
X1935D01*
X1925Y2230D01*
Y2210D01*
X1935Y2200D01*
X1945D01*
X1955Y2210D01*
X1965Y2200D01*
X1975D01*
X1955Y2210D02*
Y2230D01*
D30*
X1846Y1250D02*
X1853Y1257D01*
X1864Y1260D01*
X1878D01*
X1889Y1257D01*
X1896Y1250D01*
Y1243D01*
X1892Y1235D01*
X1889Y1232D01*
X1882Y1228D01*
X1860Y1221D01*
X1853Y1218D01*
X1850Y1214D01*
X1846Y1207D01*
Y1196D01*
X1853Y1189D01*
X1864Y1186D01*
X1878D01*
X1889Y1189D01*
X1896Y1196D01*
X1829Y1175D02*
X1779Y1260D01*
X1774D02*
Y1186D01*
Y1260D02*
X1724Y1186D01*
Y1260D02*
Y1186D01*
X1896Y963D02*
Y888D01*
Y963D02*
X1864D01*
X1853Y959D01*
X1850Y956D01*
X1846Y949D01*
Y942D01*
X1850Y934D01*
X1853Y931D01*
X1864Y927D01*
X1896D01*
X1871D02*
X1846Y888D01*
X1783Y963D02*
X1829D01*
Y888D01*
X1783D01*
X1829Y927D02*
X1801D01*
X1770Y963D02*
X1742Y888D01*
X1713Y963D02*
X1742Y888D01*
D32*
X1568Y525D02*
X1612D01*
X1163Y510D02*
X1207D01*
X1063D02*
X1107D01*
X963Y510D02*
X1007D01*
X798Y1985D02*
X842D01*
X1659D02*
X1702D01*
X1100D02*
X1144D01*
X961D02*
X1004D01*
X1519D02*
X1563D01*
X1380D02*
X1423D01*
X1188Y1515D02*
X1232D01*
X1240Y1985D02*
X1283D01*
X1373Y1515D02*
X1417D01*
X1558D02*
X1602D01*
X680Y263D02*
Y307D01*
X1799Y1985D02*
X1842D01*
X1938D02*
X1982D01*
D33*
X1391Y1650D02*
G03*
X1391Y1650I-4J0D01*
G01*
X1209D02*
G03*
X1209Y1650I-4J0D01*
G01*
X1574D02*
G03*
X1574Y1650I-4J0D01*
G01*
X1553Y446D02*
X1627D01*
X1553Y604D02*
X1627D01*
X1553Y446D02*
Y604D01*
X1627Y446D02*
Y604D01*
X1148Y431D02*
X1222D01*
X1148Y589D02*
X1222D01*
X1148Y431D02*
Y589D01*
X1222Y431D02*
Y589D01*
X1122Y431D02*
Y589D01*
X1048Y431D02*
Y589D01*
X1122D01*
X1048Y431D02*
X1122D01*
X948D02*
Y589D01*
X1022Y431D02*
Y589D01*
X948Y431D02*
X1022D01*
X948Y589D02*
X1022D01*
X857Y1906D02*
Y2064D01*
X783Y1906D02*
Y2064D01*
X857D01*
X783Y1906D02*
X857D01*
X1643D02*
X1718D01*
X1643Y2064D02*
X1718D01*
X1643Y1906D02*
Y2064D01*
X1718Y1906D02*
Y2064D01*
X1085Y1906D02*
X1160D01*
X1085Y2064D02*
X1160D01*
X1085Y1906D02*
Y2064D01*
X1160Y1906D02*
Y2064D01*
X1020Y1906D02*
Y2064D01*
X945Y1906D02*
Y2064D01*
X1020D01*
X945Y1906D02*
X1020D01*
X1504D02*
X1578D01*
X1504Y2064D02*
X1578D01*
X1504Y1906D02*
Y2064D01*
X1578Y1906D02*
Y2064D01*
X1364Y1906D02*
X1439D01*
X1364Y2064D02*
X1439D01*
X1364Y1906D02*
Y2064D01*
X1439Y1906D02*
Y2064D01*
X1173Y1436D02*
X1247D01*
X1173Y1594D02*
X1247D01*
X1173Y1436D02*
Y1594D01*
X1247Y1436D02*
Y1594D01*
X1224Y1906D02*
X1299D01*
X1224Y2064D02*
X1299D01*
X1224Y1906D02*
Y2064D01*
X1299Y1906D02*
Y2064D01*
X1358Y1436D02*
X1432D01*
X1358Y1594D02*
X1432D01*
X1358Y1436D02*
Y1594D01*
X1432Y1436D02*
Y1594D01*
X1543Y1436D02*
X1617D01*
X1543Y1594D02*
X1617D01*
X1543Y1436D02*
Y1594D01*
X1617Y1436D02*
Y1594D01*
X601Y248D02*
X759D01*
X601Y322D02*
X759D01*
Y248D02*
Y322D01*
X601Y248D02*
Y322D01*
X1783Y2064D02*
X1858D01*
X1783Y1906D02*
X1858D01*
Y2064D01*
X1783Y1906D02*
Y2064D01*
X1923D02*
X1997D01*
X1923Y1906D02*
X1997D01*
Y2064D01*
X1923Y1906D02*
Y2064D01*
D49*
X1429Y1658D02*
X1456D01*
X1429Y1772D02*
X1456D01*
X1429Y1658D02*
Y1772D01*
X1456Y1658D02*
Y1772D01*
X1246Y1658D02*
X1274D01*
X1246Y1772D02*
X1274D01*
X1246Y1658D02*
Y1772D01*
X1274Y1658D02*
Y1772D01*
X1611Y1658D02*
X1639D01*
X1611Y1772D02*
X1639D01*
X1611Y1658D02*
Y1772D01*
X1639Y1658D02*
Y1772D01*
D50*
X625Y221D02*
X735D01*
X625Y158D02*
X735D01*
X625Y131D02*
X735D01*
X625Y69D02*
X735D01*
D51*
X1310Y1210D02*
D03*
M02*
